EncodeSansSemiCondensed-Thin.ufo
<glyph name="exclam" format="2">
  <advance width="423.0"/>
  <unicode hex="0021"/>
  <outline>
    <contour>
      <point x="187.5" y="316.0" type="line"/>
      <point x="235.5" y="316.0" type="line"/>
      <point x="247.5" y="890.0" type="line"/>
      <point x="247.5" y="1480.0" type="line"/>
      <point x="175.5" y="1480.0" type="line"/>
      <point x="175.5" y="890.0" type="line"/>
    </contour>
    <contour>
      <point x="211.5" y="-10.0" type="curve" smooth="yes"/>
      <point x="247.5" y="-10.0"/>
      <point x="273.5" y="14.0"/>
      <point x="273.5" y="52.0" type="curve" smooth="yes"/>
      <point x="273.5" y="90.0"/>
      <point x="247.5" y="116.0"/>
      <point x="211.5" y="116.0" type="curve" smooth="yes"/>
      <point x="175.5" y="116.0"/>
      <point x="149.5" y="90.0"/>
      <point x="149.5" y="52.0" type="curve" smooth="yes"/>
      <point x="149.5" y="14.0"/>
      <point x="175.5" y="-10.0"/>
    </contour>
  </outline>
</glyph>
<glyph name="quotedbl" format="2">
  <advance width="630.0"/>
  <unicode hex="0022"/>
  <outline>
    <contour>
      <point x="162.5" y="956.0" type="line"/>
      <point x="202.5" y="956.0" type="line"/>
      <point x="222.5" y="1616.0" type="line"/>
      <point x="142.5" y="1616.0" type="line"/>
    </contour>
    <contour>
      <point x="427.5" y="956.0" type="line"/>
      <point x="467.5" y="956.0" type="line"/>
      <point x="487.5" y="1616.0" type="line"/>
      <point x="407.5" y="1616.0" type="line"/>
    </contour>
  </outline>
</glyph>
<glyph name="numbersign" format="2">
  <advance width="1050.0"/>
  <unicode hex="0023"/>
  <outline>
    <contour>
      <point x="589.5" y="0.0" type="line"/>
      <point x="655.5" y="0.0" type="line"/>
      <point x="794.5" y="1480.0" type="line"/>
      <point x="728.5" y="1480.0" type="line"/>
    </contour>
    <contour>
      <point x="95.0" y="494.0" type="line"/>
      <point x="955.0" y="494.0" type="line"/>
      <point x="955.0" y="560.0" type="line"/>
      <point x="95.0" y="560.0" type="line"/>
    </contour>
    <contour>
      <point x="255.5" y="0.0" type="line"/>
      <point x="321.5" y="0.0" type="line"/>
      <point x="460.5" y="1480.0" type="line"/>
      <point x="394.5" y="1480.0" type="line"/>
    </contour>
    <contour>
      <point x="95.0" y="920.0" type="line"/>
      <point x="955.0" y="920.0" type="line"/>
      <point x="955.0" y="986.0" type="line"/>
      <point x="95.0" y="986.0" type="line"/>
    </contour>
  </outline>
</glyph>
<glyph name="percent" format="2">
  <advance width="1628.5"/>
  <unicode hex="0025"/>
  <note>
450
</note>
  <outline>
    <contour>
      <point x="488.5" y="0.0" type="line"/>
      <point x="558.0" y="0.0" type="line"/>
      <point x="1140.0" y="1480.0" type="line"/>
      <point x="1070.5" y="1480.0" type="line"/>
    </contour>
    <contour>
      <point x="398.5" y="578.0" type="curve" smooth="yes"/>
      <point x="570.5" y="578.0"/>
      <point x="691.0" y="697.0"/>
      <point x="691.0" y="1038.0" type="curve" smooth="yes"/>
      <point x="691.0" y="1379.0"/>
      <point x="573.0" y="1498.0"/>
      <point x="398.5" y="1498.0" type="curve" smooth="yes"/>
      <point x="224.0" y="1498.0"/>
      <point x="106.0" y="1379.0"/>
      <point x="106.0" y="1038.0" type="curve" smooth="yes"/>
      <point x="106.0" y="697.0"/>
      <point x="226.5" y="578.0"/>
    </contour>
    <contour>
      <point x="398.5" y="640.5" type="curve" smooth="yes"/>
      <point x="263.5" y="640.5"/>
      <point x="172.5" y="736.5"/>
      <point x="172.5" y="1040.0" type="curve" smooth="yes"/>
      <point x="172.5" y="1340.5"/>
      <point x="263.5" y="1435.5"/>
      <point x="398.5" y="1435.5" type="curve" smooth="yes"/>
      <point x="533.0" y="1435.5"/>
      <point x="624.5" y="1340.5"/>
      <point x="624.5" y="1036.0" type="curve" smooth="yes"/>
      <point x="624.5" y="734.5"/>
      <point x="533.0" y="640.5"/>
    </contour>
    <contour>
      <point x="1230.0" y="-18.0" type="curve" smooth="yes"/>
      <point x="1403.5" y="-18.0"/>
      <point x="1522.5" y="101.0"/>
      <point x="1522.5" y="442.0" type="curve" smooth="yes"/>
      <point x="1522.5" y="783.0"/>
      <point x="1403.0" y="902.0"/>
      <point x="1230.0" y="902.0" type="curve" smooth="yes"/>
      <point x="1057.0" y="902.0"/>
      <point x="937.5" y="783.0"/>
      <point x="937.5" y="442.0" type="curve" smooth="yes"/>
      <point x="937.5" y="101.0"/>
      <point x="1056.5" y="-18.0"/>
    </contour>
    <contour>
      <point x="1230.0" y="44.5" type="curve" smooth="yes"/>
      <point x="1095.5" y="44.5"/>
      <point x="1004.0" y="140.5"/>
      <point x="1004.0" y="444.0" type="curve" smooth="yes"/>
      <point x="1004.0" y="744.5"/>
      <point x="1095.5" y="839.5"/>
      <point x="1230.0" y="839.5" type="curve" smooth="yes"/>
      <point x="1364.5" y="839.5"/>
      <point x="1456.0" y="744.5"/>
      <point x="1456.0" y="440.0" type="curve" smooth="yes"/>
      <point x="1456.0" y="138.5"/>
      <point x="1364.5" y="44.5"/>
    </contour>
  </outline>
</glyph>
<glyph name="ampersand" format="2">
  <advance width="1341.0"/>
  <unicode hex="0026"/>
  <outline>
    <contour>
      <point x="1297.5" y="-20.0" type="line"/>
      <point x="1341.0" y="31.0" type="line"/>
      <point x="643.0" y="646.5" type="line" smooth="yes"/>
      <point x="426.0" y="836.5"/>
      <point x="372.5" y="943.0"/>
      <point x="372.5" y="1097.5" type="curve" smooth="yes"/>
      <point x="372.5" y="1316.5"/>
      <point x="492.0" y="1432.0"/>
      <point x="747.5" y="1432.0" type="curve" smooth="yes"/>
      <point x="817.5" y="1432.0"/>
      <point x="881.5" y="1425.5"/>
      <point x="957.0" y="1404.5" type="curve"/>
      <point x="957.0" y="1472.5" type="line"/>
      <point x="895.0" y="1488.5"/>
      <point x="824.5" y="1498.0"/>
      <point x="751.0" y="1498.0" type="curve" smooth="yes"/>
      <point x="451.5" y="1498.0"/>
      <point x="300.5" y="1355.0"/>
      <point x="300.5" y="1096.0" type="curve" smooth="yes"/>
      <point x="300.5" y="920.0"/>
      <point x="372.0" y="796.5"/>
      <point x="599.5" y="595.5" type="curve" smooth="yes"/>
    </contour>
    <contour>
      <point x="624.5" y="-18.0" type="curve" smooth="yes"/>
      <point x="932.5" y="-18.0"/>
      <point x="1120.0" y="151.5"/>
      <point x="1120.0" y="483.5" type="curve" smooth="yes"/>
      <point x="1120.0" y="571.0"/>
      <point x="1108.5" y="670.0"/>
      <point x="1082.0" y="760.0" type="curve"/>
      <point x="1012.0" y="760.0" type="line"/>
      <point x="1040.0" y="670.0"/>
      <point x="1054.0" y="570.0"/>
      <point x="1054.0" y="482.5" type="curve" smooth="yes"/>
      <point x="1054.0" y="179.5"/>
      <point x="893.5" y="48.0"/>
      <point x="626.5" y="48.0" type="curve" smooth="yes"/>
      <point x="356.0" y="48.0"/>
      <point x="220.5" y="191.5"/>
      <point x="220.5" y="409.0" type="curve" smooth="yes"/>
      <point x="220.5" y="568.5"/>
      <point x="294.0" y="688.5"/>
      <point x="442.0" y="762.5" type="curve"/>
      <point x="406.0" y="819.0" type="line"/>
      <point x="239.0" y="733.5"/>
      <point x="148.5" y="589.0"/>
      <point x="148.5" y="403.0" type="curve" smooth="yes"/>
      <point x="148.5" y="151.0"/>
      <point x="319.5" y="-18.0"/>
    </contour>
  </outline>
</glyph>
<glyph name="quotesingle" format="2">
  <advance width="365.0"/>
  <unicode hex="0027"/>
  <outline>
    <contour>
      <point x="162.5" y="956.0" type="line"/>
      <point x="202.5" y="956.0" type="line"/>
      <point x="222.5" y="1616.0" type="line"/>
      <point x="142.5" y="1616.0" type="line"/>
    </contour>
  </outline>
</glyph>
<glyph name="parenleft" format="2">
  <advance width="586.0"/>
  <unicode hex="0028"/>
  <outline>
    <contour>
      <point x="448.5" y="-440.0" type="curve"/>
      <point x="523.0" y="-440.0" type="line"/>
      <point x="298.0" y="-129.0"/>
      <point x="200.0" y="218.0"/>
      <point x="200.0" y="588.0" type="curve" smooth="yes"/>
      <point x="200.0" y="958.0"/>
      <point x="298.0" y="1305.0"/>
      <point x="523.0" y="1616.0" type="curve"/>
      <point x="448.5" y="1616.0" type="line"/>
      <point x="226.0" y="1312.0"/>
      <point x="128.0" y="964.0"/>
      <point x="128.0" y="588.0" type="curve" smooth="yes"/>
      <point x="128.0" y="212.0"/>
      <point x="226.0" y="-136.0"/>
    </contour>
  </outline>
</glyph>
<glyph name="parenright" format="2">
  <advance width="586.0"/>
  <unicode hex="0029"/>
  <outline>
    <contour>
      <point x="63.0" y="-440.0" type="curve"/>
      <point x="137.5" y="-440.0" type="line"/>
      <point x="360.0" y="-136.0"/>
      <point x="458.0" y="212.0"/>
      <point x="458.0" y="588.0" type="curve" smooth="yes"/>
      <point x="458.0" y="964.0"/>
      <point x="360.0" y="1312.0"/>
      <point x="137.5" y="1616.0" type="curve"/>
      <point x="63.0" y="1616.0" type="line"/>
      <point x="288.0" y="1305.0"/>
      <point x="386.0" y="958.0"/>
      <point x="386.0" y="588.0" type="curve" smooth="yes"/>
      <point x="386.0" y="218.0"/>
      <point x="288.0" y="-129.0"/>
    </contour>
  </outline>
</glyph>
<glyph name="asterisk" format="2">
  <advance width="848.0"/>
  <unicode hex="002A"/>
  <outline>
    <contour>
      <point x="450.0" y="1211.0" type="line"/>
      <point x="648.0" y="1259.0" type="line"/>
      <point x="818.0" y="1314.0" type="line"/>
      <point x="798.0" y="1374.0" type="line"/>
      <point x="630.0" y="1319.0" type="line"/>
      <point x="440.0" y="1241.0" type="line"/>
      <point x="456.0" y="1445.0" type="line"/>
      <point x="456.0" y="1616.0" type="line"/>
      <point x="392.0" y="1616.0" type="line"/>
      <point x="392.0" y="1445.0" type="line"/>
      <point x="408.0" y="1241.0" type="line"/>
      <point x="218.0" y="1319.0" type="line"/>
      <point x="50.0" y="1374.0" type="line"/>
      <point x="30.0" y="1314.0" type="line"/>
      <point x="200.0" y="1259.0" type="line"/>
      <point x="398.0" y="1211.0" type="line"/>
      <point x="266.0" y="1055.0" type="line"/>
      <point x="162.5" y="914.5" type="line"/>
      <point x="214.5" y="876.5" type="line"/>
      <point x="318.0" y="1017.0" type="line"/>
      <point x="424.0" y="1191.0" type="line"/>
      <point x="530.0" y="1017.0" type="line"/>
      <point x="633.5" y="876.5" type="line"/>
      <point x="685.5" y="914.5" type="line"/>
      <point x="582.0" y="1055.0" type="line"/>
    </contour>
  </outline>
</glyph>
<glyph name="plus" format="2">
  <advance width="1039.0"/>
  <unicode hex="002B"/>
  <outline>
    <contour>
      <point x="485.5" y="378.0" type="line"/>
      <point x="553.5" y="378.0" type="line"/>
      <point x="553.5" y="728.0" type="line"/>
      <point x="883.5" y="728.0" type="line"/>
      <point x="883.5" y="792.0" type="line"/>
      <point x="553.5" y="792.0" type="line"/>
      <point x="553.5" y="1142.0" type="line"/>
      <point x="485.5" y="1142.0" type="line"/>
      <point x="485.5" y="792.0" type="line"/>
      <point x="155.5" y="792.0" type="line"/>
      <point x="155.5" y="728.0" type="line"/>
      <point x="485.5" y="728.0" type="line"/>
    </contour>
  </outline>
</glyph>
<glyph name="hyphen" format="2">
  <advance width="737.0"/>
  <unicode hex="002D"/>
  <outline>
    <contour>
      <point x="155.5" y="528.0" type="line"/>
      <point x="581.5" y="528.0" type="line"/>
      <point x="581.5" y="592.0" type="line"/>
      <point x="155.5" y="592.0" type="line"/>
    </contour>
  </outline>
</glyph>
<glyph name="period" format="2">
  <advance width="383.0"/>
  <unicode hex="002E"/>
  <outline>
    <contour>
      <point x="191.5" y="-10.0" type="curve" smooth="yes"/>
      <point x="227.5" y="-10.0"/>
      <point x="253.5" y="14.0"/>
      <point x="253.5" y="52.0" type="curve" smooth="yes"/>
      <point x="253.5" y="90.0"/>
      <point x="227.5" y="116.0"/>
      <point x="191.5" y="116.0" type="curve" smooth="yes"/>
      <point x="155.5" y="116.0"/>
      <point x="129.5" y="90.0"/>
      <point x="129.5" y="52.0" type="curve" smooth="yes"/>
      <point x="129.5" y="14.0"/>
      <point x="155.5" y="-10.0"/>
    </contour>
  </outline>
</glyph>
<glyph name="slash" format="2">
  <advance width="467.5"/>
  <unicode hex="002F"/>
  <outline>
    <contour>
      <point x="0.0" y="-240.0" type="line"/>
      <point x="69.5" y="-240.0" type="line"/>
      <point x="467.5" y="1616.0" type="line"/>
      <point x="398.0" y="1616.0" type="line"/>
    </contour>
  </outline>
</glyph>
<glyph name="zero" format="2">
  <advance width="1117.0"/>
  <unicode hex="0030"/>
  <note>
600
</note>
  <outline>
    <contour>
      <point x="558.5" y="-18.0" type="curve" smooth="yes"/>
      <point x="826.0" y="-18.0"/>
      <point x="999.0" y="176.0"/>
      <point x="999.0" y="740.0" type="curve" smooth="yes"/>
      <point x="999.0" y="1304.0"/>
      <point x="829.0" y="1498.0"/>
      <point x="558.5" y="1498.0" type="curve" smooth="yes"/>
      <point x="288.0" y="1498.0"/>
      <point x="118.0" y="1304.0"/>
      <point x="118.0" y="740.0" type="curve" smooth="yes"/>
      <point x="118.0" y="176.0"/>
      <point x="291.0" y="-18.0"/>
    </contour>
    <contour>
      <point x="558.5" y="48.0" type="curve" smooth="yes"/>
      <point x="336.5" y="48.0"/>
      <point x="190.0" y="206.0"/>
      <point x="190.0" y="744.0" type="curve" smooth="yes"/>
      <point x="190.0" y="1274.0"/>
      <point x="336.5" y="1432.0"/>
      <point x="558.5" y="1432.0" type="curve" smooth="yes"/>
      <point x="780.5" y="1432.0"/>
      <point x="927.0" y="1274.0"/>
      <point x="927.0" y="736.0" type="curve" smooth="yes"/>
      <point x="927.0" y="206.0"/>
      <point x="780.5" y="48.0"/>
    </contour>
  </outline>
</glyph>
<glyph name="one" format="2">
  <advance width="612.5"/>
  <unicode hex="0031"/>
  <outline>
    <contour>
      <point x="357.5" y="0.0" type="line"/>
      <point x="425.5" y="0.0" type="line"/>
      <point x="425.5" y="1484.0" type="line"/>
      <point x="385.5" y="1484.0" type="line"/>
      <point x="21.5" y="1209.5" type="line"/>
      <point x="21.5" y="1134.0" type="line"/>
      <point x="385.5" y="1407.5" type="line"/>
      <point x="357.5" y="1398.0" type="line"/>
    </contour>
  </outline>
</glyph>
<glyph name="two" format="2">
  <advance width="870.0"/>
  <unicode hex="0032"/>
  <outline>
    <contour>
      <point x="59.5" y="0.0" type="line"/>
      <point x="805.0" y="0.0" type="line"/>
      <point x="805.0" y="64.0" type="line"/>
      <point x="119.0" y="64.0" type="line"/>
      <point x="136.0" y="40.0" type="line"/>
      <point x="518.5" y="607.5" type="line" smooth="yes"/>
      <point x="675.0" y="838.5"/>
      <point x="728.0" y="974.0"/>
      <point x="729.5" y="1130.5" type="curve" smooth="yes"/>
      <point x="732.5" y="1389.0"/>
      <point x="581.0" y="1498.0"/>
      <point x="335.0" y="1498.0" type="curve" smooth="yes"/>
      <point x="229.5" y="1498.0"/>
      <point x="119.0" y="1477.5"/>
      <point x="43.0" y="1442.5" type="curve"/>
      <point x="43.0" y="1374.5" type="line"/>
      <point x="136.0" y="1413.5"/>
      <point x="229.0" y="1432.0"/>
      <point x="335.0" y="1432.0" type="curve" smooth="yes"/>
      <point x="543.5" y="1432.0"/>
      <point x="659.5" y="1351.0"/>
      <point x="659.5" y="1129.5" type="curve" smooth="yes"/>
      <point x="659.5" y="989.5"/>
      <point x="606.0" y="855.5"/>
      <point x="466.5" y="649.5" type="curve" smooth="yes"/>
      <point x="59.5" y="40.0" type="line"/>
    </contour>
  </outline>
</glyph>
<glyph name="three" format="2">
  <advance width="913.5"/>
  <unicode hex="0033"/>
  <outline>
    <contour>
      <point x="374.0" y="-18.0" type="curve" smooth="yes"/>
      <point x="668.5" y="-18.0"/>
      <point x="836.5" y="128.5"/>
      <point x="836.5" y="387.5" type="curve" smooth="yes"/>
      <point x="836.5" y="607.0"/>
      <point x="704.0" y="747.5"/>
      <point x="453.5" y="781.0" type="curve"/>
      <point x="452.0" y="757.0" type="line"/>
      <point x="665.5" y="800.5"/>
      <point x="789.0" y="942.5"/>
      <point x="789.0" y="1136.5" type="curve" smooth="yes"/>
      <point x="789.0" y="1367.5"/>
      <point x="644.5" y="1498.0"/>
      <point x="381.0" y="1498.0" type="curve" smooth="yes"/>
      <point x="276.5" y="1498.0"/>
      <point x="166.5" y="1478.5"/>
      <point x="86.5" y="1444.0" type="curve"/>
      <point x="86.5" y="1376.0" type="line"/>
      <point x="182.5" y="1414.5"/>
      <point x="276.0" y="1432.0"/>
      <point x="382.0" y="1432.0" type="curve" smooth="yes"/>
      <point x="602.5" y="1432.0"/>
      <point x="719.0" y="1332.0"/>
      <point x="719.0" y="1137.5" type="curve" smooth="yes"/>
      <point x="719.0" y="922.5"/>
      <point x="565.0" y="794.0"/>
      <point x="280.0" y="794.0" type="curve" smooth="yes"/>
      <point x="235.5" y="794.0" type="line"/>
      <point x="235.5" y="728.0" type="line"/>
      <point x="364.5" y="728.0" type="line" smooth="yes"/>
      <point x="639.0" y="728.0"/>
      <point x="766.5" y="597.0"/>
      <point x="766.5" y="386.5" type="curve" smooth="yes"/>
      <point x="766.5" y="163.0"/>
      <point x="623.0" y="48.0"/>
      <point x="373.5" y="48.0" type="curve" smooth="yes"/>
      <point x="271.5" y="48.0"/>
      <point x="160.0" y="67.0"/>
      <point x="53.5" y="106.5" type="curve"/>
      <point x="53.5" y="38.5" type="line"/>
      <point x="152.0" y="1.0"/>
      <point x="262.0" y="-18.0"/>
    </contour>
  </outline>
</glyph>
<glyph name="four" format="2">
  <advance width="1061.0"/>
  <unicode hex="0034"/>
  <outline>
    <contour>
      <point x="52.0" y="384.0" type="line"/>
      <point x="1017.0" y="384.0" type="line"/>
      <point x="1017.0" y="448.0" type="line"/>
      <point x="110.0" y="448.0" type="line"/>
      <point x="125.0" y="422.0" type="line"/>
      <point x="693.0" y="1480.0" type="line"/>
      <point x="618.0" y="1480.0" type="line"/>
      <point x="52.0" y="424.0" type="line"/>
    </contour>
    <contour>
      <point x="739.0" y="0.0" type="line"/>
      <point x="807.0" y="0.0" type="line"/>
      <point x="807.0" y="980.0" type="line"/>
      <point x="753.0" y="980.0" type="line"/>
      <point x="739.0" y="448.0" type="line"/>
    </contour>
  </outline>
</glyph>
<glyph name="five" format="2">
  <advance width="918.0"/>
  <unicode hex="0035"/>
  <outline>
    <contour>
      <point x="400.5" y="-18.0" type="curve" smooth="yes"/>
      <point x="700.0" y="-18.0"/>
      <point x="861.5" y="129.0"/>
      <point x="861.5" y="401.5" type="curve" smooth="yes"/>
      <point x="861.5" y="668.5"/>
      <point x="691.0" y="803.5"/>
      <point x="325.5" y="825.5" type="curve" smooth="yes"/>
      <point x="150.0" y="836.0" type="line"/>
      <point x="202.0" y="789.0" type="line"/>
      <point x="246.5" y="1442.0" type="line"/>
      <point x="213.0" y="1416.0" type="line"/>
      <point x="799.5" y="1416.0" type="line"/>
      <point x="799.5" y="1480.0" type="line"/>
      <point x="181.0" y="1480.0" type="line"/>
      <point x="133.5" y="770.0" type="line"/>
      <point x="309.0" y="759.5" type="line" smooth="yes"/>
      <point x="651.0" y="739.5"/>
      <point x="791.5" y="632.0"/>
      <point x="791.5" y="400.0" type="curve" smooth="yes"/>
      <point x="791.5" y="166.5"/>
      <point x="658.5" y="48.0"/>
      <point x="401.5" y="48.0" type="curve" smooth="yes"/>
      <point x="294.0" y="48.0"/>
      <point x="182.5" y="68.5"/>
      <point x="78.5" y="106.5" type="curve"/>
      <point x="78.5" y="38.5" type="line"/>
      <point x="173.5" y="1.5"/>
      <point x="286.5" y="-18.0"/>
    </contour>
  </outline>
</glyph>
<glyph name="six" format="2">
  <advance width="1022.5"/>
  <unicode hex="0036"/>
  <outline>
    <contour>
      <point x="579.0" y="-18.0" type="curve" smooth="yes"/>
      <point x="794.5" y="-18.0"/>
      <point x="965.5" y="117.5"/>
      <point x="965.5" y="406.5" type="curve" smooth="yes"/>
      <point x="965.5" y="691.5"/>
      <point x="788.5" y="828.0"/>
      <point x="548.0" y="828.0" type="curve" smooth="yes"/>
      <point x="397.5" y="828.0"/>
      <point x="253.5" y="769.0"/>
      <point x="176.5" y="672.0" type="curve"/>
      <point x="176.5" y="584.5" type="line"/>
      <point x="259.0" y="712.5"/>
      <point x="414.0" y="762.0"/>
      <point x="544.0" y="762.0" type="curve" smooth="yes"/>
      <point x="748.5" y="762.0"/>
      <point x="895.5" y="657.5"/>
      <point x="895.5" y="403.0" type="curve" smooth="yes"/>
      <point x="895.5" y="150.5"/>
      <point x="755.0" y="48.0"/>
      <point x="580.5" y="48.0" type="curve" smooth="yes"/>
      <point x="359.0" y="48.0"/>
      <point x="201.5" y="191.0"/>
      <point x="201.5" y="692.0" type="curve" smooth="yes"/>
      <point x="201.5" y="704.0" type="line" smooth="yes"/>
      <point x="201.5" y="1235.5"/>
      <point x="367.0" y="1432.0"/>
      <point x="670.5" y="1432.0" type="curve" smooth="yes"/>
      <point x="750.5" y="1432.0"/>
      <point x="835.0" y="1418.5"/>
      <point x="903.5" y="1388.5" type="curve"/>
      <point x="903.5" y="1456.5" type="line"/>
      <point x="835.5" y="1486.0"/>
      <point x="751.5" y="1498.0"/>
      <point x="673.0" y="1498.0" type="curve" smooth="yes"/>
      <point x="324.0" y="1498.0"/>
      <point x="131.5" y="1270.0"/>
      <point x="131.5" y="691.0" type="curve" smooth="yes"/>
      <point x="131.5" y="153.0"/>
      <point x="319.0" y="-18.0"/>
    </contour>
  </outline>
</glyph>
<glyph name="seven" format="2">
  <advance width="838.0"/>
  <unicode hex="0037"/>
  <outline>
    <contour>
      <point x="169.0" y="0.0" type="line"/>
      <point x="240.5" y="0.0" type="line"/>
      <point x="780.5" y="1440.0" type="line"/>
      <point x="780.5" y="1480.0" type="line"/>
      <point x="10.0" y="1480.0" type="line"/>
      <point x="10.0" y="1416.0" type="line"/>
      <point x="722.5" y="1416.0" type="line"/>
      <point x="711.0" y="1442.0" type="line"/>
    </contour>
  </outline>
</glyph>
<glyph name="eight" format="2">
  <advance width="1117.0"/>
  <unicode hex="0038"/>
  <outline>
    <contour>
      <point x="570.0" y="-18.0" type="curve" smooth="yes"/>
      <point x="849.0" y="-18.0"/>
      <point x="1017.0" y="132.0"/>
      <point x="1017.0" y="362.5" type="curve" smooth="yes"/>
      <point x="1017.0" y="575.0"/>
      <point x="899.5" y="690.5"/>
      <point x="586.5" y="776.0" type="curve" smooth="yes"/>
      <point x="306.5" y="851.5"/>
      <point x="219.5" y="949.5"/>
      <point x="219.5" y="1131.5" type="curve" smooth="yes"/>
      <point x="219.5" y="1317.5"/>
      <point x="337.0" y="1432.0"/>
      <point x="553.5" y="1432.0" type="curve" smooth="yes"/>
      <point x="771.0" y="1432.0"/>
      <point x="901.0" y="1324.5"/>
      <point x="901.0" y="1126.5" type="curve" smooth="yes"/>
      <point x="901.0" y="947.0"/>
      <point x="815.5" y="844.5"/>
      <point x="619.5" y="760.0" type="curve"/>
      <point x="688.5" y="730.5" type="line"/>
      <point x="866.5" y="807.0"/>
      <point x="969.0" y="942.5"/>
      <point x="969.0" y="1127.0" type="curve" smooth="yes"/>
      <point x="969.0" y="1355.0"/>
      <point x="810.5" y="1498.0"/>
      <point x="554.0" y="1498.0" type="curve" smooth="yes"/>
      <point x="304.0" y="1498.0"/>
      <point x="147.5" y="1355.0"/>
      <point x="147.5" y="1129.5" type="curve" smooth="yes"/>
      <point x="147.5" y="915.0"/>
      <point x="267.5" y="792.0"/>
      <point x="576.0" y="708.5" type="curve" smooth="yes"/>
      <point x="852.0" y="633.0"/>
      <point x="945.0" y="547.0"/>
      <point x="945.0" y="357.0" type="curve" smooth="yes"/>
      <point x="945.0" y="160.5"/>
      <point x="806.5" y="48.0"/>
      <point x="570.5" y="48.0" type="curve" smooth="yes"/>
      <point x="305.0" y="48.0"/>
      <point x="171.5" y="163.5"/>
      <point x="171.5" y="370.0" type="curve" smooth="yes"/>
      <point x="171.5" y="556.5"/>
      <point x="285.0" y="694.0"/>
      <point x="476.0" y="750.5" type="curve"/>
      <point x="407.5" y="783.0" type="line"/>
      <point x="219.0" y="718.0"/>
      <point x="100.0" y="565.0"/>
      <point x="100.0" y="369.0" type="curve" smooth="yes"/>
      <point x="100.0" y="122.5"/>
      <point x="270.0" y="-18.0"/>
    </contour>
  </outline>
</glyph>
<glyph name="nine" format="2">
  <advance width="1022.5"/>
  <unicode hex="0039"/>
  <outline>
    <contour>
      <point x="443.5" y="1498.0" type="curve" smooth="yes"/>
      <point x="228.0" y="1498.0"/>
      <point x="57.0" y="1362.5"/>
      <point x="57.0" y="1073.5" type="curve" smooth="yes"/>
      <point x="57.0" y="788.5"/>
      <point x="234.0" y="652.0"/>
      <point x="474.5" y="652.0" type="curve" smooth="yes"/>
      <point x="625.0" y="652.0"/>
      <point x="769.0" y="711.0"/>
      <point x="846.0" y="808.0" type="curve"/>
      <point x="846.0" y="895.5" type="line"/>
      <point x="763.5" y="767.5"/>
      <point x="608.5" y="718.0"/>
      <point x="478.5" y="718.0" type="curve" smooth="yes"/>
      <point x="274.0" y="718.0"/>
      <point x="127.0" y="822.5"/>
      <point x="127.0" y="1077.0" type="curve" smooth="yes"/>
      <point x="127.0" y="1329.5"/>
      <point x="267.5" y="1432.0"/>
      <point x="442.0" y="1432.0" type="curve" smooth="yes"/>
      <point x="663.5" y="1432.0"/>
      <point x="821.0" y="1289.0"/>
      <point x="821.0" y="788.0" type="curve" smooth="yes"/>
      <point x="821.0" y="776.0" type="line" smooth="yes"/>
      <point x="821.0" y="244.5"/>
      <point x="655.5" y="48.0"/>
      <point x="352.0" y="48.0" type="curve" smooth="yes"/>
      <point x="272.0" y="48.0"/>
      <point x="187.5" y="61.5"/>
      <point x="119.0" y="91.5" type="curve"/>
      <point x="119.0" y="23.5" type="line"/>
      <point x="187.0" y="-6.0"/>
      <point x="271.0" y="-18.0"/>
      <point x="349.5" y="-18.0" type="curve" smooth="yes"/>
      <point x="698.5" y="-18.0"/>
      <point x="891.0" y="210.0"/>
      <point x="891.0" y="789.0" type="curve" smooth="yes"/>
      <point x="891.0" y="1327.0"/>
      <point x="703.5" y="1498.0"/>
    </contour>
  </outline>
</glyph>
<glyph name="less" format="2">
  <advance width="1039.0"/>
  <unicode hex="003C"/>
  <outline>
    <contour>
      <point x="883.5" y="406.0" type="line"/>
      <point x="883.5" y="478.0" type="line"/>
      <point x="219.5" y="772.0" type="line"/>
      <point x="219.5" y="748.0" type="line"/>
      <point x="883.5" y="1042.0" type="line"/>
      <point x="883.5" y="1114.0" type="line"/>
      <point x="155.5" y="786.0" type="line"/>
      <point x="155.5" y="734.0" type="line"/>
    </contour>
  </outline>
</glyph>
<glyph name="equal" format="2">
  <advance width="1039.0"/>
  <unicode hex="003D"/>
  <outline>
    <contour>
      <point x="155.5" y="910.0" type="line"/>
      <point x="883.5" y="910.0" type="line"/>
      <point x="883.5" y="974.0" type="line"/>
      <point x="155.5" y="974.0" type="line"/>
    </contour>
    <contour>
      <point x="155.5" y="546.0" type="line"/>
      <point x="883.5" y="546.0" type="line"/>
      <point x="883.5" y="610.0" type="line"/>
      <point x="155.5" y="610.0" type="line"/>
    </contour>
  </outline>
</glyph>
<glyph name="greater" format="2">
  <advance width="1039.0"/>
  <unicode hex="003E"/>
  <outline>
    <contour>
      <point x="155.5" y="406.0" type="line"/>
      <point x="883.5" y="734.0" type="line"/>
      <point x="883.5" y="786.0" type="line"/>
      <point x="155.5" y="1114.0" type="line"/>
      <point x="155.5" y="1042.0" type="line"/>
      <point x="819.5" y="748.0" type="line"/>
      <point x="819.5" y="772.0" type="line"/>
      <point x="155.5" y="478.0" type="line"/>
    </contour>
  </outline>
</glyph>
<glyph name="question" format="2">
  <advance width="806.5"/>
  <unicode hex="003F"/>
  <outline>
    <contour>
      <point x="333.0" y="300.0" type="line"/>
      <point x="381.0" y="300.0" type="line"/>
      <point x="391.0" y="689.5" type="line"/>
      <point x="658.5" y="807.0"/>
      <point x="744.5" y="931.5"/>
      <point x="744.5" y="1136.5" type="curve" smooth="yes"/>
      <point x="744.5" y="1367.5"/>
      <point x="600.0" y="1498.0"/>
      <point x="336.5" y="1498.0" type="curve" smooth="yes"/>
      <point x="232.0" y="1498.0"/>
      <point x="122.0" y="1478.5"/>
      <point x="42.0" y="1444.0" type="curve"/>
      <point x="42.0" y="1376.0" type="line"/>
      <point x="138.0" y="1414.5"/>
      <point x="231.5" y="1432.0"/>
      <point x="336.0" y="1432.0" type="curve" smooth="yes"/>
      <point x="558.0" y="1432.0"/>
      <point x="674.5" y="1332.0"/>
      <point x="674.5" y="1137.5" type="curve" smooth="yes"/>
      <point x="674.5" y="950.0"/>
      <point x="585.0" y="834.5"/>
      <point x="321.0" y="733.0" type="curve"/>
    </contour>
    <contour>
      <point x="357.0" y="-10.0" type="curve" smooth="yes"/>
      <point x="395.0" y="-10.0"/>
      <point x="419.0" y="16.0"/>
      <point x="419.0" y="52.0" type="curve" smooth="yes"/>
      <point x="419.0" y="90.0"/>
      <point x="393.0" y="116.0"/>
      <point x="357.0" y="116.0" type="curve" smooth="yes"/>
      <point x="321.0" y="116.0"/>
      <point x="295.0" y="90.0"/>
      <point x="295.0" y="52.0" type="curve" smooth="yes"/>
      <point x="295.0" y="16.0"/>
      <point x="321.0" y="-10.0"/>
    </contour>
  </outline>
</glyph>
<glyph name="at" format="2">
  <advance width="1680.5"/>
  <unicode hex="0040"/>
  <outline>
    <contour>
      <point x="884.5" y="-460.0" type="curve" smooth="yes"/>
      <point x="1008.5" y="-460.0"/>
      <point x="1126.5" y="-437.0"/>
      <point x="1221.0" y="-404.0" type="curve"/>
      <point x="1221.0" y="-336.0" type="line"/>
      <point x="1106.0" y="-374.5"/>
      <point x="1002.0" y="-394.0"/>
      <point x="884.5" y="-394.0" type="curve" smooth="yes"/>
      <point x="430.5" y="-394.0"/>
      <point x="180.0" y="-161.5"/>
      <point x="180.0" y="524.0" type="curve" smooth="yes"/>
      <point x="180.0" y="1197.5"/>
      <point x="429.5" y="1432.0"/>
      <point x="845.5" y="1432.0" type="curve" smooth="yes"/>
      <point x="1261.0" y="1432.0"/>
      <point x="1504.5" y="1199.5"/>
      <point x="1504.5" y="554.0" type="curve" smooth="yes"/>
      <point x="1504.5" y="174.5"/>
      <point x="1398.5" y="48.0"/>
      <point x="1294.5" y="48.0" type="curve" smooth="yes"/>
      <point x="1208.0" y="48.0"/>
      <point x="1172.5" y="100.5"/>
      <point x="1172.5" y="216.0" type="curve" smooth="yes"/>
      <point x="1172.5" y="754.5" type="line" smooth="yes"/>
      <point x="1172.5" y="1012.0"/>
      <point x="1046.5" y="1096.0"/>
      <point x="828.0" y="1096.0" type="curve" smooth="yes"/>
      <point x="743.0" y="1096.0"/>
      <point x="635.5" y="1079.5"/>
      <point x="558.0" y="1049.5" type="curve"/>
      <point x="558.0" y="981.5" type="line"/>
      <point x="655.0" y="1016.0"/>
      <point x="753.5" y="1030.0"/>
      <point x="827.0" y="1030.0" type="curve" smooth="yes"/>
      <point x="1003.5" y="1030.0"/>
      <point x="1104.5" y="972.0"/>
      <point x="1104.5" y="755.5" type="curve" smooth="yes"/>
      <point x="1104.5" y="221.0" type="line"/>
      <point x="1020.0" y="94.0"/>
      <point x="905.0" y="50.0"/>
      <point x="800.5" y="50.0" type="curve" smooth="yes"/>
      <point x="650.5" y="50.0"/>
      <point x="571.0" y="123.5"/>
      <point x="571.0" y="273.5" type="curve" smooth="yes"/>
      <point x="571.0" y="412.0"/>
      <point x="651.5" y="487.0"/>
      <point x="834.0" y="508.5" type="curve" smooth="yes"/>
      <point x="1147.0" y="545.0" type="line"/>
      <point x="1142.0" y="611.0" type="line"/>
      <point x="835.5" y="574.5" type="line" smooth="yes"/>
      <point x="604.5" y="547.0"/>
      <point x="497.0" y="448.5"/>
      <point x="497.0" y="266.5" type="curve" smooth="yes"/>
      <point x="497.0" y="82.5"/>
      <point x="616.0" y="-16.0"/>
      <point x="796.0" y="-16.0" type="curve" smooth="yes"/>
      <point x="919.5" y="-16.0"/>
      <point x="1030.5" y="34.0"/>
      <point x="1103.0" y="124.0" type="curve"/>
      <point x="1111.5" y="124.0" type="line"/>
      <point x="1128.0" y="40.5"/>
      <point x="1187.5" y="-16.0"/>
      <point x="1290.5" y="-16.0" type="curve" smooth="yes"/>
      <point x="1444.0" y="-16.0"/>
      <point x="1572.0" y="147.0"/>
      <point x="1572.5" y="560.0" type="curve" smooth="yes"/>
      <point x="1573.0" y="1222.5"/>
      <point x="1308.5" y="1498.0"/>
      <point x="845.5" y="1498.0" type="curve" smooth="yes"/>
      <point x="381.5" y="1498.0"/>
      <point x="108.0" y="1222.5"/>
      <point x="108.0" y="520.0" type="curve" smooth="yes"/>
      <point x="108.0" y="-189.5"/>
      <point x="385.0" y="-459.5"/>
    </contour>
  </outline>
</glyph>
<glyph name="B" format="2">
  <advance width="1153.0"/>
  <unicode hex="0042"/>
  <anchor x="594.0" y="0.0" name="bottom"/>
  <anchor x="594.0" y="1480.0" name="top"/>
  <outline>
    <contour>
      <point x="486.5" y="-10.0" type="curve" smooth="yes"/>
      <point x="905.5" y="-10.0"/>
      <point x="1073.0" y="127.5"/>
      <point x="1073.0" y="392.5" type="curve" smooth="yes"/>
      <point x="1073.0" y="596.5"/>
      <point x="965.0" y="744.0"/>
      <point x="716.0" y="771.5" type="curve"/>
      <point x="714.5" y="757.0" type="line"/>
      <point x="952.5" y="790.5"/>
      <point x="1030.5" y="942.5"/>
      <point x="1030.5" y="1112.0" type="curve" smooth="yes"/>
      <point x="1030.5" y="1371.5"/>
      <point x="877.5" y="1494.0"/>
      <point x="516.5" y="1494.0" type="curve" smooth="yes"/>
      <point x="378.0" y="1494.0"/>
      <point x="276.5" y="1482.0"/>
      <point x="177.0" y="1463.0" type="curve"/>
      <point x="177.0" y="7.0" type="line"/>
      <point x="286.0" y="-5.5"/>
      <point x="379.5" y="-10.0"/>
    </contour>
    <contour>
      <point x="488.5" y="56.0" type="curve" smooth="yes"/>
      <point x="402.0" y="56.0"/>
      <point x="322.0" y="59.0"/>
      <point x="245.0" y="69.0" type="curve"/>
      <point x="245.0" y="1407.5" type="line"/>
      <point x="321.5" y="1421.0"/>
      <point x="401.0" y="1428.0"/>
      <point x="514.0" y="1428.0" type="curve" smooth="yes"/>
      <point x="838.0" y="1428.0"/>
      <point x="961.0" y="1337.5"/>
      <point x="961.0" y="1112.0" type="curve" smooth="yes"/>
      <point x="961.0" y="905.5"/>
      <point x="852.5" y="794.0"/>
      <point x="539.5" y="794.0" type="curve" smooth="yes"/>
      <point x="229.0" y="794.0" type="line"/>
      <point x="229.0" y="728.0" type="line"/>
      <point x="573.0" y="728.0" type="line" smooth="yes"/>
      <point x="869.0" y="728.0"/>
      <point x="1003.0" y="616.5"/>
      <point x="1003.0" y="390.5" type="curve" smooth="yes"/>
      <point x="1003.0" y="163.5"/>
      <point x="869.5" y="56.0"/>
    </contour>
  </outline>
</glyph>
<glyph name="D" format="2">
  <advance width="1249.5"/>
  <unicode hex="0044"/>
  <anchor x="563.5" y="0.0" name="bottom"/>
  <anchor x="624.5" y="740.0" name="center"/>
  <anchor x="177.0" y="762.0" name="stroke"/>
  <anchor x="563.5" y="1520.0" name="top"/>
  <outline>
    <contour>
      <point x="461.0" y="-10.0" type="curve" smooth="yes"/>
      <point x="906.5" y="-10.0"/>
      <point x="1141.5" y="214.0"/>
      <point x="1141.5" y="740.0" type="curve" smooth="yes"/>
      <point x="1141.5" y="1254.0"/>
      <point x="920.0" y="1494.0"/>
      <point x="485.5" y="1494.0" type="curve" smooth="yes"/>
      <point x="384.5" y="1494.0"/>
      <point x="275.0" y="1482.0"/>
      <point x="177.0" y="1464.5" type="curve"/>
      <point x="177.0" y="7.0" type="line"/>
      <point x="293.5" y="-5.5"/>
      <point x="370.5" y="-10.0"/>
    </contour>
    <contour>
      <point x="463.0" y="56.0" type="curve" smooth="yes"/>
      <point x="381.5" y="56.0"/>
      <point x="316.0" y="59.5"/>
      <point x="245.0" y="69.0" type="curve"/>
      <point x="245.0" y="1409.0" type="line"/>
      <point x="327.0" y="1421.0"/>
      <point x="407.0" y="1428.0"/>
      <point x="481.0" y="1428.0" type="curve" smooth="yes"/>
      <point x="882.0" y="1428.0"/>
      <point x="1069.5" y="1220.0"/>
      <point x="1069.5" y="740.0" type="curve" smooth="yes"/>
      <point x="1069.5" y="252.5"/>
      <point x="868.5" y="56.0"/>
    </contour>
  </outline>
</glyph>
<glyph name="F" format="2">
  <advance width="992.0"/>
  <unicode hex="0046"/>
  <outline>
    <contour>
      <point x="177.0" y="0.0" type="line"/>
      <point x="245.0" y="0.0" type="line"/>
      <point x="245.0" y="1414.0" type="line"/>
      <point x="958.0" y="1414.0" type="line"/>
      <point x="958.0" y="1480.0" type="line"/>
      <point x="177.0" y="1480.0" type="line"/>
    </contour>
    <contour>
      <point x="237.0" y="728.0" type="line"/>
      <point x="865.5" y="728.0" type="line"/>
      <point x="865.5" y="794.0" type="line"/>
      <point x="237.0" y="794.0" type="line"/>
    </contour>
  </outline>
</glyph>
<glyph name="G" format="2">
  <advance width="1203.5"/>
  <unicode hex="0047"/>
  <anchor x="663.5" y="0.0" name="bottom"/>
  <anchor x="663.5" y="1520.0" name="top"/>
  <outline>
    <contour>
      <point x="779.5" y="-10.0" type="curve" smooth="yes"/>
      <point x="869.0" y="-10.0"/>
      <point x="946.0" y="-4.0"/>
      <point x="1057.0" y="15.5" type="curve"/>
      <point x="1057.0" y="720.0" type="line"/>
      <point x="989.0" y="720.0" type="line"/>
      <point x="989.0" y="42.5" type="line"/>
      <point x="1011.0" y="78.0" type="line"/>
      <point x="940.5" y="63.0"/>
      <point x="866.0" y="56.0"/>
      <point x="779.5" y="56.0" type="curve" smooth="yes"/>
      <point x="381.0" y="56.0"/>
      <point x="180.5" y="233.0"/>
      <point x="180.0" y="739.0" type="curve" smooth="yes"/>
      <point x="179.5" y="1263.5"/>
      <point x="394.0" y="1432.0"/>
      <point x="727.0" y="1432.0" type="curve" smooth="yes"/>
      <point x="823.0" y="1432.0"/>
      <point x="919.0" y="1421.5"/>
      <point x="1033.5" y="1386.5" type="curve"/>
      <point x="1033.5" y="1454.5" type="line"/>
      <point x="934.5" y="1483.0"/>
      <point x="831.0" y="1498.0"/>
      <point x="730.5" y="1498.0" type="curve" smooth="yes"/>
      <point x="356.0" y="1498.0"/>
      <point x="107.5" y="1299.5"/>
      <point x="108.0" y="738.0" type="curve" smooth="yes"/>
      <point x="108.5" y="194.5"/>
      <point x="341.5" y="-10.0"/>
    </contour>
  </outline>
</glyph>
<glyph name="I" format="2">
  <advance width="422.0"/>
  <unicode hex="0049"/>
  <anchor x="211.0" y="0.0" name="bottom"/>
  <anchor x="245.0" y="0.0" name="ogonek"/>
  <anchor x="211.0" y="1520.0" name="top"/>
  <outline>
    <contour>
      <point x="177.0" y="0.0" type="line"/>
      <point x="245.0" y="0.0" type="line"/>
      <point x="245.0" y="1480.0" type="line"/>
      <point x="177.0" y="1480.0" type="line"/>
    </contour>
  </outline>
</glyph>
<glyph name="J" format="2">
  <advance width="422.0"/>
  <unicode hex="004A"/>
  <anchor x="291.0" y="0.0" name="bottom"/>
  <anchor x="211.0" y="1520.0" name="top"/>
  <outline>
    <contour>
      <point x="46.0" y="-340.0" type="line"/>
      <point x="183.5" y="-139.0"/>
      <point x="235.5" y="22.0"/>
      <point x="245.0" y="254.5" type="curve"/>
      <point x="245.0" y="1480.0" type="line"/>
      <point x="177.0" y="1480.0" type="line"/>
      <point x="177.0" y="286.0" type="line" smooth="yes"/>
      <point x="177.0" y="41.0"/>
      <point x="123.0" y="-119.0"/>
      <point x="-3.5" y="-305.5" type="curve"/>
    </contour>
  </outline>
</glyph>
<glyph name="K" format="2">
  <advance width="1111.5"/>
  <unicode hex="004B"/>
  <anchor x="586.0" y="0.0" name="bottom"/>
  <anchor x="586.0" y="1480.0" name="top"/>
  <outline>
    <contour>
      <point x="1052.0" y="0.0" type="line"/>
      <point x="1135.5" y="0.0" type="line"/>
      <point x="516.5" y="774.0" type="line"/>
      <point x="516.5" y="750.0" type="line"/>
      <point x="1093.5" y="1480.0" type="line"/>
      <point x="1012.0" y="1480.0" type="line"/>
      <point x="445.0" y="758.0" type="line"/>
    </contour>
    <contour>
      <point x="177.0" y="0.0" type="line"/>
      <point x="245.0" y="0.0" type="line"/>
      <point x="245.0" y="1480.0" type="line"/>
      <point x="177.0" y="1480.0" type="line"/>
    </contour>
    <contour>
      <point x="229.0" y="728.0" type="line"/>
      <point x="488.0" y="728.0" type="line"/>
      <point x="488.0" y="792.5" type="line"/>
      <point x="229.0" y="792.5" type="line"/>
    </contour>
  </outline>
</glyph>
<glyph name="L" format="2">
  <advance width="958.5"/>
  <unicode hex="004C"/>
  <anchor x="564.5" y="0.0" name="bottom"/>
  <anchor x="622.0" y="1616.0" name="caronalt"/>
  <anchor x="683.5" y="774.0" name="periodcentered"/>
  <anchor x="211.0" y="774.0" name="slash"/>
  <anchor x="211.0" y="1520.0" name="top"/>
  <outline>
    <contour>
      <point x="177.0" y="0.0" type="line"/>
      <point x="950.0" y="0.0" type="line"/>
      <point x="950.0" y="66.0" type="line"/>
      <point x="245.0" y="66.0" type="line"/>
      <point x="245.0" y="1480.0" type="line"/>
      <point x="177.0" y="1480.0" type="line"/>
    </contour>
  </outline>
</glyph>
<glyph name="M" format="2">
  <advance width="1604.0"/>
  <unicode hex="004D"/>
  <anchor x="802.0" y="0.0" name="bottom"/>
  <anchor x="802.0" y="1480.0" name="top"/>
  <outline>
    <contour>
      <point x="181.0" y="0.0" type="line"/>
      <point x="247.0" y="0.0" type="line"/>
      <point x="247.0" y="1421.0" type="line"/>
      <point x="210.0" y="1421.0" type="line"/>
      <point x="764.0" y="200.0" type="line"/>
      <point x="840.0" y="200.0" type="line"/>
      <point x="1392.0" y="1421.0" type="line"/>
      <point x="1357.0" y="1421.0" type="line"/>
      <point x="1357.0" y="0.0" type="line"/>
      <point x="1423.0" y="0.0" type="line"/>
      <point x="1423.0" y="1480.0" type="line"/>
      <point x="1347.5" y="1480.0" type="line"/>
      <point x="788.0" y="232.0" type="line"/>
      <point x="820.0" y="232.0" type="line"/>
      <point x="256.5" y="1480.0" type="line"/>
      <point x="181.0" y="1480.0" type="line"/>
    </contour>
  </outline>
</glyph>
<glyph name="N" format="2">
  <advance width="1337.5"/>
  <unicode hex="004E"/>
  <anchor x="669.0" y="0.0" name="bottom"/>
  <anchor x="669.0" y="1520.0" name="top"/>
  <outline>
    <contour>
      <point x="177.0" y="0.0" type="line"/>
      <point x="243.0" y="0.0" type="line"/>
      <point x="243.0" y="1420.0" type="line"/>
      <point x="211.5" y="1420.0" type="line"/>
      <point x="1085.0" y="0.0" type="line"/>
      <point x="1160.5" y="0.0" type="line"/>
      <point x="1160.5" y="1480.0" type="line"/>
      <point x="1094.5" y="1480.0" type="line"/>
      <point x="1094.5" y="60.0" type="line"/>
      <point x="1126.0" y="60.0" type="line"/>
      <point x="252.5" y="1480.0" type="line"/>
      <point x="177.0" y="1480.0" type="line"/>
    </contour>
  </outline>
</glyph>
<glyph name="P" format="2">
  <advance width="1119.0"/>
  <unicode hex="0050"/>
  <outline>
    <contour>
      <point x="177.0" y="0.0" type="line"/>
      <point x="245.0" y="0.0" type="line"/>
      <point x="245.0" y="527.5" type="line"/>
      <point x="313.5" y="520.5"/>
      <point x="374.5" y="518.0"/>
      <point x="445.0" y="518.0" type="curve" smooth="yes"/>
      <point x="847.0" y="518.0"/>
      <point x="1023.5" y="688.5"/>
      <point x="1023.5" y="1005.5" type="curve" smooth="yes"/>
      <point x="1023.5" y="1341.5"/>
      <point x="841.0" y="1494.0"/>
      <point x="490.0" y="1494.0" type="curve" smooth="yes"/>
      <point x="378.0" y="1494.0"/>
      <point x="276.5" y="1482.0"/>
      <point x="177.0" y="1464.5" type="curve"/>
    </contour>
    <contour>
      <point x="449.5" y="584.0" type="curve" smooth="yes"/>
      <point x="377.0" y="584.0"/>
      <point x="311.5" y="587.0"/>
      <point x="245.0" y="596.0" type="curve"/>
      <point x="245.0" y="1409.0" type="line"/>
      <point x="321.5" y="1421.0"/>
      <point x="401.0" y="1428.0"/>
      <point x="490.0" y="1428.0" type="curve" smooth="yes"/>
      <point x="802.0" y="1428.0"/>
      <point x="951.5" y="1300.0"/>
      <point x="951.5" y="1002.0" type="curve" smooth="yes"/>
      <point x="951.5" y="721.0"/>
      <point x="799.0" y="584.0"/>
    </contour>
  </outline>
</glyph>
<glyph name="Q" format="2">
  <advance width="1266.0"/>
  <unicode hex="0051"/>
  <outline>
    <contour>
      <point x="1122.5" y="-180.0" type="curve"/>
      <point x="1133.5" y="-114.0" type="line"/>
      <point x="933.5" y="-96.5"/>
      <point x="703.0" y="-58.5"/>
      <point x="543.5" y="19.0" type="curve"/>
      <point x="556.0" y="-8.0" type="line"/>
      <point x="954.5" y="-59.0"/>
      <point x="1158.0" y="200.5"/>
      <point x="1158.0" y="740.0" type="curve" smooth="yes"/>
      <point x="1158.0" y="1294.5"/>
      <point x="949.0" y="1498.0"/>
      <point x="633.0" y="1498.0" type="curve" smooth="yes"/>
      <point x="317.0" y="1498.0"/>
      <point x="108.0" y="1291.5"/>
      <point x="108.0" y="740.0" type="curve" smooth="yes"/>
      <point x="108.0" y="117.5"/>
      <point x="341.5" y="-92.0"/>
    </contour>
    <contour>
      <point x="633.0" y="48.5" type="curve" smooth="yes"/>
      <point x="362.0" y="48.5"/>
      <point x="180.0" y="215.0"/>
      <point x="180.0" y="744.0" type="curve" smooth="yes"/>
      <point x="180.0" y="1265.0"/>
      <point x="362.0" y="1431.5"/>
      <point x="633.0" y="1431.5" type="curve" smooth="yes"/>
      <point x="904.0" y="1431.5"/>
      <point x="1086.0" y="1265.0"/>
      <point x="1086.0" y="736.0" type="curve" smooth="yes"/>
      <point x="1086.0" y="215.0"/>
      <point x="904.0" y="48.5"/>
    </contour>
  </outline>
</glyph>
<glyph name="U" format="2">
  <advance width="1285.0"/>
  <unicode hex="0055"/>
  <anchor x="643.5" y="0.0" name="bottom"/>
  <anchor x="770.0" y="1.0" name="ogonek"/>
  <anchor x="643.5" y="1520.0" name="top"/>
  <anchor x="1050.0" y="1480.0" name="topright"/>
  <outline>
    <contour>
      <point x="643.5" y="-18.0" type="curve" smooth="yes"/>
      <point x="973.0" y="-18.0"/>
      <point x="1116.0" y="148.0"/>
      <point x="1116.0" y="510.5" type="curve" smooth="yes"/>
      <point x="1116.0" y="1480.0" type="line"/>
      <point x="1050.0" y="1480.0" type="line"/>
      <point x="1050.0" y="500.5" type="line" smooth="yes"/>
      <point x="1050.0" y="192.0"/>
      <point x="931.0" y="48.0"/>
      <point x="643.5" y="48.0" type="curve" smooth="yes"/>
      <point x="356.0" y="48.0"/>
      <point x="237.0" y="192.0"/>
      <point x="237.0" y="500.5" type="curve" smooth="yes"/>
      <point x="237.0" y="1480.0" type="line"/>
      <point x="169.0" y="1480.0" type="line"/>
      <point x="169.0" y="510.5" type="line" smooth="yes"/>
      <point x="169.0" y="148.0"/>
      <point x="314.0" y="-18.0"/>
    </contour>
  </outline>
</glyph>
<glyph name="V" format="2">
  <advance width="1172.0"/>
  <unicode hex="0056"/>
  <outline>
    <contour>
      <point x="539.0" y="0.0" type="line"/>
      <point x="633.0" y="0.0" type="line"/>
      <point x="1158.5" y="1480.0" type="line"/>
      <point x="1088.0" y="1480.0" type="line"/>
      <point x="579.5" y="40.0" type="line"/>
      <point x="595.5" y="40.0" type="line"/>
      <point x="88.0" y="1480.0" type="line"/>
      <point x="13.5" y="1480.0" type="line"/>
    </contour>
  </outline>
</glyph>
<glyph name="X" format="2">
  <advance width="1149.0"/>
  <unicode hex="0058"/>
  <outline>
    <contour>
      <point x="1031.0" y="0.0" type="line"/>
      <point x="1115.0" y="0.0" type="line"/>
      <point x="615.0" y="748.0" type="line"/>
      <point x="574.5" y="808.0" type="line"/>
      <point x="126.0" y="1480.0" type="line"/>
      <point x="43.5" y="1480.0" type="line"/>
      <point x="533.5" y="747.5" type="line"/>
      <point x="574.0" y="686.0" type="line"/>
    </contour>
    <contour>
      <point x="33.5" y="0.0" type="line"/>
      <point x="115.5" y="0.0" type="line"/>
      <point x="574.0" y="686.0" type="line"/>
      <point x="615.0" y="748.0" type="line"/>
      <point x="1105.0" y="1480.0" type="line"/>
      <point x="1023.5" y="1480.0" type="line"/>
      <point x="574.5" y="808.0" type="line"/>
      <point x="533.5" y="747.5" type="line"/>
    </contour>
  </outline>
</glyph>
<glyph name="Z" format="2">
  <advance width="1026.5"/>
  <unicode hex="005A"/>
  <anchor x="514.0" y="0.0" name="bottom"/>
  <anchor x="514.0" y="1520.0" name="top"/>
  <outline>
    <contour>
      <point x="59.5" y="0.0" type="line"/>
      <point x="967.0" y="0.0" type="line"/>
      <point x="967.0" y="64.0" type="line"/>
      <point x="120.5" y="64.0" type="line"/>
      <point x="135.5" y="38.5" type="line"/>
      <point x="956.0" y="1440.0" type="line"/>
      <point x="956.0" y="1480.0" type="line"/>
      <point x="70.5" y="1480.0" type="line"/>
      <point x="70.5" y="1416.0" type="line"/>
      <point x="895.0" y="1416.0" type="line"/>
      <point x="880.0" y="1441.5" type="line"/>
      <point x="59.5" y="40.0" type="line"/>
    </contour>
  </outline>
</glyph>
<glyph name="bracketleft" format="2">
  <advance width="586.0"/>
  <unicode hex="005B"/>
  <outline>
    <contour>
      <point x="197.0" y="-440.0" type="line"/>
      <point x="626.0" y="-440.0" type="line"/>
      <point x="626.0" y="-376.0" type="line"/>
      <point x="265.0" y="-376.0" type="line"/>
      <point x="265.0" y="1552.0" type="line"/>
      <point x="626.0" y="1552.0" type="line"/>
      <point x="626.0" y="1616.0" type="line"/>
      <point x="197.0" y="1616.0" type="line"/>
    </contour>
  </outline>
</glyph>
<glyph name="backslash" format="2">
  <advance width="469.5"/>
  <unicode hex="005C"/>
  <outline>
    <contour>
      <point x="399.0" y="-240.0" type="line"/>
      <point x="469.5" y="-240.0" type="line"/>
      <point x="70.5" y="1616.0" type="line"/>
      <point x="0.0" y="1616.0" type="line"/>
    </contour>
  </outline>
</glyph>
<glyph name="bracketright" format="2">
  <advance width="586.0"/>
  <unicode hex="005D"/>
  <outline>
    <contour>
      <point x="-40.0" y="-440.0" type="line"/>
      <point x="389.0" y="-440.0" type="line"/>
      <point x="389.0" y="1616.0" type="line"/>
      <point x="-40.0" y="1616.0" type="line"/>
      <point x="-40.0" y="1552.0" type="line"/>
      <point x="321.0" y="1552.0" type="line"/>
      <point x="321.0" y="-376.0" type="line"/>
      <point x="-40.0" y="-376.0" type="line"/>
    </contour>
  </outline>
</glyph>
<glyph name="asciicircum" format="2">
  <advance width="1050.0"/>
  <unicode hex="005E"/>
  <outline>
    <contour>
      <point x="114.0" y="740.0" type="line"/>
      <point x="191.5" y="740.0" type="line"/>
      <point x="529.0" y="1437.0" type="line"/>
      <point x="521.0" y="1437.0" type="line"/>
      <point x="858.5" y="740.0" type="line"/>
      <point x="936.0" y="740.0" type="line"/>
      <point x="571.0" y="1480.0" type="line"/>
      <point x="477.0" y="1480.0" type="line"/>
    </contour>
  </outline>
</glyph>
<glyph name="a" format="2">
  <advance width="915.5"/>
  <unicode hex="0061"/>
  <guideline x="164.5" y="330.0" angle="90.0"/>
  <anchor x="461.5" y="0.0" name="bottom"/>
  <anchor x="770.5" y="0.0" name="ogonek"/>
  <anchor x="452.5" y="1200.0" name="top"/>
  <outline>
    <contour>
      <point x="394.0" y="-16.0" type="curve" smooth="yes"/>
      <point x="517.0" y="-16.0"/>
      <point x="626.5" y="34.0"/>
      <point x="696.5" y="125.0" type="curve"/>
      <point x="704.5" y="125.0" type="line"/>
      <point x="710.5" y="0.0" type="line"/>
      <point x="770.5" y="0.0" type="line"/>
      <point x="770.5" y="750.0" type="line" smooth="yes"/>
      <point x="770.5" y="1012.0"/>
      <point x="644.5" y="1096.0"/>
      <point x="423.5" y="1096.0" type="curve" smooth="yes"/>
      <point x="336.0" y="1096.0"/>
      <point x="228.5" y="1079.5"/>
      <point x="151.0" y="1049.5" type="curve"/>
      <point x="151.0" y="981.5" type="line"/>
      <point x="248.0" y="1016.0"/>
      <point x="346.5" y="1030.0"/>
      <point x="422.5" y="1030.0" type="curve" smooth="yes"/>
      <point x="601.5" y="1030.0"/>
      <point x="702.5" y="972.0"/>
      <point x="702.5" y="751.0" type="curve" smooth="yes"/>
      <point x="702.5" y="221.0" type="line"/>
      <point x="618.0" y="94.0"/>
      <point x="503.0" y="50.0"/>
      <point x="398.5" y="50.0" type="curve" smooth="yes"/>
      <point x="248.5" y="50.0"/>
      <point x="169.0" y="123.5"/>
      <point x="169.0" y="273.5" type="curve" smooth="yes"/>
      <point x="169.0" y="412.0"/>
      <point x="249.0" y="488.5"/>
      <point x="436.5" y="509.0" type="curve" smooth="yes"/>
      <point x="746.5" y="544.5" type="line"/>
      <point x="740.0" y="610.5" type="line"/>
      <point x="438.5" y="575.0" type="line" smooth="yes"/>
      <point x="202.5" y="548.5"/>
      <point x="95.0" y="448.5"/>
      <point x="95.0" y="266.5" type="curve" smooth="yes"/>
      <point x="95.0" y="84.0"/>
      <point x="213.5" y="-16.0"/>
    </contour>
  </outline>
</glyph>
<glyph name="b" format="2">
  <advance width="992.5"/>
  <unicode hex="0062"/>
  <anchor x="499.0" y="0.0" name="bottom"/>
  <anchor x="191.0" y="1616.0" name="top"/>
  <outline>
    <contour>
      <point x="413.0" y="-18.0" type="curve" smooth="yes"/>
      <point x="719.0" y="-18.0"/>
      <point x="894.5" y="158.5"/>
      <point x="894.5" y="560.0" type="curve" smooth="yes"/>
      <point x="894.5" y="969.0"/>
      <point x="719.5" y="1096.0"/>
      <point x="513.0" y="1096.0" type="curve" smooth="yes"/>
      <point x="386.0" y="1096.0"/>
      <point x="288.5" y="1038.5"/>
      <point x="231.0" y="971.5" type="curve"/>
      <point x="225.0" y="971.5" type="line"/>
      <point x="225.0" y="1616.0" type="line"/>
      <point x="157.0" y="1616.0" type="line"/>
      <point x="157.0" y="21.0" type="line"/>
      <point x="230.0" y="-3.5"/>
      <point x="326.5" y="-18.0"/>
    </contour>
    <contour>
      <point x="415.0" y="48.0" type="curve" smooth="yes"/>
      <point x="346.5" y="48.0"/>
      <point x="273.0" y="59.5"/>
      <point x="225.0" y="74.0" type="curve"/>
      <point x="225.0" y="871.5" type="line"/>
      <point x="288.0" y="977.5"/>
      <point x="399.5" y="1030.0"/>
      <point x="509.0" y="1030.0" type="curve" smooth="yes"/>
      <point x="684.0" y="1030.0"/>
      <point x="822.5" y="933.5"/>
      <point x="822.5" y="552.0" type="curve" smooth="yes"/>
      <point x="822.5" y="191.0"/>
      <point x="678.0" y="48.0"/>
    </contour>
  </outline>
</glyph>
<glyph name="j" format="2">
  <advance width="382.0"/>
  <unicode hex="006A"/>
  <anchor x="191.0" y="1203.0" name="_top"/>
  <anchor x="191.0" y="1203.0" name="top"/>
  <outline>
    <contour>
      <point x="26.0" y="-460.0" type="line"/>
      <point x="163.5" y="-259.0"/>
      <point x="225.0" y="-93.0"/>
      <point x="225.0" y="174.5" type="curve" smooth="yes"/>
      <point x="225.0" y="1080.0" type="line"/>
      <point x="157.0" y="1080.0" type="line"/>
      <point x="157.0" y="166.0" type="line" smooth="yes"/>
      <point x="157.0" y="-79.0"/>
      <point x="103.0" y="-239.0"/>
      <point x="-23.5" y="-425.5" type="curve"/>
    </contour>
    <contour>
      <point x="191.0" y="1363.0" type="curve" smooth="yes"/>
      <point x="227.0" y="1363.0"/>
      <point x="253.0" y="1387.0"/>
      <point x="253.0" y="1425.0" type="curve" smooth="yes"/>
      <point x="253.0" y="1463.0"/>
      <point x="227.0" y="1489.0"/>
      <point x="191.0" y="1489.0" type="curve" smooth="yes"/>
      <point x="155.0" y="1489.0"/>
      <point x="129.0" y="1463.0"/>
      <point x="129.0" y="1425.0" type="curve" smooth="yes"/>
      <point x="129.0" y="1387.0"/>
      <point x="155.0" y="1363.0"/>
    </contour>
  </outline>
</glyph>
<glyph name="k" format="2">
  <advance width="894.5"/>
  <unicode hex="006B"/>
  <anchor x="490.5" y="0.0" name="bottom"/>
  <anchor x="191.0" y="1616.0" name="top"/>
  <outline>
    <contour>
      <point x="829.5" y="0.0" type="line"/>
      <point x="914.0" y="0.0" type="line"/>
      <point x="467.0" y="563.5" type="line"/>
      <point x="467.0" y="540.5" type="line"/>
      <point x="882.0" y="1080.0" type="line"/>
      <point x="799.0" y="1080.0" type="line"/>
      <point x="391.5" y="552.0" type="line"/>
    </contour>
    <contour>
      <point x="209.0" y="520.0" type="line"/>
      <point x="433.0" y="520.0" type="line"/>
      <point x="433.0" y="584.0" type="line"/>
      <point x="209.0" y="584.0" type="line"/>
    </contour>
    <contour>
      <point x="157.0" y="0.0" type="line"/>
      <point x="225.0" y="0.0" type="line"/>
      <point x="225.0" y="1616.0" type="line"/>
      <point x="157.0" y="1616.0" type="line"/>
    </contour>
  </outline>
</glyph>
<glyph name="l" format="2">
  <advance width="382.0"/>
  <unicode hex="006C"/>
  <anchor x="191.0" y="0.0" name="bottom"/>
  <anchor x="335.0" y="1616.0" name="caronalt"/>
  <anchor x="373.5" y="794.0" name="periodcentered"/>
  <anchor x="191.0" y="714.0" name="slash"/>
  <anchor x="191.0" y="1616.0" name="top"/>
  <outline>
    <contour>
      <point x="157.0" y="0.0" type="line"/>
      <point x="225.0" y="0.0" type="line"/>
      <point x="225.0" y="1616.0" type="line"/>
      <point x="157.0" y="1616.0" type="line"/>
    </contour>
  </outline>
</glyph>
<glyph name="m" format="2">
  <advance width="1541.0"/>
  <unicode hex="006D"/>
  <anchor x="779.0" y="0.0" name="bottom"/>
  <anchor x="779.0" y="1200.0" name="top"/>
  <outline>
    <contour>
      <point x="157.0" y="0.0" type="line"/>
      <point x="225.0" y="0.0" type="line"/>
      <point x="225.0" y="845.5" type="line"/>
      <point x="303.5" y="983.5"/>
      <point x="431.0" y="1030.0"/>
      <point x="524.5" y="1030.0" type="curve" smooth="yes"/>
      <point x="653.5" y="1030.0"/>
      <point x="745.0" y="962.5"/>
      <point x="745.0" y="754.0" type="curve" smooth="yes"/>
      <point x="745.0" y="0.0" type="line"/>
      <point x="813.0" y="0.0" type="line"/>
      <point x="813.0" y="754.5" type="line" smooth="yes"/>
      <point x="813.0" y="1012.0"/>
      <point x="692.5" y="1096.0"/>
      <point x="532.0" y="1096.0" type="curve" smooth="yes"/>
      <point x="421.0" y="1096.0"/>
      <point x="313.0" y="1050.0"/>
      <point x="231.0" y="952.0" type="curve"/>
      <point x="223.0" y="952.0" type="line"/>
      <point x="217.0" y="1080.0" type="line"/>
      <point x="157.0" y="1080.0" type="line"/>
    </contour>
    <contour>
      <point x="1328.0" y="0.0" type="line"/>
      <point x="1396.0" y="0.0" type="line"/>
      <point x="1396.0" y="754.5" type="line" smooth="yes"/>
      <point x="1396.0" y="1012.0"/>
      <point x="1270.0" y="1096.0"/>
      <point x="1108.0" y="1096.0" type="curve" smooth="yes"/>
      <point x="998.0" y="1096.0"/>
      <point x="865.0" y="1050.5"/>
      <point x="763.5" y="902.5" type="curve"/>
      <point x="790.5" y="818.5" type="line"/>
      <point x="869.5" y="983.5"/>
      <point x="1009.5" y="1030.0"/>
      <point x="1103.0" y="1030.0" type="curve" smooth="yes"/>
      <point x="1232.5" y="1030.0"/>
      <point x="1328.0" y="962.5"/>
      <point x="1328.0" y="754.0" type="curve" smooth="yes"/>
    </contour>
  </outline>
</glyph>
<glyph name="v" format="2">
  <advance width="926.5"/>
  <unicode hex="0076"/>
  <anchor x="464.5" y="0.0" name="bottom"/>
  <anchor x="464.5" y="1200.0" name="top"/>
  <outline>
    <contour>
      <point x="416.5" y="0.0" type="line"/>
      <point x="510.0" y="0.0" type="line"/>
      <point x="908.0" y="1080.0" type="line"/>
      <point x="833.5" y="1080.0" type="line"/>
      <point x="454.0" y="35.0" type="line"/>
      <point x="474.0" y="35.0" type="line"/>
      <point x="94.5" y="1080.0" type="line"/>
      <point x="18.5" y="1080.0" type="line"/>
    </contour>
  </outline>
</glyph>
<glyph name="w" format="2">
  <advance width="1534.0"/>
  <unicode hex="0077"/>
  <anchor x="767.5" y="0.0" name="bottom"/>
  <anchor x="769.0" y="1200.0" name="top"/>
  <outline>
    <contour>
      <point x="371.5" y="0.0" type="line"/>
      <point x="465.5" y="0.0" type="line"/>
      <point x="775.5" y="1032.0" type="line"/>
      <point x="760.0" y="1032.0" type="line"/>
      <point x="1069.0" y="0.0" type="line"/>
      <point x="1163.0" y="0.0" type="line"/>
      <point x="1473.0" y="1080.0" type="line"/>
      <point x="1402.5" y="1080.0" type="line"/>
      <point x="1109.0" y="40.0" type="line"/>
      <point x="1125.0" y="40.0" type="line"/>
      <point x="815.0" y="1080.0" type="line"/>
      <point x="721.0" y="1080.0" type="line"/>
      <point x="411.5" y="40.0" type="line"/>
      <point x="427.5" y="40.0" type="line"/>
      <point x="133.5" y="1080.0" type="line"/>
      <point x="61.0" y="1080.0" type="line"/>
    </contour>
  </outline>
</glyph>
<glyph name="x" format="2">
  <advance width="863.5"/>
  <unicode hex="0078"/>
  <anchor x="433.0" y="0.0" name="bottom"/>
  <anchor x="433.0" y="1200.0" name="top"/>
  <outline>
    <contour>
      <point x="760.5" y="0.0" type="line"/>
      <point x="843.5" y="0.0" type="line"/>
      <point x="472.5" y="546.0" type="line"/>
      <point x="433.0" y="603.5" type="line"/>
      <point x="111.0" y="1080.0" type="line"/>
      <point x="28.0" y="1080.0" type="line"/>
      <point x="391.5" y="544.0" type="line"/>
      <point x="431.0" y="488.0" type="line"/>
    </contour>
    <contour>
      <point x="22.5" y="0.0" type="line"/>
      <point x="104.0" y="0.0" type="line"/>
      <point x="431.0" y="488.0" type="line"/>
      <point x="472.5" y="546.0" type="line"/>
      <point x="836.0" y="1080.0" type="line"/>
      <point x="755.5" y="1080.0" type="line"/>
      <point x="433.0" y="603.5" type="line"/>
      <point x="391.5" y="544.0" type="line"/>
    </contour>
  </outline>
</glyph>
<glyph name="z" format="2">
  <advance width="803.5"/>
  <unicode hex="007A"/>
  <anchor x="404.5" y="0.0" name="bottom"/>
  <anchor x="404.5" y="1200.0" name="top"/>
  <outline>
    <contour>
      <point x="57.5" y="0.0" type="line"/>
      <point x="750.0" y="0.0" type="line"/>
      <point x="750.0" y="64.0" type="line"/>
      <point x="132.0" y="64.0" type="line"/>
      <point x="132.0" y="38.5" type="line"/>
      <point x="739.0" y="1040.0" type="line"/>
      <point x="739.0" y="1080.0" type="line"/>
      <point x="68.5" y="1080.0" type="line"/>
      <point x="68.5" y="1016.0" type="line"/>
      <point x="664.5" y="1016.0" type="line"/>
      <point x="664.5" y="1041.5" type="line"/>
      <point x="57.5" y="40.0" type="line"/>
    </contour>
  </outline>
</glyph>
<glyph name="braceleft" format="2">
  <advance width="626.0"/>
  <unicode hex="007B"/>
  <outline>
    <contour>
      <point x="546.0" y="-460.0" type="curve" smooth="yes"/>
      <point x="590.0" y="-460.0"/>
      <point x="636.0" y="-456.0"/>
      <point x="666.0" y="-450.0" type="curve"/>
      <point x="666.0" y="-394.0" type="line"/>
      <point x="542.0" y="-394.0" type="line" smooth="yes"/>
      <point x="382.5" y="-394.0"/>
      <point x="305.0" y="-322.5"/>
      <point x="305.0" y="-162.5" type="curve" smooth="yes"/>
      <point x="305.0" y="404.0" type="line" smooth="yes"/>
      <point x="305.0" y="530.0"/>
      <point x="259.0" y="602.0"/>
      <point x="163.0" y="628.0" type="curve"/>
      <point x="163.0" y="616.0" type="line"/>
      <point x="259.0" y="642.0"/>
      <point x="305.0" y="714.0"/>
      <point x="305.0" y="840.0" type="curve" smooth="yes"/>
      <point x="305.0" y="1338.5" type="line" smooth="yes"/>
      <point x="305.0" y="1498.5"/>
      <point x="382.5" y="1570.0"/>
      <point x="542.0" y="1570.0" type="curve" smooth="yes"/>
      <point x="666.0" y="1570.0" type="line"/>
      <point x="666.0" y="1626.0" type="line"/>
      <point x="636.0" y="1632.0"/>
      <point x="590.0" y="1636.0"/>
      <point x="546.0" y="1636.0" type="curve" smooth="yes"/>
      <point x="342.0" y="1636.0"/>
      <point x="237.0" y="1534.5"/>
      <point x="237.0" y="1331.0" type="curve" smooth="yes"/>
      <point x="237.0" y="835.0" type="line" smooth="yes"/>
      <point x="237.0" y="708.0"/>
      <point x="175.0" y="654.0"/>
      <point x="58.0" y="654.0" type="curve" smooth="yes"/>
      <point x="48.5" y="654.0" type="line"/>
      <point x="48.5" y="590.0" type="line"/>
      <point x="58.0" y="590.0" type="line" smooth="yes"/>
      <point x="175.0" y="590.0"/>
      <point x="237.0" y="536.0"/>
      <point x="237.0" y="409.0" type="curve" smooth="yes"/>
      <point x="237.0" y="-155.0" type="line" smooth="yes"/>
      <point x="237.0" y="-358.5"/>
      <point x="342.0" y="-460.0"/>
    </contour>
  </outline>
</glyph>
<glyph name="braceright" format="2">
  <advance width="626.0"/>
  <unicode hex="007D"/>
  <outline>
    <contour>
      <point x="80.0" y="-460.0" type="curve" smooth="yes"/>
      <point x="284.0" y="-460.0"/>
      <point x="389.0" y="-358.5"/>
      <point x="389.0" y="-155.0" type="curve" smooth="yes"/>
      <point x="389.0" y="409.0" type="line" smooth="yes"/>
      <point x="389.0" y="536.0"/>
      <point x="451.0" y="590.0"/>
      <point x="568.0" y="590.0" type="curve" smooth="yes"/>
      <point x="577.5" y="590.0" type="line"/>
      <point x="577.5" y="654.0" type="line"/>
      <point x="568.0" y="654.0" type="line" smooth="yes"/>
      <point x="451.0" y="654.0"/>
      <point x="389.0" y="708.0"/>
      <point x="389.0" y="835.0" type="curve" smooth="yes"/>
      <point x="389.0" y="1331.0" type="line" smooth="yes"/>
      <point x="389.0" y="1534.5"/>
      <point x="284.0" y="1636.0"/>
      <point x="80.0" y="1636.0" type="curve" smooth="yes"/>
      <point x="36.0" y="1636.0"/>
      <point x="-10.0" y="1632.0"/>
      <point x="-40.0" y="1626.0" type="curve"/>
      <point x="-40.0" y="1570.0" type="line"/>
      <point x="84.0" y="1570.0" type="line" smooth="yes"/>
      <point x="243.5" y="1570.0"/>
      <point x="321.0" y="1498.5"/>
      <point x="321.0" y="1338.5" type="curve" smooth="yes"/>
      <point x="321.0" y="840.0" type="line" smooth="yes"/>
      <point x="321.0" y="714.0"/>
      <point x="367.0" y="642.0"/>
      <point x="463.0" y="616.0" type="curve"/>
      <point x="463.0" y="628.0" type="line"/>
      <point x="367.0" y="602.0"/>
      <point x="321.0" y="530.0"/>
      <point x="321.0" y="404.0" type="curve" smooth="yes"/>
      <point x="321.0" y="-162.5" type="line" smooth="yes"/>
      <point x="321.0" y="-322.5"/>
      <point x="243.5" y="-394.0"/>
      <point x="84.0" y="-394.0" type="curve" smooth="yes"/>
      <point x="-40.0" y="-394.0" type="line"/>
      <point x="-40.0" y="-450.0" type="line"/>
      <point x="-10.0" y="-456.0"/>
      <point x="36.0" y="-460.0"/>
    </contour>
  </outline>
</glyph>
<glyph name="asciitilde" format="2">
  <advance width="1039.0"/>
  <unicode hex="007E"/>
  <outline>
    <contour>
      <point x="691.5" y="664.0" type="curve" smooth="yes"/>
      <point x="769.5" y="664.0"/>
      <point x="839.5" y="696.0"/>
      <point x="883.5" y="754.0" type="curve"/>
      <point x="883.5" y="836.0" type="line"/>
      <point x="829.5" y="764.0"/>
      <point x="765.5" y="728.0"/>
      <point x="689.5" y="728.0" type="curve" smooth="yes"/>
      <point x="585.5" y="728.0"/>
      <point x="479.5" y="844.0"/>
      <point x="347.5" y="844.0" type="curve" smooth="yes"/>
      <point x="269.5" y="844.0"/>
      <point x="199.5" y="812.0"/>
      <point x="155.5" y="754.0" type="curve"/>
      <point x="155.5" y="672.0" type="line"/>
      <point x="209.5" y="744.0"/>
      <point x="273.5" y="780.0"/>
      <point x="349.5" y="780.0" type="curve" smooth="yes"/>
      <point x="453.5" y="780.0"/>
      <point x="559.5" y="664.0"/>
    </contour>
  </outline>
</glyph>
<glyph name="exclamdown" format="2">
  <advance width="423.0"/>
  <unicode hex="00A1"/>
  <outline>
    <contour>
      <point x="187.5" y="764.0" type="line"/>
      <point x="175.5" y="190.0" type="line"/>
      <point x="175.5" y="-380.0" type="line"/>
      <point x="247.5" y="-380.0" type="line"/>
      <point x="247.5" y="190.0" type="line"/>
      <point x="235.5" y="764.0" type="line"/>
    </contour>
    <contour>
      <point x="211.5" y="1090.0" type="curve" smooth="yes"/>
      <point x="175.5" y="1090.0"/>
      <point x="149.5" y="1066.0"/>
      <point x="149.5" y="1028.0" type="curve" smooth="yes"/>
      <point x="149.5" y="990.0"/>
      <point x="175.5" y="964.0"/>
      <point x="211.5" y="964.0" type="curve" smooth="yes"/>
      <point x="247.5" y="964.0"/>
      <point x="273.5" y="990.0"/>
      <point x="273.5" y="1028.0" type="curve" smooth="yes"/>
      <point x="273.5" y="1066.0"/>
      <point x="247.5" y="1090.0"/>
    </contour>
  </outline>
</glyph>
<glyph name="cent" format="2">
  <advance width="763.5"/>
  <unicode hex="00A2"/>
  <outline>
    <contour>
      <point x="503.0" y="-18.0" type="curve" smooth="yes"/>
      <point x="579.5" y="-18.0"/>
      <point x="657.0" y="-4.5"/>
      <point x="739.5" y="25.5" type="curve"/>
      <point x="739.5" y="93.5" type="line"/>
      <point x="648.5" y="61.0"/>
      <point x="574.5" y="48.0"/>
      <point x="510.5" y="48.0" type="curve" smooth="yes"/>
      <point x="287.5" y="48.0"/>
      <point x="170.0" y="169.5"/>
      <point x="170.0" y="544.0" type="curve" smooth="yes"/>
      <point x="170.0" y="913.5"/>
      <point x="295.0" y="1030.0"/>
      <point x="546.5" y="1030.0" type="curve" smooth="yes"/>
      <point x="602.5" y="1030.0"/>
      <point x="669.5" y="1022.0"/>
      <point x="739.5" y="1002.5" type="curve"/>
      <point x="739.5" y="1070.5" type="line"/>
      <point x="675.5" y="1088.5"/>
      <point x="609.5" y="1096.0"/>
      <point x="550.0" y="1096.0" type="curve" smooth="yes"/>
      <point x="255.0" y="1096.0"/>
      <point x="98.0" y="946.0"/>
      <point x="98.0" y="540.0" type="curve" smooth="yes"/>
      <point x="98.0" y="133.5"/>
      <point x="243.5" y="-18.0"/>
    </contour>
    <contour>
      <point x="471.0" y="-240.0" type="line"/>
      <point x="535.0" y="-240.0" type="line"/>
      <point x="535.0" y="0.0" type="line"/>
      <point x="471.0" y="0.0" type="line"/>
    </contour>
    <contour>
      <point x="471.0" y="1080.0" type="line"/>
      <point x="535.0" y="1080.0" type="line"/>
      <point x="535.0" y="1320.0" type="line"/>
      <point x="471.0" y="1320.0" type="line"/>
    </contour>
  </outline>
</glyph>
<glyph name="currency" format="2">
  <advance width="1050.0"/>
  <unicode hex="00A4"/>
  <outline>
    <contour>
      <point x="301.0" y="940.0" type="line"/>
      <point x="325.0" y="962.0" type="line"/>
      <point x="240.0" y="1075.0" type="line"/>
      <point x="144.0" y="1175.0" type="line"/>
      <point x="88.0" y="1119.0" type="line"/>
      <point x="190.0" y="1023.0" type="line"/>
    </contour>
    <contour>
      <point x="749.0" y="940.0" type="line"/>
      <point x="860.0" y="1023.0" type="line"/>
      <point x="962.0" y="1119.0" type="line"/>
      <point x="906.0" y="1175.0" type="line"/>
      <point x="810.0" y="1075.0" type="line"/>
      <point x="725.0" y="962.0" type="line"/>
    </contour>
    <contour>
      <point x="904.0" y="305.0" type="line"/>
      <point x="960.0" y="361.0" type="line"/>
      <point x="860.0" y="457.0" type="line"/>
      <point x="759.0" y="530.0" type="line"/>
      <point x="735.0" y="504.0" type="line"/>
      <point x="808.0" y="405.0" type="line"/>
    </contour>
    <contour>
      <point x="146.0" y="305.0" type="line"/>
      <point x="242.0" y="405.0" type="line"/>
      <point x="315.0" y="504.0" type="line"/>
      <point x="291.0" y="530.0" type="line"/>
      <point x="190.0" y="457.0" type="line"/>
      <point x="90.0" y="361.0" type="line"/>
    </contour>
    <contour>
      <point x="525.0" y="412.5" type="curve" smooth="yes"/>
      <point x="710.0" y="412.5"/>
      <point x="834.5" y="543.0"/>
      <point x="834.5" y="740.0" type="curve" smooth="yes"/>
      <point x="834.5" y="935.0"/>
      <point x="710.0" y="1065.5"/>
      <point x="525.0" y="1065.5" type="curve" smooth="yes"/>
      <point x="338.0" y="1065.5"/>
      <point x="215.5" y="935.0"/>
      <point x="215.5" y="740.0" type="curve" smooth="yes"/>
      <point x="215.5" y="543.0"/>
      <point x="338.0" y="412.5"/>
    </contour>
    <contour>
      <point x="525.0" y="474.5" type="curve" smooth="yes"/>
      <point x="378.0" y="474.5"/>
      <point x="277.5" y="573.0"/>
      <point x="277.5" y="740.0" type="curve" smooth="yes"/>
      <point x="277.5" y="907.0"/>
      <point x="378.0" y="1005.5"/>
      <point x="527.0" y="1005.5" type="curve" smooth="yes"/>
      <point x="686.0" y="1005.5"/>
      <point x="772.5" y="895.0"/>
      <point x="772.5" y="740.0" type="curve" smooth="yes"/>
      <point x="772.5" y="571.0"/>
      <point x="672.0" y="474.5"/>
    </contour>
  </outline>
</glyph>
<glyph name="yen" format="2">
  <advance width="1100.0"/>
  <unicode hex="00A5"/>
  <outline>
    <contour>
      <point x="516.0" y="0.0" type="line"/>
      <point x="584.0" y="0.0" type="line"/>
      <point x="584.0" y="707.5" type="line"/>
      <point x="567.0" y="652.0" type="line"/>
      <point x="1089.5" y="1480.0" type="line"/>
      <point x="1011.5" y="1480.0" type="line"/>
      <point x="535.0" y="722.0" type="line"/>
      <point x="566.0" y="722.0" type="line"/>
      <point x="91.0" y="1480.0" type="line"/>
      <point x="10.5" y="1480.0" type="line"/>
      <point x="533.0" y="652.0" type="line"/>
      <point x="516.0" y="707.5" type="line"/>
    </contour>
    <contour>
      <point x="206.0" y="320.0" type="line"/>
      <point x="894.0" y="320.0" type="line"/>
      <point x="894.0" y="384.0" type="line"/>
      <point x="206.0" y="384.0" type="line"/>
    </contour>
    <contour>
      <point x="206.0" y="664.0" type="line"/>
      <point x="894.0" y="664.0" type="line"/>
      <point x="894.0" y="728.0" type="line"/>
      <point x="206.0" y="728.0" type="line"/>
    </contour>
  </outline>
</glyph>
<glyph name="section" format="2">
  <advance width="888.0"/>
  <unicode hex="00A7"/>
  <outline>
    <contour>
      <point x="386.0" y="-18.0" type="curve" smooth="yes"/>
      <point x="622.0" y="-18.0"/>
      <point x="748.0" y="94.0"/>
      <point x="748.0" y="279.0" type="curve" smooth="yes"/>
      <point x="748.0" y="422.0"/>
      <point x="686.0" y="515.0"/>
      <point x="488.5" y="565.0" type="curve" smooth="yes"/>
      <point x="378.0" y="592.0" type="line" smooth="yes"/>
      <point x="244.0" y="625.5"/>
      <point x="186.5" y="695.5"/>
      <point x="186.5" y="808.0" type="curve" smooth="yes"/>
      <point x="186.5" y="881.0"/>
      <point x="220.5" y="945.0"/>
      <point x="287.5" y="985.5" type="curve"/>
      <point x="237.0" y="1029.0" type="line"/>
      <point x="163.5" y="976.5"/>
      <point x="120.0" y="896.5"/>
      <point x="120.0" y="804.5" type="curve" smooth="yes"/>
      <point x="120.0" y="663.5"/>
      <point x="185.5" y="569.0"/>
      <point x="372.5" y="522.0" type="curve" smooth="yes"/>
      <point x="483.0" y="495.0" type="line" smooth="yes"/>
      <point x="616.0" y="461.5"/>
      <point x="677.5" y="402.5"/>
      <point x="677.5" y="274.0" type="curve" smooth="yes"/>
      <point x="677.5" y="129.0"/>
      <point x="580.0" y="48.0"/>
      <point x="387.5" y="48.0" type="curve" smooth="yes"/>
      <point x="308.0" y="48.0"/>
      <point x="234.0" y="59.5"/>
      <point x="137.0" y="89.5" type="curve"/>
      <point x="137.0" y="21.5" type="line"/>
      <point x="215.0" y="-4.5"/>
      <point x="296.5" y="-18.0"/>
    </contour>
    <contour>
      <point x="655.0" y="450.5" type="line"/>
      <point x="726.0" y="501.5"/>
      <point x="768.0" y="579.0"/>
      <point x="768.0" y="679.0" type="curve" smooth="yes"/>
      <point x="768.0" y="822.0"/>
      <point x="706.0" y="917.0"/>
      <point x="508.5" y="967.0" type="curve" smooth="yes"/>
      <point x="398.0" y="994.0" type="line" smooth="yes"/>
      <point x="264.0" y="1027.5"/>
      <point x="210.5" y="1095.5"/>
      <point x="210.5" y="1208.0" type="curve" smooth="yes"/>
      <point x="210.5" y="1332.5"/>
      <point x="297.5" y="1430.0"/>
      <point x="500.5" y="1430.0" type="curve" smooth="yes"/>
      <point x="575.0" y="1430.0"/>
      <point x="634.5" y="1423.0"/>
      <point x="715.0" y="1402.0" type="curve"/>
      <point x="715.0" y="1470.0" type="line"/>
      <point x="647.0" y="1487.0"/>
      <point x="580.0" y="1496.0"/>
      <point x="500.5" y="1496.0" type="curve" smooth="yes"/>
      <point x="262.0" y="1496.0"/>
      <point x="140.0" y="1371.0"/>
      <point x="140.0" y="1204.5" type="curve" smooth="yes"/>
      <point x="140.0" y="1063.5"/>
      <point x="205.5" y="971.0"/>
      <point x="392.5" y="924.0" type="curve" smooth="yes"/>
      <point x="503.0" y="897.0" type="line" smooth="yes"/>
      <point x="636.0" y="863.5"/>
      <point x="701.5" y="802.5"/>
      <point x="701.5" y="674.0" type="curve" smooth="yes"/>
      <point x="701.5" y="592.5"/>
      <point x="667.5" y="532.0"/>
      <point x="605.5" y="494.0" type="curve"/>
    </contour>
  </outline>
</glyph>
<glyph name="dieresis" format="2">
  <advance width="900.0"/>
  <unicode hex="00A8"/>
  <anchor x="450.0" y="1200.0" name="_top"/>
  <anchor x="450.0" y="1556.0" name="top"/>
  <outline>
    <contour>
      <point x="630.0" y="1360.0" type="curve" smooth="yes"/>
      <point x="666.0" y="1360.0"/>
      <point x="692.0" y="1384.0"/>
      <point x="692.0" y="1422.0" type="curve" smooth="yes"/>
      <point x="692.0" y="1460.0"/>
      <point x="666.0" y="1486.0"/>
      <point x="630.0" y="1486.0" type="curve" smooth="yes"/>
      <point x="594.0" y="1486.0"/>
      <point x="568.0" y="1460.0"/>
      <point x="568.0" y="1422.0" type="curve" smooth="yes"/>
      <point x="568.0" y="1384.0"/>
      <point x="594.0" y="1360.0"/>
    </contour>
    <contour>
      <point x="270.0" y="1360.0" type="curve" smooth="yes"/>
      <point x="306.0" y="1360.0"/>
      <point x="332.0" y="1384.0"/>
      <point x="332.0" y="1422.0" type="curve" smooth="yes"/>
      <point x="332.0" y="1460.0"/>
      <point x="306.0" y="1486.0"/>
      <point x="270.0" y="1486.0" type="curve" smooth="yes"/>
      <point x="234.0" y="1486.0"/>
      <point x="208.0" y="1460.0"/>
      <point x="208.0" y="1422.0" type="curve" smooth="yes"/>
      <point x="208.0" y="1384.0"/>
      <point x="234.0" y="1360.0"/>
    </contour>
  </outline>
</glyph>
<glyph name="copyright" format="2">
  <advance width="1704.0"/>
  <unicode hex="00A9"/>
  <outline>
    <contour>
      <point x="852.0" y="-22.0" type="curve" smooth="yes"/>
      <point x="1298.0" y="-22.0"/>
      <point x="1596.0" y="282.0"/>
      <point x="1596.0" y="740.0" type="curve" smooth="yes"/>
      <point x="1596.0" y="1198.0"/>
      <point x="1298.0" y="1502.0"/>
      <point x="852.0" y="1502.0" type="curve" smooth="yes"/>
      <point x="406.0" y="1502.0"/>
      <point x="108.0" y="1198.0"/>
      <point x="108.0" y="740.0" type="curve" smooth="yes"/>
      <point x="108.0" y="282.0"/>
      <point x="406.0" y="-22.0"/>
    </contour>
    <contour>
      <point x="886.0" y="324.0" type="curve" smooth="yes"/>
      <point x="964.0" y="324.0"/>
      <point x="1036.0" y="336.0"/>
      <point x="1104.0" y="366.0" type="curve"/>
      <point x="1104.0" y="432.0" type="line"/>
      <point x="1022.0" y="400.0"/>
      <point x="950.0" y="390.0"/>
      <point x="892.0" y="390.0" type="curve" smooth="yes"/>
      <point x="696.0" y="390.0"/>
      <point x="574.0" y="500.0"/>
      <point x="574.0" y="738.0" type="curve" smooth="yes"/>
      <point x="574.0" y="970.0"/>
      <point x="696.0" y="1078.0"/>
      <point x="914.0" y="1078.0" type="curve" smooth="yes"/>
      <point x="984.0" y="1078.0"/>
      <point x="1042.0" y="1068.0"/>
      <point x="1104.0" y="1050.0" type="curve"/>
      <point x="1104.0" y="1116.0" type="line"/>
      <point x="1040.0" y="1136.0"/>
      <point x="980.0" y="1144.0"/>
      <point x="912.0" y="1144.0" type="curve" smooth="yes"/>
      <point x="648.0" y="1144.0"/>
      <point x="502.0" y="996.0"/>
      <point x="502.0" y="734.0" type="curve" smooth="yes"/>
      <point x="502.0" y="462.0"/>
      <point x="656.0" y="324.0"/>
    </contour>
    <contour>
      <point x="852.0" y="46.0" type="curve" smooth="yes"/>
      <point x="446.0" y="46.0"/>
      <point x="176.0" y="322.0"/>
      <point x="176.0" y="740.0" type="curve" smooth="yes"/>
      <point x="176.0" y="1158.0"/>
      <point x="446.0" y="1434.0"/>
      <point x="852.0" y="1434.0" type="curve" smooth="yes"/>
      <point x="1258.0" y="1434.0"/>
      <point x="1528.0" y="1158.0"/>
      <point x="1528.0" y="740.0" type="curve" smooth="yes"/>
      <point x="1528.0" y="322.0"/>
      <point x="1258.0" y="46.0"/>
    </contour>
  </outline>
</glyph>
<glyph name="ordfeminine" format="2">
  <advance width="772.0"/>
  <unicode hex="00AA"/>
  <outline>
    <contour>
      <point x="328.0" y="596.0" type="curve" smooth="yes"/>
      <point x="431.5" y="596.0"/>
      <point x="525.0" y="637.0"/>
      <point x="585.0" y="710.0" type="curve"/>
      <point x="591.0" y="710.0" type="line"/>
      <point x="597.0" y="610.0" type="line"/>
      <point x="653.0" y="610.0" type="line"/>
      <point x="653.0" y="1206.5" type="line" smooth="yes"/>
      <point x="653.0" y="1422.0"/>
      <point x="548.0" y="1492.0"/>
      <point x="354.5" y="1492.0" type="curve" smooth="yes"/>
      <point x="280.0" y="1492.0"/>
      <point x="191.5" y="1478.0"/>
      <point x="124.5" y="1452.5" type="curve"/>
      <point x="124.5" y="1388.5" type="line"/>
      <point x="206.5" y="1416.5"/>
      <point x="286.5" y="1430.0"/>
      <point x="351.0" y="1430.0" type="curve" smooth="yes"/>
      <point x="504.5" y="1430.0"/>
      <point x="589.0" y="1382.0"/>
      <point x="589.0" y="1209.5" type="curve" smooth="yes"/>
      <point x="589.0" y="791.0" type="line"/>
      <point x="519.0" y="694.5"/>
      <point x="423.0" y="658.0"/>
      <point x="336.5" y="658.0" type="curve" smooth="yes"/>
      <point x="210.0" y="658.0"/>
      <point x="143.0" y="718.0"/>
      <point x="143.0" y="833.5" type="curve" smooth="yes"/>
      <point x="143.0" y="942.0"/>
      <point x="210.5" y="1001.5"/>
      <point x="368.0" y="1017.5" type="curve" smooth="yes"/>
      <point x="627.5" y="1044.5" type="line"/>
      <point x="622.0" y="1104.0" type="line"/>
      <point x="367.5" y="1077.0" type="line" smooth="yes"/>
      <point x="163.5" y="1055.5"/>
      <point x="75.0" y="971.5"/>
      <point x="75.0" y="826.5" type="curve" smooth="yes"/>
      <point x="75.0" y="682.5"/>
      <point x="175.5" y="596.0"/>
    </contour>
  </outline>
</glyph>
<glyph name="guillemetleft" format="2">
  <advance width="793.5"/>
  <unicode hex="00AB"/>
  <outline>
    <contour>
      <point x="341.0" y="140.0" type="line"/>
      <point x="412.0" y="140.0" type="line"/>
      <point x="190.0" y="560.0" type="line"/>
      <point x="412.0" y="980.0" type="line"/>
      <point x="341.0" y="980.0" type="line"/>
      <point x="119.0" y="560.0" type="line"/>
    </contour>
    <contour>
      <point x="643.5" y="140.0" type="line"/>
      <point x="714.5" y="140.0" type="line"/>
      <point x="492.5" y="560.0" type="line"/>
      <point x="714.5" y="980.0" type="line"/>
      <point x="643.5" y="980.0" type="line"/>
      <point x="421.5" y="560.0" type="line"/>
    </contour>
  </outline>
</glyph>
<glyph name="logicalnot" format="2">
  <advance width="1287.0"/>
  <unicode hex="00AC"/>
  <outline>
    <contour>
      <point x="1074.0" y="192.0" type="line"/>
      <point x="1142.0" y="192.0" type="line"/>
      <point x="1142.0" y="792.0" type="line"/>
      <point x="155.5" y="792.0" type="line"/>
      <point x="155.5" y="728.0" type="line"/>
      <point x="1074.0" y="728.0" type="line"/>
    </contour>
  </outline>
</glyph>
<glyph name="registered" format="2">
  <advance width="1514.0"/>
  <unicode hex="00AE"/>
  <outline>
    <contour>
      <point x="757.0" y="268.0" type="curve" smooth="yes"/>
      <point x="1119.0" y="268.0"/>
      <point x="1367.0" y="518.0"/>
      <point x="1367.0" y="882.0" type="curve" smooth="yes"/>
      <point x="1367.0" y="1246.0"/>
      <point x="1119.0" y="1498.0"/>
      <point x="757.0" y="1498.0" type="curve" smooth="yes"/>
      <point x="395.0" y="1498.0"/>
      <point x="147.0" y="1246.0"/>
      <point x="147.0" y="882.0" type="curve" smooth="yes"/>
      <point x="147.0" y="518.0"/>
      <point x="395.0" y="268.0"/>
    </contour>
    <contour>
      <point x="935.0" y="600.0" type="line"/>
      <point x="1011.0" y="600.0" type="line"/>
      <point x="835.0" y="860.0" type="line"/>
      <point x="775.0" y="834.0" type="line"/>
    </contour>
    <contour>
      <point x="757.0" y="334.0" type="curve" smooth="yes"/>
      <point x="429.0" y="334.0"/>
      <point x="215.0" y="550.0"/>
      <point x="215.0" y="882.0" type="curve" smooth="yes"/>
      <point x="215.0" y="1214.0"/>
      <point x="429.0" y="1432.0"/>
      <point x="757.0" y="1432.0" type="curve" smooth="yes"/>
      <point x="1085.0" y="1432.0"/>
      <point x="1299.0" y="1214.0"/>
      <point x="1299.0" y="882.0" type="curve" smooth="yes"/>
      <point x="1299.0" y="550.0"/>
      <point x="1085.0" y="334.0"/>
    </contour>
    <contour>
      <point x="549.0" y="600.0" type="line"/>
      <point x="615.0" y="600.0" type="line"/>
      <point x="615.0" y="826.0" type="line"/>
      <point x="743.0" y="826.0" type="line" smooth="yes"/>
      <point x="905.0" y="826.0"/>
      <point x="987.0" y="892.0"/>
      <point x="987.0" y="1008.0" type="curve" smooth="yes"/>
      <point x="987.0" y="1124.0"/>
      <point x="903.0" y="1192.0"/>
      <point x="743.0" y="1192.0" type="curve" smooth="yes"/>
      <point x="549.0" y="1192.0" type="line"/>
    </contour>
    <contour>
      <point x="615.0" y="888.0" type="line"/>
      <point x="615.0" y="1130.0" type="line"/>
      <point x="755.0" y="1130.0" type="line" smooth="yes"/>
      <point x="867.0" y="1130.0"/>
      <point x="921.0" y="1090.0"/>
      <point x="921.0" y="1008.0" type="curve" smooth="yes"/>
      <point x="921.0" y="926.0"/>
      <point x="869.0" y="888.0"/>
      <point x="755.0" y="888.0" type="curve" smooth="yes"/>
    </contour>
  </outline>
</glyph>
<glyph name="macron" format="2">
  <advance width="900.0"/>
  <unicode hex="00AF"/>
  <anchor x="450.0" y="1200.0" name="_top"/>
  <anchor x="450.0" y="1556.0" name="top"/>
  <outline>
    <contour>
      <point x="183.5" y="1394.0" type="line"/>
      <point x="716.5" y="1394.0" type="line"/>
      <point x="716.5" y="1452.5" type="line"/>
      <point x="183.5" y="1452.5" type="line"/>
    </contour>
  </outline>
</glyph>
<glyph name="degree" format="2">
  <advance width="948.0"/>
  <unicode hex="00B0"/>
  <outline>
    <contour>
      <point x="474.0" y="842.0" type="curve" smooth="yes"/>
      <point x="665.0" y="842.0"/>
      <point x="801.0" y="980.0"/>
      <point x="801.0" y="1169.0" type="curve" smooth="yes"/>
      <point x="801.0" y="1358.0"/>
      <point x="665.0" y="1496.0"/>
      <point x="474.0" y="1496.0" type="curve" smooth="yes"/>
      <point x="283.0" y="1496.0"/>
      <point x="147.0" y="1358.0"/>
      <point x="147.0" y="1169.0" type="curve" smooth="yes"/>
      <point x="147.0" y="980.0"/>
      <point x="283.0" y="842.0"/>
    </contour>
    <contour>
      <point x="474.0" y="906.0" type="curve" smooth="yes"/>
      <point x="322.5" y="906.0"/>
      <point x="214.5" y="1008.0"/>
      <point x="214.5" y="1169.0" type="curve" smooth="yes"/>
      <point x="214.5" y="1330.0"/>
      <point x="322.5" y="1432.0"/>
      <point x="474.0" y="1432.0" type="curve" smooth="yes"/>
      <point x="625.5" y="1432.0"/>
      <point x="733.5" y="1330.0"/>
      <point x="733.5" y="1169.0" type="curve" smooth="yes"/>
      <point x="733.5" y="1008.0"/>
      <point x="625.5" y="906.0"/>
    </contour>
  </outline>
</glyph>
<glyph name="plusminus" format="2">
  <advance width="1039.0"/>
  <unicode hex="00B1"/>
  <outline>
    <contour>
      <point x="485.5" y="316.0" type="line"/>
      <point x="553.5" y="316.0" type="line"/>
      <point x="553.5" y="666.0" type="line"/>
      <point x="883.5" y="666.0" type="line"/>
      <point x="883.5" y="730.0" type="line"/>
      <point x="553.5" y="730.0" type="line"/>
      <point x="553.5" y="1080.0" type="line"/>
      <point x="485.5" y="1080.0" type="line"/>
      <point x="485.5" y="730.0" type="line"/>
      <point x="155.5" y="730.0" type="line"/>
      <point x="155.5" y="666.0" type="line"/>
      <point x="485.5" y="666.0" type="line"/>
    </contour>
    <contour>
      <point x="155.5" y="0.0" type="line"/>
      <point x="883.5" y="0.0" type="line"/>
      <point x="883.5" y="64.0" type="line"/>
      <point x="155.5" y="64.0" type="line"/>
    </contour>
  </outline>
</glyph>
<glyph name="twosuperior" format="2">
  <advance width="714.5"/>
  <unicode hex="00B2"/>
  <outline>
    <contour>
      <point x="93.0" y="-136.0" type="line"/>
      <point x="612.5" y="-136.0" type="line"/>
      <point x="612.5" y="-74.0" type="line"/>
      <point x="154.5" y="-74.0" type="line"/>
      <point x="166.5" y="-94.5" type="line"/>
      <point x="425.0" y="272.5" type="line" smooth="yes"/>
      <point x="532.5" y="424.5"/>
      <point x="574.0" y="517.5"/>
      <point x="575.5" y="622.0" type="curve" smooth="yes"/>
      <point x="577.0" y="801.0"/>
      <point x="468.0" y="876.0"/>
      <point x="291.0" y="876.0" type="curve" smooth="yes"/>
      <point x="211.5" y="876.0"/>
      <point x="136.0" y="863.5"/>
      <point x="81.0" y="839.0" type="curve"/>
      <point x="81.0" y="775.0" type="line"/>
      <point x="144.5" y="801.5"/>
      <point x="209.5" y="814.0"/>
      <point x="287.5" y="814.0" type="curve" smooth="yes"/>
      <point x="430.0" y="814.0"/>
      <point x="509.5" y="760.0"/>
      <point x="509.5" y="619.0" type="curve" smooth="yes"/>
      <point x="509.5" y="528.0"/>
      <point x="469.0" y="442.0"/>
      <point x="374.0" y="307.5" type="curve" smooth="yes"/>
      <point x="93.0" y="-96.5" type="line"/>
    </contour>
  </outline>
</glyph>
<glyph name="threesuperior" format="2">
  <advance width="714.5"/>
  <unicode hex="00B3"/>
  <outline>
    <contour>
      <point x="300.0" y="-148.0" type="curve" smooth="yes"/>
      <point x="510.5" y="-148.0"/>
      <point x="631.5" y="-49.0"/>
      <point x="631.5" y="127.5" type="curve" smooth="yes"/>
      <point x="631.5" y="275.0"/>
      <point x="540.0" y="370.0"/>
      <point x="370.0" y="392.5" type="curve"/>
      <point x="370.0" y="377.0" type="line"/>
      <point x="513.0" y="407.0"/>
      <point x="598.5" y="499.0"/>
      <point x="598.5" y="629.0" type="curve" smooth="yes"/>
      <point x="598.5" y="788.0"/>
      <point x="494.5" y="876.0"/>
      <point x="305.0" y="876.0" type="curve" smooth="yes"/>
      <point x="231.0" y="876.0"/>
      <point x="151.0" y="864.0"/>
      <point x="95.5" y="840.0" type="curve"/>
      <point x="95.5" y="776.0" type="line"/>
      <point x="162.5" y="803.0"/>
      <point x="229.5" y="814.5"/>
      <point x="302.5" y="814.5" type="curve" smooth="yes"/>
      <point x="454.5" y="814.5"/>
      <point x="534.5" y="751.5"/>
      <point x="534.5" y="626.5" type="curve" smooth="yes"/>
      <point x="534.5" y="491.0"/>
      <point x="431.0" y="409.5"/>
      <point x="238.0" y="409.5" type="curve" smooth="yes"/>
      <point x="197.0" y="409.5" type="line"/>
      <point x="197.0" y="346.5" type="line"/>
      <point x="292.5" y="346.5" type="line" smooth="yes"/>
      <point x="481.0" y="346.5"/>
      <point x="567.5" y="263.5"/>
      <point x="567.5" y="130.0" type="curve" smooth="yes"/>
      <point x="567.5" y="-13.0"/>
      <point x="470.0" y="-86.5"/>
      <point x="299.0" y="-86.5" type="curve" smooth="yes"/>
      <point x="226.5" y="-86.5"/>
      <point x="147.0" y="-74.0"/>
      <point x="73.0" y="-46.5" type="curve"/>
      <point x="73.0" y="-110.5" type="line"/>
      <point x="142.0" y="-135.5"/>
      <point x="219.5" y="-148.0"/>
    </contour>
  </outline>
</glyph>
<glyph name="micro" format="2">
  <advance width="998.5"/>
  <unicode hex="00B5"/>
  <outline>
    <contour>
      <point x="450.0" y="-18.0" type="curve" smooth="yes"/>
      <point x="566.0" y="-18.0"/>
      <point x="681.5" y="27.5"/>
      <point x="767.5" y="122.0" type="curve"/>
      <point x="775.5" y="122.0" type="line"/>
      <point x="781.5" y="0.0" type="line"/>
      <point x="841.5" y="0.0" type="line"/>
      <point x="841.5" y="1080.0" type="line"/>
      <point x="773.5" y="1080.0" type="line"/>
      <point x="773.5" y="225.5" type="line"/>
      <point x="691.0" y="94.5"/>
      <point x="553.0" y="48.0"/>
      <point x="452.0" y="48.0" type="curve" smooth="yes"/>
      <point x="311.0" y="48.0"/>
      <point x="213.0" y="115.5"/>
      <point x="213.0" y="321.0" type="curve" smooth="yes"/>
      <point x="213.0" y="465.0" type="line"/>
      <point x="165.0" y="465.0" type="line"/>
      <point x="165.0" y="323.5" type="line" smooth="yes"/>
      <point x="165.0" y="66.0"/>
      <point x="275.0" y="-18.0"/>
    </contour>
    <contour>
      <point x="145.0" y="-440.0" type="line"/>
      <point x="213.0" y="-440.0" type="line"/>
      <point x="213.0" y="1080.0" type="line"/>
      <point x="145.0" y="1080.0" type="line"/>
    </contour>
  </outline>
</glyph>
<glyph name="paragraph" format="2">
  <advance width="1119.0"/>
  <unicode hex="00B6"/>
  <outline>
    <contour>
      <point x="676.0" y="0.0" type="line"/>
      <point x="744.0" y="0.0" type="line"/>
      <point x="744.0" y="1480.0" type="line"/>
      <point x="671.5" y="1488.0"/>
      <point x="590.0" y="1494.0"/>
      <point x="503.0" y="1494.0" type="curve" smooth="yes"/>
      <point x="236.0" y="1494.0"/>
      <point x="95.5" y="1341.5"/>
      <point x="95.5" y="1005.5" type="curve" smooth="yes"/>
      <point x="95.5" y="688.5"/>
      <point x="231.0" y="518.0"/>
      <point x="538.0" y="518.0" type="curve" smooth="yes"/>
      <point x="588.5" y="518.0"/>
      <point x="628.0" y="520.5"/>
      <point x="676.0" y="526.0" type="curve"/>
    </contour>
    <contour>
      <point x="874.0" y="0.0" type="line"/>
      <point x="942.0" y="0.0" type="line"/>
      <point x="942.0" y="1480.0" type="line"/>
      <point x="874.0" y="1480.0" type="line"/>
    </contour>
  </outline>
</glyph>
<glyph name="periodcentered" format="2">
  <advance width="383.0"/>
  <unicode hex="00B7"/>
  <anchor x="191.5" y="560.0" name="_periodcentered"/>
  <outline>
    <contour>
      <point x="191.5" y="496.0" type="curve" smooth="yes"/>
      <point x="227.5" y="496.0"/>
      <point x="253.5" y="520.0"/>
      <point x="253.5" y="558.0" type="curve" smooth="yes"/>
      <point x="253.5" y="596.0"/>
      <point x="227.5" y="622.0"/>
      <point x="191.5" y="622.0" type="curve" smooth="yes"/>
      <point x="155.5" y="622.0"/>
      <point x="129.5" y="596.0"/>
      <point x="129.5" y="558.0" type="curve" smooth="yes"/>
      <point x="129.5" y="520.0"/>
      <point x="155.5" y="496.0"/>
    </contour>
  </outline>
</glyph>
<glyph name="onesuperior" format="2">
  <advance width="714.5"/>
  <unicode hex="00B9"/>
  <outline>
    <contour>
      <point x="366.5" y="-116.0" type="line"/>
      <point x="430.5" y="-116.0" type="line"/>
      <point x="430.5" y="868.0" type="line"/>
      <point x="391.0" y="868.0" type="line"/>
      <point x="136.0" y="675.5" type="line"/>
      <point x="136.0" y="604.5" type="line"/>
      <point x="391.0" y="797.0" type="line"/>
      <point x="366.5" y="806.5" type="line"/>
    </contour>
    <contour>
      <point x="143.5" y="-136.0" type="line"/>
      <point x="642.5" y="-136.0" type="line"/>
      <point x="642.5" y="-74.0" type="line"/>
      <point x="143.5" y="-74.0" type="line"/>
    </contour>
  </outline>
</glyph>
<glyph name="ordmasculine" format="2">
  <advance width="834.0"/>
  <unicode hex="00BA"/>
  <outline>
    <contour>
      <point x="417.0" y="596.0" type="curve" smooth="yes"/>
      <point x="617.5" y="596.0"/>
      <point x="754.0" y="724.0"/>
      <point x="754.0" y="1046.0" type="curve" smooth="yes"/>
      <point x="754.0" y="1368.0"/>
      <point x="617.5" y="1492.0"/>
      <point x="417.0" y="1492.0" type="curve" smooth="yes"/>
      <point x="216.5" y="1492.0"/>
      <point x="80.0" y="1368.0"/>
      <point x="80.0" y="1046.0" type="curve" smooth="yes"/>
      <point x="80.0" y="724.0"/>
      <point x="216.5" y="596.0"/>
    </contour>
    <contour>
      <point x="417.0" y="658.5" type="curve" smooth="yes"/>
      <point x="253.5" y="658.5"/>
      <point x="148.0" y="752.0"/>
      <point x="148.0" y="1046.0" type="curve" smooth="yes"/>
      <point x="148.0" y="1340.0"/>
      <point x="253.5" y="1429.5"/>
      <point x="417.0" y="1429.5" type="curve" smooth="yes"/>
      <point x="580.5" y="1429.5"/>
      <point x="686.0" y="1340.0"/>
      <point x="686.0" y="1046.0" type="curve" smooth="yes"/>
      <point x="686.0" y="752.0"/>
      <point x="580.5" y="658.5"/>
    </contour>
  </outline>
</glyph>
<glyph name="guillemetright" format="2">
  <advance width="793.5"/>
  <unicode hex="00BB"/>
  <outline>
    <contour>
      <point x="79.0" y="140.0" type="line"/>
      <point x="150.0" y="140.0" type="line"/>
      <point x="372.0" y="560.0" type="line"/>
      <point x="150.0" y="980.0" type="line"/>
      <point x="79.0" y="980.0" type="line"/>
      <point x="301.0" y="560.0" type="line"/>
    </contour>
    <contour>
      <point x="381.5" y="140.0" type="line"/>
      <point x="452.5" y="140.0" type="line"/>
      <point x="674.5" y="560.0" type="line"/>
      <point x="452.5" y="980.0" type="line"/>
      <point x="381.5" y="980.0" type="line"/>
      <point x="603.5" y="560.0" type="line"/>
    </contour>
  </outline>
</glyph>
<glyph name="onequarter" format="2">
  <advance width="1632.5"/>
  <unicode hex="00BC"/>
  <outline>
    <contour>
      <point x="366.5" y="636.0" type="line"/>
      <point x="430.5" y="636.0" type="line"/>
      <point x="430.5" y="1620.0" type="line"/>
      <point x="391.0" y="1620.0" type="line"/>
      <point x="136.0" y="1427.5" type="line"/>
      <point x="136.0" y="1356.5" type="line"/>
      <point x="391.0" y="1549.0" type="line"/>
      <point x="366.5" y="1558.5" type="line"/>
    </contour>
    <contour>
      <point x="143.5" y="616.0" type="line"/>
      <point x="642.5" y="616.0" type="line"/>
      <point x="642.5" y="678.0" type="line"/>
      <point x="143.5" y="678.0" type="line"/>
    </contour>
    <contour>
      <point x="407.0" y="-136.0" type="line"/>
      <point x="473.0" y="-136.0" type="line"/>
      <point x="1225.5" y="1616.0" type="line"/>
      <point x="1159.5" y="1616.0" type="line"/>
    </contour>
    <contour>
      <point x="951.5" y="116.0" type="line"/>
      <point x="1604.0" y="116.0" type="line"/>
      <point x="1604.0" y="176.0" type="line"/>
      <point x="1005.5" y="176.0" type="line"/>
      <point x="1019.5" y="155.5" type="line"/>
      <point x="1385.5" y="864.0" type="line"/>
      <point x="1317.5" y="864.0" type="line"/>
      <point x="951.5" y="156.0" type="line"/>
    </contour>
    <contour>
      <point x="1403.0" y="-136.0" type="line"/>
      <point x="1465.0" y="-136.0" type="line"/>
      <point x="1465.0" y="526.0" type="line"/>
      <point x="1415.0" y="526.0" type="line"/>
      <point x="1403.0" y="176.0" type="line"/>
    </contour>
  </outline>
</glyph>
<glyph name="onehalf" format="2">
  <advance width="1632.5"/>
  <unicode hex="00BD"/>
  <outline>
    <contour>
      <point x="366.5" y="636.0" type="line"/>
      <point x="430.5" y="636.0" type="line"/>
      <point x="430.5" y="1620.0" type="line"/>
      <point x="391.0" y="1620.0" type="line"/>
      <point x="136.0" y="1427.5" type="line"/>
      <point x="136.0" y="1356.5" type="line"/>
      <point x="391.0" y="1549.0" type="line"/>
      <point x="366.5" y="1558.5" type="line"/>
    </contour>
    <contour>
      <point x="143.5" y="616.0" type="line"/>
      <point x="642.5" y="616.0" type="line"/>
      <point x="642.5" y="678.0" type="line"/>
      <point x="143.5" y="678.0" type="line"/>
    </contour>
    <contour>
      <point x="407.0" y="-136.0" type="line"/>
      <point x="473.0" y="-136.0" type="line"/>
      <point x="1225.5" y="1616.0" type="line"/>
      <point x="1159.5" y="1616.0" type="line"/>
    </contour>
    <contour>
      <point x="1011.0" y="-136.0" type="line"/>
      <point x="1530.5" y="-136.0" type="line"/>
      <point x="1530.5" y="-74.0" type="line"/>
      <point x="1072.5" y="-74.0" type="line"/>
      <point x="1084.5" y="-94.5" type="line"/>
      <point x="1343.0" y="272.5" type="line" smooth="yes"/>
      <point x="1450.5" y="424.5"/>
      <point x="1492.0" y="517.5"/>
      <point x="1493.5" y="622.0" type="curve" smooth="yes"/>
      <point x="1495.0" y="801.0"/>
      <point x="1386.0" y="876.0"/>
      <point x="1209.0" y="876.0" type="curve" smooth="yes"/>
      <point x="1129.5" y="876.0"/>
      <point x="1054.0" y="863.5"/>
      <point x="999.0" y="839.0" type="curve"/>
      <point x="999.0" y="775.0" type="line"/>
      <point x="1062.5" y="801.5"/>
      <point x="1127.5" y="814.0"/>
      <point x="1205.5" y="814.0" type="curve" smooth="yes"/>
      <point x="1348.0" y="814.0"/>
      <point x="1427.5" y="760.0"/>
      <point x="1427.5" y="619.0" type="curve" smooth="yes"/>
      <point x="1427.5" y="528.0"/>
      <point x="1387.0" y="442.0"/>
      <point x="1292.0" y="307.5" type="curve" smooth="yes"/>
      <point x="1011.0" y="-96.5" type="line"/>
    </contour>
  </outline>
</glyph>
<glyph name="questiondown" format="2">
  <advance width="806.5"/>
  <unicode hex="00BF"/>
  <outline>
    <contour>
      <point x="473.5" y="780.0" type="line"/>
      <point x="425.5" y="780.0" type="line"/>
      <point x="415.5" y="390.5" type="line"/>
      <point x="148.0" y="273.0"/>
      <point x="62.0" y="148.5"/>
      <point x="62.0" y="-48.5" type="curve" smooth="yes"/>
      <point x="62.0" y="-269.5"/>
      <point x="206.5" y="-400.0"/>
      <point x="470.0" y="-400.0" type="curve" smooth="yes"/>
      <point x="574.5" y="-400.0"/>
      <point x="684.5" y="-380.5"/>
      <point x="764.5" y="-346.0" type="curve"/>
      <point x="764.5" y="-278.0" type="line"/>
      <point x="668.5" y="-316.5"/>
      <point x="575.0" y="-334.0"/>
      <point x="470.5" y="-334.0" type="curve" smooth="yes"/>
      <point x="248.5" y="-334.0"/>
      <point x="132.0" y="-234.0"/>
      <point x="132.0" y="-49.5" type="curve" smooth="yes"/>
      <point x="132.0" y="130.0"/>
      <point x="221.5" y="245.5"/>
      <point x="485.5" y="347.0" type="curve"/>
    </contour>
    <contour>
      <point x="449.5" y="1090.0" type="curve" smooth="yes"/>
      <point x="411.5" y="1090.0"/>
      <point x="387.5" y="1064.0"/>
      <point x="387.5" y="1028.0" type="curve" smooth="yes"/>
      <point x="387.5" y="990.0"/>
      <point x="413.5" y="964.0"/>
      <point x="449.5" y="964.0" type="curve" smooth="yes"/>
      <point x="485.5" y="964.0"/>
      <point x="511.5" y="990.0"/>
      <point x="511.5" y="1028.0" type="curve" smooth="yes"/>
      <point x="511.5" y="1064.0"/>
      <point x="485.5" y="1090.0"/>
    </contour>
  </outline>
</glyph>
<glyph name="Agrave" format="2">
  <advance width="1208.0"/>
  <unicode hex="00C0"/>
  <anchor x="605.0" y="1520.0" name="_top"/>
  <anchor x="605.0" y="0.0" name="bottom"/>
  <anchor x="1176.5" y="0.0" name="ogonek"/>
  <anchor x="605.0" y="1520.0" name="top"/>
  <outline>
    <contour>
      <point x="31.5" y="0.0" type="line"/>
      <point x="104.0" y="0.0" type="line"/>
      <point x="615.0" y="1440.0" type="line"/>
      <point x="591.0" y="1440.0" type="line"/>
      <point x="1102.0" y="0.0" type="line"/>
      <point x="1176.5" y="0.0" type="line"/>
      <point x="647.0" y="1480.0" type="line"/>
      <point x="561.0" y="1480.0" type="line"/>
    </contour>
    <contour>
      <point x="265.0" y="528.0" type="line"/>
      <point x="943.0" y="528.0" type="line"/>
      <point x="923.0" y="594.0" type="line"/>
      <point x="285.0" y="594.0" type="line"/>
    </contour>
    <contour>
      <point x="575.0" y="1616.0" type="line"/>
      <point x="635.0" y="1616.0" type="line"/>
      <point x="483.5" y="1888.0" type="line"/>
      <point x="408.0" y="1888.0" type="line"/>
    </contour>
  </outline>
</glyph>
<glyph name="Acircumflex" format="2">
  <advance width="1208.0"/>
  <unicode hex="00C2"/>
  <anchor x="605.0" y="1520.0" name="_top"/>
  <anchor x="605.0" y="0.0" name="bottom"/>
  <anchor x="1176.5" y="0.0" name="ogonek"/>
  <anchor x="605.0" y="1520.0" name="top"/>
  <outline>
    <contour>
      <point x="31.5" y="0.0" type="line"/>
      <point x="104.0" y="0.0" type="line"/>
      <point x="615.0" y="1440.0" type="line"/>
      <point x="591.0" y="1440.0" type="line"/>
      <point x="1102.0" y="0.0" type="line"/>
      <point x="1176.5" y="0.0" type="line"/>
      <point x="647.0" y="1480.0" type="line"/>
      <point x="561.0" y="1480.0" type="line"/>
    </contour>
    <contour>
      <point x="265.0" y="528.0" type="line"/>
      <point x="943.0" y="528.0" type="line"/>
      <point x="923.0" y="594.0" type="line"/>
      <point x="285.0" y="594.0" type="line"/>
    </contour>
    <contour>
      <point x="349.0" y="1616.0" type="line"/>
      <point x="424.5" y="1616.0" type="line"/>
      <point x="615.5" y="1858.5" type="line"/>
      <point x="594.5" y="1858.5" type="line"/>
      <point x="785.5" y="1616.0" type="line"/>
      <point x="861.0" y="1616.0" type="line"/>
      <point x="643.0" y="1888.0" type="line"/>
      <point x="567.0" y="1888.0" type="line"/>
    </contour>
  </outline>
</glyph>
<glyph name="Atilde" format="2">
  <advance width="1208.0"/>
  <unicode hex="00C3"/>
  <anchor x="605.0" y="1520.0" name="_top"/>
  <anchor x="605.0" y="0.0" name="bottom"/>
  <anchor x="1176.5" y="0.0" name="ogonek"/>
  <anchor x="605.0" y="1520.0" name="top"/>
  <outline>
    <contour>
      <point x="31.5" y="0.0" type="line"/>
      <point x="104.0" y="0.0" type="line"/>
      <point x="615.0" y="1440.0" type="line"/>
      <point x="591.0" y="1440.0" type="line"/>
      <point x="1102.0" y="0.0" type="line"/>
      <point x="1176.5" y="0.0" type="line"/>
      <point x="647.0" y="1480.0" type="line"/>
      <point x="561.0" y="1480.0" type="line"/>
    </contour>
    <contour>
      <point x="265.0" y="528.0" type="line"/>
      <point x="943.0" y="528.0" type="line"/>
      <point x="923.0" y="594.0" type="line"/>
      <point x="285.0" y="594.0" type="line"/>
    </contour>
    <contour>
      <point x="741.0" y="1696.5" type="curve" smooth="yes"/>
      <point x="804.5" y="1696.5"/>
      <point x="853.0" y="1719.5"/>
      <point x="885.5" y="1758.0" type="curve"/>
      <point x="885.5" y="1824.5" type="line"/>
      <point x="845.0" y="1776.5"/>
      <point x="802.0" y="1753.0"/>
      <point x="741.0" y="1753.0" type="curve" smooth="yes"/>
      <point x="654.0" y="1753.0"/>
      <point x="575.0" y="1830.0"/>
      <point x="469.0" y="1830.0" type="curve" smooth="yes"/>
      <point x="405.5" y="1830.0"/>
      <point x="357.0" y="1807.0"/>
      <point x="324.5" y="1768.5" type="curve"/>
      <point x="324.5" y="1702.0" type="line"/>
      <point x="365.0" y="1750.0"/>
      <point x="408.0" y="1773.5"/>
      <point x="469.0" y="1773.5" type="curve" smooth="yes"/>
      <point x="556.0" y="1773.5"/>
      <point x="635.0" y="1696.5"/>
    </contour>
  </outline>
</glyph>
<glyph name="Adieresis" format="2">
  <advance width="1208.0"/>
  <unicode hex="00C4"/>
  <anchor x="605.0" y="1520.0" name="_top"/>
  <anchor x="605.0" y="0.0" name="bottom"/>
  <anchor x="1176.5" y="0.0" name="ogonek"/>
  <anchor x="605.0" y="1520.0" name="top"/>
  <outline>
    <contour>
      <point x="31.5" y="0.0" type="line"/>
      <point x="104.0" y="0.0" type="line"/>
      <point x="615.0" y="1440.0" type="line"/>
      <point x="591.0" y="1440.0" type="line"/>
      <point x="1102.0" y="0.0" type="line"/>
      <point x="1176.5" y="0.0" type="line"/>
      <point x="647.0" y="1480.0" type="line"/>
      <point x="561.0" y="1480.0" type="line"/>
    </contour>
    <contour>
      <point x="265.0" y="528.0" type="line"/>
      <point x="943.0" y="528.0" type="line"/>
      <point x="923.0" y="594.0" type="line"/>
      <point x="285.0" y="594.0" type="line"/>
    </contour>
    <contour>
      <point x="805.0" y="1690.0" type="curve" smooth="yes"/>
      <point x="841.0" y="1690.0"/>
      <point x="867.0" y="1714.0"/>
      <point x="867.0" y="1752.0" type="curve" smooth="yes"/>
      <point x="867.0" y="1790.0"/>
      <point x="841.0" y="1816.0"/>
      <point x="805.0" y="1816.0" type="curve" smooth="yes"/>
      <point x="769.0" y="1816.0"/>
      <point x="743.0" y="1790.0"/>
      <point x="743.0" y="1752.0" type="curve" smooth="yes"/>
      <point x="743.0" y="1714.0"/>
      <point x="769.0" y="1690.0"/>
    </contour>
    <contour>
      <point x="405.0" y="1690.0" type="curve" smooth="yes"/>
      <point x="441.0" y="1690.0"/>
      <point x="467.0" y="1714.0"/>
      <point x="467.0" y="1752.0" type="curve" smooth="yes"/>
      <point x="467.0" y="1790.0"/>
      <point x="441.0" y="1816.0"/>
      <point x="405.0" y="1816.0" type="curve" smooth="yes"/>
      <point x="369.0" y="1816.0"/>
      <point x="343.0" y="1790.0"/>
      <point x="343.0" y="1752.0" type="curve" smooth="yes"/>
      <point x="343.0" y="1714.0"/>
      <point x="369.0" y="1690.0"/>
    </contour>
  </outline>
</glyph>
<glyph name="Aring" format="2">
  <advance width="1208.0"/>
  <unicode hex="00C5"/>
  <anchor x="608.5" y="1340.0" name="_top"/>
  <anchor x="605.0" y="0.0" name="bottom"/>
  <anchor x="1176.5" y="0.0" name="ogonek"/>
  <anchor x="605.0" y="1520.0" name="top"/>
  <outline>
    <contour>
      <point x="31.5" y="0.0" type="line"/>
      <point x="104.0" y="0.0" type="line"/>
      <point x="615.0" y="1440.0" type="line"/>
      <point x="591.0" y="1440.0" type="line"/>
      <point x="1102.0" y="0.0" type="line"/>
      <point x="1176.5" y="0.0" type="line"/>
      <point x="647.0" y="1480.0" type="line"/>
      <point x="561.0" y="1480.0" type="line"/>
    </contour>
    <contour>
      <point x="265.0" y="528.0" type="line"/>
      <point x="943.0" y="528.0" type="line"/>
      <point x="923.0" y="594.0" type="line"/>
      <point x="285.0" y="594.0" type="line"/>
    </contour>
    <contour>
      <point x="608.5" y="1430.5" type="curve" smooth="yes"/>
      <point x="714.5" y="1430.5"/>
      <point x="792.5" y="1508.5"/>
      <point x="792.5" y="1614.5" type="curve" smooth="yes"/>
      <point x="792.5" y="1720.5"/>
      <point x="714.5" y="1798.5"/>
      <point x="608.5" y="1798.5" type="curve" smooth="yes"/>
      <point x="502.5" y="1798.5"/>
      <point x="424.5" y="1720.5"/>
      <point x="424.5" y="1614.5" type="curve" smooth="yes"/>
      <point x="424.5" y="1508.5"/>
      <point x="502.5" y="1430.5"/>
    </contour>
    <contour>
      <point x="608.5" y="1482.5" type="curve" smooth="yes"/>
      <point x="532.5" y="1482.5"/>
      <point x="478.5" y="1532.5"/>
      <point x="478.5" y="1614.5" type="curve" smooth="yes"/>
      <point x="478.5" y="1696.5"/>
      <point x="532.5" y="1746.5"/>
      <point x="608.5" y="1746.5" type="curve" smooth="yes"/>
      <point x="684.5" y="1746.5"/>
      <point x="738.5" y="1696.5"/>
      <point x="738.5" y="1614.5" type="curve" smooth="yes"/>
      <point x="738.5" y="1532.5"/>
      <point x="684.5" y="1482.5"/>
    </contour>
  </outline>
</glyph>
<glyph name="Egrave" format="2">
  <advance width="1030.5"/>
  <unicode hex="00C8"/>
  <anchor x="595.0" y="1520.0" name="_top"/>
  <anchor x="596.0" y="0.0" name="bottom"/>
  <anchor x="898.0" y="0.0" name="ogonek"/>
  <anchor x="595.0" y="1520.0" name="top"/>
  <anchor x="38.5" y="1480.0" name="topleft"/>
  <outline>
    <contour>
      <point x="177.0" y="0.0" type="line"/>
      <point x="978.0" y="0.0" type="line"/>
      <point x="978.0" y="66.0" type="line"/>
      <point x="245.0" y="66.0" type="line"/>
      <point x="245.0" y="1414.0" type="line"/>
      <point x="968.0" y="1414.0" type="line"/>
      <point x="968.0" y="1480.0" type="line"/>
      <point x="177.0" y="1480.0" type="line"/>
    </contour>
    <contour>
      <point x="232.0" y="728.0" type="line"/>
      <point x="875.5" y="728.0" type="line"/>
      <point x="875.5" y="794.0" type="line"/>
      <point x="232.0" y="794.0" type="line"/>
    </contour>
    <contour>
      <point x="565.0" y="1616.0" type="line"/>
      <point x="625.0" y="1616.0" type="line"/>
      <point x="473.5" y="1888.0" type="line"/>
      <point x="398.0" y="1888.0" type="line"/>
    </contour>
  </outline>
</glyph>
<glyph name="Igrave" format="2">
  <advance width="422.0"/>
  <unicode hex="00CC"/>
  <anchor x="211.0" y="1520.0" name="_top"/>
  <anchor x="211.0" y="0.0" name="bottom"/>
  <anchor x="245.0" y="0.0" name="ogonek"/>
  <anchor x="211.0" y="1520.0" name="top"/>
  <outline>
    <contour>
      <point x="177.0" y="0.0" type="line"/>
      <point x="245.0" y="0.0" type="line"/>
      <point x="245.0" y="1480.0" type="line"/>
      <point x="177.0" y="1480.0" type="line"/>
    </contour>
    <contour>
      <point x="181.0" y="1616.0" type="line"/>
      <point x="241.0" y="1616.0" type="line"/>
      <point x="89.5" y="1888.0" type="line"/>
      <point x="14.0" y="1888.0" type="line"/>
    </contour>
  </outline>
</glyph>
<glyph name="Icircumflex" format="2">
  <advance width="422.0"/>
  <unicode hex="00CE"/>
  <anchor x="211.0" y="1520.0" name="_top"/>
  <anchor x="211.0" y="0.0" name="bottom"/>
  <anchor x="245.0" y="0.0" name="ogonek"/>
  <anchor x="211.0" y="1520.0" name="top"/>
  <outline>
    <contour>
      <point x="177.0" y="0.0" type="line"/>
      <point x="245.0" y="0.0" type="line"/>
      <point x="245.0" y="1480.0" type="line"/>
      <point x="177.0" y="1480.0" type="line"/>
    </contour>
    <contour>
      <point x="-45.0" y="1616.0" type="line"/>
      <point x="30.5" y="1616.0" type="line"/>
      <point x="221.5" y="1858.5" type="line"/>
      <point x="200.5" y="1858.5" type="line"/>
      <point x="391.5" y="1616.0" type="line"/>
      <point x="467.0" y="1616.0" type="line"/>
      <point x="249.0" y="1888.0" type="line"/>
      <point x="173.0" y="1888.0" type="line"/>
    </contour>
  </outline>
</glyph>
<glyph name="Idieresis" format="2">
  <advance width="422.0"/>
  <unicode hex="00CF"/>
  <anchor x="211.0" y="1520.0" name="_top"/>
  <anchor x="211.0" y="0.0" name="bottom"/>
  <anchor x="245.0" y="0.0" name="ogonek"/>
  <anchor x="211.0" y="1520.0" name="top"/>
  <outline>
    <contour>
      <point x="177.0" y="0.0" type="line"/>
      <point x="245.0" y="0.0" type="line"/>
      <point x="245.0" y="1480.0" type="line"/>
      <point x="177.0" y="1480.0" type="line"/>
    </contour>
    <contour>
      <point x="411.0" y="1690.0" type="curve" smooth="yes"/>
      <point x="447.0" y="1690.0"/>
      <point x="473.0" y="1714.0"/>
      <point x="473.0" y="1752.0" type="curve" smooth="yes"/>
      <point x="473.0" y="1790.0"/>
      <point x="447.0" y="1816.0"/>
      <point x="411.0" y="1816.0" type="curve" smooth="yes"/>
      <point x="375.0" y="1816.0"/>
      <point x="349.0" y="1790.0"/>
      <point x="349.0" y="1752.0" type="curve" smooth="yes"/>
      <point x="349.0" y="1714.0"/>
      <point x="375.0" y="1690.0"/>
    </contour>
    <contour>
      <point x="11.0" y="1690.0" type="curve" smooth="yes"/>
      <point x="47.0" y="1690.0"/>
      <point x="73.0" y="1714.0"/>
      <point x="73.0" y="1752.0" type="curve" smooth="yes"/>
      <point x="73.0" y="1790.0"/>
      <point x="47.0" y="1816.0"/>
      <point x="11.0" y="1816.0" type="curve" smooth="yes"/>
      <point x="-25.0" y="1816.0"/>
      <point x="-51.0" y="1790.0"/>
      <point x="-51.0" y="1752.0" type="curve" smooth="yes"/>
      <point x="-51.0" y="1714.0"/>
      <point x="-25.0" y="1690.0"/>
    </contour>
  </outline>
</glyph>
<glyph name="Ntilde" format="2">
  <advance width="1337.5"/>
  <unicode hex="00D1"/>
  <anchor x="669.0" y="1520.0" name="_top"/>
  <anchor x="669.0" y="0.0" name="bottom"/>
  <anchor x="669.0" y="1520.0" name="top"/>
  <outline>
    <contour>
      <point x="177.0" y="0.0" type="line"/>
      <point x="243.0" y="0.0" type="line"/>
      <point x="243.0" y="1420.0" type="line"/>
      <point x="211.5" y="1420.0" type="line"/>
      <point x="1085.0" y="0.0" type="line"/>
      <point x="1160.5" y="0.0" type="line"/>
      <point x="1160.5" y="1480.0" type="line"/>
      <point x="1094.5" y="1480.0" type="line"/>
      <point x="1094.5" y="60.0" type="line"/>
      <point x="1126.0" y="60.0" type="line"/>
      <point x="252.5" y="1480.0" type="line"/>
      <point x="177.0" y="1480.0" type="line"/>
    </contour>
    <contour>
      <point x="805.0" y="1696.5" type="curve" smooth="yes"/>
      <point x="868.5" y="1696.5"/>
      <point x="917.0" y="1719.5"/>
      <point x="949.5" y="1758.0" type="curve"/>
      <point x="949.5" y="1824.5" type="line"/>
      <point x="909.0" y="1776.5"/>
      <point x="866.0" y="1753.0"/>
      <point x="805.0" y="1753.0" type="curve" smooth="yes"/>
      <point x="718.0" y="1753.0"/>
      <point x="639.0" y="1830.0"/>
      <point x="533.0" y="1830.0" type="curve" smooth="yes"/>
      <point x="469.5" y="1830.0"/>
      <point x="421.0" y="1807.0"/>
      <point x="388.5" y="1768.5" type="curve"/>
      <point x="388.5" y="1702.0" type="line"/>
      <point x="429.0" y="1750.0"/>
      <point x="472.0" y="1773.5"/>
      <point x="533.0" y="1773.5" type="curve" smooth="yes"/>
      <point x="620.0" y="1773.5"/>
      <point x="699.0" y="1696.5"/>
    </contour>
  </outline>
</glyph>
<glyph name="Otilde" format="2">
  <advance width="1266.0"/>
  <unicode hex="00D5"/>
  <anchor x="633.0" y="1520.0" name="_top"/>
  <anchor x="633.0" y="0.0" name="bottom"/>
  <anchor x="633.0" y="740.0" name="center"/>
  <anchor x="783.0" y="0.0" name="ogonek"/>
  <anchor x="633.0" y="1520.0" name="top"/>
  <anchor x="41.0" y="1480.0" name="topleft"/>
  <anchor x="782.5" y="1480.0" name="topright"/>
  <outline>
    <contour>
      <point x="633.0" y="-18.0" type="curve" smooth="yes"/>
      <point x="949.0" y="-18.0"/>
      <point x="1158.0" y="188.5"/>
      <point x="1158.0" y="740.0" type="curve" smooth="yes"/>
      <point x="1158.0" y="1291.5"/>
      <point x="950.5" y="1498.0"/>
      <point x="633.0" y="1498.0" type="curve" smooth="yes"/>
      <point x="317.0" y="1498.0"/>
      <point x="108.0" y="1291.5"/>
      <point x="108.0" y="740.0" type="curve" smooth="yes"/>
      <point x="108.0" y="188.5"/>
      <point x="315.5" y="-18.0"/>
    </contour>
    <contour>
      <point x="633.0" y="48.5" type="curve" smooth="yes"/>
      <point x="362.0" y="48.5"/>
      <point x="180.0" y="215.0"/>
      <point x="180.0" y="744.0" type="curve" smooth="yes"/>
      <point x="180.0" y="1265.0"/>
      <point x="362.0" y="1431.5"/>
      <point x="633.0" y="1431.5" type="curve" smooth="yes"/>
      <point x="904.0" y="1431.5"/>
      <point x="1086.0" y="1265.0"/>
      <point x="1086.0" y="736.0" type="curve" smooth="yes"/>
      <point x="1086.0" y="215.0"/>
      <point x="904.0" y="48.5"/>
    </contour>
    <contour>
      <point x="769.0" y="1696.5" type="curve" smooth="yes"/>
      <point x="832.5" y="1696.5"/>
      <point x="881.0" y="1719.5"/>
      <point x="913.5" y="1758.0" type="curve"/>
      <point x="913.5" y="1824.5" type="line"/>
      <point x="873.0" y="1776.5"/>
      <point x="830.0" y="1753.0"/>
      <point x="769.0" y="1753.0" type="curve" smooth="yes"/>
      <point x="682.0" y="1753.0"/>
      <point x="603.0" y="1830.0"/>
      <point x="497.0" y="1830.0" type="curve" smooth="yes"/>
      <point x="433.5" y="1830.0"/>
      <point x="385.0" y="1807.0"/>
      <point x="352.5" y="1768.5" type="curve"/>
      <point x="352.5" y="1702.0" type="line"/>
      <point x="393.0" y="1750.0"/>
      <point x="436.0" y="1773.5"/>
      <point x="497.0" y="1773.5" type="curve" smooth="yes"/>
      <point x="584.0" y="1773.5"/>
      <point x="663.0" y="1696.5"/>
    </contour>
  </outline>
</glyph>
<glyph name="Odieresis" format="2">
  <advance width="1266.0"/>
  <unicode hex="00D6"/>
  <anchor x="633.0" y="1520.0" name="_top"/>
  <anchor x="633.0" y="0.0" name="bottom"/>
  <anchor x="633.0" y="740.0" name="center"/>
  <anchor x="783.0" y="0.0" name="ogonek"/>
  <anchor x="633.0" y="1520.0" name="top"/>
  <anchor x="41.0" y="1480.0" name="topleft"/>
  <anchor x="782.5" y="1480.0" name="topright"/>
  <outline>
    <contour>
      <point x="633.0" y="-18.0" type="curve" smooth="yes"/>
      <point x="949.0" y="-18.0"/>
      <point x="1158.0" y="188.5"/>
      <point x="1158.0" y="740.0" type="curve" smooth="yes"/>
      <point x="1158.0" y="1291.5"/>
      <point x="950.5" y="1498.0"/>
      <point x="633.0" y="1498.0" type="curve" smooth="yes"/>
      <point x="317.0" y="1498.0"/>
      <point x="108.0" y="1291.5"/>
      <point x="108.0" y="740.0" type="curve" smooth="yes"/>
      <point x="108.0" y="188.5"/>
      <point x="315.5" y="-18.0"/>
    </contour>
    <contour>
      <point x="633.0" y="48.5" type="curve" smooth="yes"/>
      <point x="362.0" y="48.5"/>
      <point x="180.0" y="215.0"/>
      <point x="180.0" y="744.0" type="curve" smooth="yes"/>
      <point x="180.0" y="1265.0"/>
      <point x="362.0" y="1431.5"/>
      <point x="633.0" y="1431.5" type="curve" smooth="yes"/>
      <point x="904.0" y="1431.5"/>
      <point x="1086.0" y="1265.0"/>
      <point x="1086.0" y="736.0" type="curve" smooth="yes"/>
      <point x="1086.0" y="215.0"/>
      <point x="904.0" y="48.5"/>
    </contour>
    <contour>
      <point x="833.0" y="1690.0" type="curve" smooth="yes"/>
      <point x="869.0" y="1690.0"/>
      <point x="895.0" y="1714.0"/>
      <point x="895.0" y="1752.0" type="curve" smooth="yes"/>
      <point x="895.0" y="1790.0"/>
      <point x="869.0" y="1816.0"/>
      <point x="833.0" y="1816.0" type="curve" smooth="yes"/>
      <point x="797.0" y="1816.0"/>
      <point x="771.0" y="1790.0"/>
      <point x="771.0" y="1752.0" type="curve" smooth="yes"/>
      <point x="771.0" y="1714.0"/>
      <point x="797.0" y="1690.0"/>
    </contour>
    <contour>
      <point x="433.0" y="1690.0" type="curve" smooth="yes"/>
      <point x="469.0" y="1690.0"/>
      <point x="495.0" y="1714.0"/>
      <point x="495.0" y="1752.0" type="curve" smooth="yes"/>
      <point x="495.0" y="1790.0"/>
      <point x="469.0" y="1816.0"/>
      <point x="433.0" y="1816.0" type="curve" smooth="yes"/>
      <point x="397.0" y="1816.0"/>
      <point x="371.0" y="1790.0"/>
      <point x="371.0" y="1752.0" type="curve" smooth="yes"/>
      <point x="371.0" y="1714.0"/>
      <point x="397.0" y="1690.0"/>
    </contour>
  </outline>
</glyph>
<glyph name="multiply" format="2">
  <advance width="962.0"/>
  <unicode hex="00D7"/>
  <outline>
    <contour>
      <point x="173.0" y="408.0" type="line"/>
      <point x="481.0" y="716.0" type="line"/>
      <point x="789.0" y="408.0" type="line"/>
      <point x="833.0" y="452.0" type="line"/>
      <point x="525.0" y="760.0" type="line"/>
      <point x="833.0" y="1068.0" type="line"/>
      <point x="789.0" y="1112.0" type="line"/>
      <point x="481.0" y="804.0" type="line"/>
      <point x="173.0" y="1112.0" type="line"/>
      <point x="129.0" y="1068.0" type="line"/>
      <point x="437.0" y="760.0" type="line"/>
      <point x="129.0" y="452.0" type="line"/>
    </contour>
  </outline>
</glyph>
<glyph name="Oslash" format="2">
  <advance width="1266.0"/>
  <unicode hex="00D8"/>
  <anchor x="633.0" y="740.0" name="_center"/>
  <anchor x="633.0" y="0.0" name="bottom"/>
  <anchor x="633.0" y="740.0" name="center"/>
  <anchor x="783.0" y="0.0" name="ogonek"/>
  <anchor x="632.0" y="1520.0" name="top"/>
  <anchor x="41.0" y="1480.0" name="topleft"/>
  <anchor x="782.5" y="1480.0" name="topright"/>
  <outline>
    <contour>
      <point x="633.0" y="-18.0" type="curve" smooth="yes"/>
      <point x="949.0" y="-18.0"/>
      <point x="1158.0" y="188.5"/>
      <point x="1158.0" y="740.0" type="curve" smooth="yes"/>
      <point x="1158.0" y="1291.5"/>
      <point x="950.5" y="1498.0"/>
      <point x="633.0" y="1498.0" type="curve" smooth="yes"/>
      <point x="317.0" y="1498.0"/>
      <point x="108.0" y="1291.5"/>
      <point x="108.0" y="740.0" type="curve" smooth="yes"/>
      <point x="108.0" y="188.5"/>
      <point x="315.5" y="-18.0"/>
    </contour>
    <contour>
      <point x="633.0" y="48.5" type="curve" smooth="yes"/>
      <point x="362.0" y="48.5"/>
      <point x="180.0" y="215.0"/>
      <point x="180.0" y="744.0" type="curve" smooth="yes"/>
      <point x="180.0" y="1265.0"/>
      <point x="362.0" y="1431.5"/>
      <point x="633.0" y="1431.5" type="curve" smooth="yes"/>
      <point x="904.0" y="1431.5"/>
      <point x="1086.0" y="1265.0"/>
      <point x="1086.0" y="736.0" type="curve" smooth="yes"/>
      <point x="1086.0" y="215.0"/>
      <point x="904.0" y="48.5"/>
    </contour>
    <contour>
      <point x="169.0" y="-16.0" type="line"/>
      <point x="1149.5" y="1462.0" type="line"/>
      <point x="1097.0" y="1496.0" type="line"/>
      <point x="116.5" y="18.0" type="line"/>
    </contour>
  </outline>
</glyph>
<glyph name="Ugrave" format="2">
  <advance width="1285.0"/>
  <unicode hex="00D9"/>
  <anchor x="643.5" y="1520.0" name="_top"/>
  <anchor x="643.5" y="0.0" name="bottom"/>
  <anchor x="770.0" y="1.0" name="ogonek"/>
  <anchor x="643.5" y="1520.0" name="top"/>
  <anchor x="1050.0" y="1480.0" name="topright"/>
  <outline>
    <contour>
      <point x="643.5" y="-18.0" type="curve" smooth="yes"/>
      <point x="973.0" y="-18.0"/>
      <point x="1116.0" y="148.0"/>
      <point x="1116.0" y="510.5" type="curve" smooth="yes"/>
      <point x="1116.0" y="1480.0" type="line"/>
      <point x="1050.0" y="1480.0" type="line"/>
      <point x="1050.0" y="500.5" type="line" smooth="yes"/>
      <point x="1050.0" y="192.0"/>
      <point x="931.0" y="48.0"/>
      <point x="643.5" y="48.0" type="curve" smooth="yes"/>
      <point x="356.0" y="48.0"/>
      <point x="237.0" y="192.0"/>
      <point x="237.0" y="500.5" type="curve" smooth="yes"/>
      <point x="237.0" y="1480.0" type="line"/>
      <point x="169.0" y="1480.0" type="line"/>
      <point x="169.0" y="510.5" type="line" smooth="yes"/>
      <point x="169.0" y="148.0"/>
      <point x="314.0" y="-18.0"/>
    </contour>
    <contour>
      <point x="613.5" y="1616.0" type="line"/>
      <point x="673.5" y="1616.0" type="line"/>
      <point x="522.0" y="1888.0" type="line"/>
      <point x="446.5" y="1888.0" type="line"/>
    </contour>
  </outline>
</glyph>
<glyph name="Ucircumflex" format="2">
  <advance width="1285.0"/>
  <unicode hex="00DB"/>
  <anchor x="643.5" y="1520.0" name="_top"/>
  <anchor x="643.5" y="0.0" name="bottom"/>
  <anchor x="770.0" y="1.0" name="ogonek"/>
  <anchor x="643.5" y="1520.0" name="top"/>
  <anchor x="1050.0" y="1480.0" name="topright"/>
  <outline>
    <contour>
      <point x="643.5" y="-18.0" type="curve" smooth="yes"/>
      <point x="973.0" y="-18.0"/>
      <point x="1116.0" y="148.0"/>
      <point x="1116.0" y="510.5" type="curve" smooth="yes"/>
      <point x="1116.0" y="1480.0" type="line"/>
      <point x="1050.0" y="1480.0" type="line"/>
      <point x="1050.0" y="500.5" type="line" smooth="yes"/>
      <point x="1050.0" y="192.0"/>
      <point x="931.0" y="48.0"/>
      <point x="643.5" y="48.0" type="curve" smooth="yes"/>
      <point x="356.0" y="48.0"/>
      <point x="237.0" y="192.0"/>
      <point x="237.0" y="500.5" type="curve" smooth="yes"/>
      <point x="237.0" y="1480.0" type="line"/>
      <point x="169.0" y="1480.0" type="line"/>
      <point x="169.0" y="510.5" type="line" smooth="yes"/>
      <point x="169.0" y="148.0"/>
      <point x="314.0" y="-18.0"/>
    </contour>
    <contour>
      <point x="387.5" y="1616.0" type="line"/>
      <point x="463.0" y="1616.0" type="line"/>
      <point x="654.0" y="1858.5" type="line"/>
      <point x="633.0" y="1858.5" type="line"/>
      <point x="824.0" y="1616.0" type="line"/>
      <point x="899.5" y="1616.0" type="line"/>
      <point x="681.5" y="1888.0" type="line"/>
      <point x="605.5" y="1888.0" type="line"/>
    </contour>
  </outline>
</glyph>
<glyph name="Udieresis" format="2">
  <advance width="1285.0"/>
  <unicode hex="00DC"/>
  <anchor x="643.5" y="1520.0" name="_top"/>
  <anchor x="643.5" y="0.0" name="bottom"/>
  <anchor x="770.0" y="1.0" name="ogonek"/>
  <anchor x="643.5" y="1520.0" name="top"/>
  <anchor x="1050.0" y="1480.0" name="topright"/>
  <outline>
    <contour>
      <point x="643.5" y="-18.0" type="curve" smooth="yes"/>
      <point x="973.0" y="-18.0"/>
      <point x="1116.0" y="148.0"/>
      <point x="1116.0" y="510.5" type="curve" smooth="yes"/>
      <point x="1116.0" y="1480.0" type="line"/>
      <point x="1050.0" y="1480.0" type="line"/>
      <point x="1050.0" y="500.5" type="line" smooth="yes"/>
      <point x="1050.0" y="192.0"/>
      <point x="931.0" y="48.0"/>
      <point x="643.5" y="48.0" type="curve" smooth="yes"/>
      <point x="356.0" y="48.0"/>
      <point x="237.0" y="192.0"/>
      <point x="237.0" y="500.5" type="curve" smooth="yes"/>
      <point x="237.0" y="1480.0" type="line"/>
      <point x="169.0" y="1480.0" type="line"/>
      <point x="169.0" y="510.5" type="line" smooth="yes"/>
      <point x="169.0" y="148.0"/>
      <point x="314.0" y="-18.0"/>
    </contour>
    <contour>
      <point x="843.5" y="1690.0" type="curve" smooth="yes"/>
      <point x="879.5" y="1690.0"/>
      <point x="905.5" y="1714.0"/>
      <point x="905.5" y="1752.0" type="curve" smooth="yes"/>
      <point x="905.5" y="1790.0"/>
      <point x="879.5" y="1816.0"/>
      <point x="843.5" y="1816.0" type="curve" smooth="yes"/>
      <point x="807.5" y="1816.0"/>
      <point x="781.5" y="1790.0"/>
      <point x="781.5" y="1752.0" type="curve" smooth="yes"/>
      <point x="781.5" y="1714.0"/>
      <point x="807.5" y="1690.0"/>
    </contour>
    <contour>
      <point x="443.5" y="1690.0" type="curve" smooth="yes"/>
      <point x="479.5" y="1690.0"/>
      <point x="505.5" y="1714.0"/>
      <point x="505.5" y="1752.0" type="curve" smooth="yes"/>
      <point x="505.5" y="1790.0"/>
      <point x="479.5" y="1816.0"/>
      <point x="443.5" y="1816.0" type="curve" smooth="yes"/>
      <point x="407.5" y="1816.0"/>
      <point x="381.5" y="1790.0"/>
      <point x="381.5" y="1752.0" type="curve" smooth="yes"/>
      <point x="381.5" y="1714.0"/>
      <point x="407.5" y="1690.0"/>
    </contour>
  </outline>
</glyph>
<glyph name="Thorn" format="2">
  <advance width="1129.0"/>
  <unicode hex="00DE"/>
  <outline>
    <contour>
      <point x="177.0" y="0.0" type="line"/>
      <point x="245.0" y="0.0" type="line"/>
      <point x="245.0" y="281.5" type="line"/>
      <point x="313.5" y="274.5"/>
      <point x="374.5" y="272.0"/>
      <point x="445.0" y="272.0" type="curve" smooth="yes"/>
      <point x="847.0" y="272.0"/>
      <point x="1023.5" y="442.5"/>
      <point x="1023.5" y="759.5" type="curve" smooth="yes"/>
      <point x="1023.5" y="1095.5"/>
      <point x="841.0" y="1248.0"/>
      <point x="490.0" y="1248.0" type="curve" smooth="yes"/>
      <point x="393.0" y="1248.0"/>
      <point x="306.0" y="1239.0"/>
      <point x="245.0" y="1229.0" type="curve"/>
      <point x="245.0" y="1480.5" type="line"/>
      <point x="177.0" y="1480.5" type="line"/>
    </contour>
    <contour>
      <point x="449.5" y="338.0" type="curve" smooth="yes"/>
      <point x="377.0" y="338.0"/>
      <point x="311.5" y="341.0"/>
      <point x="245.0" y="350.0" type="curve"/>
      <point x="245.0" y="1163.0" type="line"/>
      <point x="321.5" y="1175.0"/>
      <point x="401.0" y="1182.0"/>
      <point x="490.0" y="1182.0" type="curve" smooth="yes"/>
      <point x="802.0" y="1182.0"/>
      <point x="951.5" y="1054.0"/>
      <point x="951.5" y="756.0" type="curve" smooth="yes"/>
      <point x="951.5" y="475.0"/>
      <point x="799.0" y="338.0"/>
    </contour>
  </outline>
</glyph>
<glyph name="germandbls" format="2">
  <advance width="1208.0"/>
  <unicode hex="00DF"/>
  <outline>
    <contour>
      <point x="777.0" y="-18.0" type="curve" smooth="yes"/>
      <point x="1010.0" y="-18.0"/>
      <point x="1136.0" y="94.0"/>
      <point x="1136.0" y="279.0" type="curve" smooth="yes"/>
      <point x="1136.0" y="422.0"/>
      <point x="1075.0" y="516.5"/>
      <point x="876.5" y="567.0" type="curve" smooth="yes"/>
      <point x="766.0" y="594.0" type="line" smooth="yes"/>
      <point x="633.0" y="627.5"/>
      <point x="578.5" y="695.5"/>
      <point x="578.5" y="808.0" type="curve" smooth="yes"/>
      <point x="578.5" y="932.5"/>
      <point x="665.5" y="1030.0"/>
      <point x="868.5" y="1030.0" type="curve" smooth="yes"/>
      <point x="931.5" y="1030.0"/>
      <point x="966.0" y="1023.5"/>
      <point x="1006.0" y="1014.5" type="curve"/>
      <point x="1016.0" y="1055.5"/>
      <point x="1029.0" y="1138.0"/>
      <point x="1029.0" y="1209.5" type="curve" smooth="yes"/>
      <point x="1029.0" y="1514.5"/>
      <point x="860.0" y="1636.0"/>
      <point x="636.0" y="1636.0" type="curve" smooth="yes"/>
      <point x="379.5" y="1636.0"/>
      <point x="221.5" y="1490.5"/>
      <point x="221.5" y="1162.0" type="curve" smooth="yes"/>
      <point x="221.5" y="0.0" type="line"/>
      <point x="289.5" y="0.0" type="line"/>
      <point x="289.5" y="1156.0" type="line" smooth="yes"/>
      <point x="289.5" y="1461.5"/>
      <point x="423.0" y="1570.0"/>
      <point x="637.0" y="1570.0" type="curve" smooth="yes"/>
      <point x="821.5" y="1570.0"/>
      <point x="965.0" y="1480.5"/>
      <point x="964.5" y="1207.0" type="curve" smooth="yes"/>
      <point x="964.5" y="1157.5"/>
      <point x="958.5" y="1107.0"/>
      <point x="949.5" y="1061.5" type="curve"/>
      <point x="982.0" y="1084.0" type="line"/>
      <point x="942.0" y="1091.5"/>
      <point x="901.0" y="1094.0"/>
      <point x="868.5" y="1094.0" type="curve" smooth="yes"/>
      <point x="630.0" y="1094.0"/>
      <point x="508.0" y="969.5"/>
      <point x="508.0" y="803.5" type="curve" smooth="yes"/>
      <point x="508.0" y="663.5"/>
      <point x="573.5" y="569.0"/>
      <point x="760.5" y="522.0" type="curve" smooth="yes"/>
      <point x="871.0" y="495.0" type="line" smooth="yes"/>
      <point x="1004.0" y="461.5"/>
      <point x="1065.5" y="402.5"/>
      <point x="1065.5" y="274.0" type="curve" smooth="yes"/>
      <point x="1065.5" y="129.0"/>
      <point x="968.0" y="48.0"/>
      <point x="775.5" y="48.0" type="curve" smooth="yes"/>
      <point x="696.0" y="48.0"/>
      <point x="622.0" y="58.0"/>
      <point x="525.0" y="88.0" type="curve"/>
      <point x="525.0" y="20.0" type="line"/>
      <point x="603.0" y="-6.0"/>
      <point x="684.5" y="-18.0"/>
    </contour>
    <contour>
      <point x="11.5" y="1014.0" type="line"/>
      <point x="270.0" y="1014.0" type="line"/>
      <point x="270.0" y="1080.0" type="line"/>
      <point x="11.5" y="1080.0" type="line"/>
    </contour>
  </outline>
</glyph>
<glyph name="ae" format="2">
  <advance width="1508.5"/>
  <unicode hex="00E6"/>
  <anchor x="736.5" y="0.0" name="bottom"/>
  <anchor x="736.5" y="1200.0" name="top"/>
  <outline>
    <contour>
      <point x="1130.5" y="-18.0" type="curve" smooth="yes"/>
      <point x="1206.0" y="-18.0"/>
      <point x="1285.0" y="-6.0"/>
      <point x="1376.0" y="25.5" type="curve"/>
      <point x="1376.0" y="93.5" type="line"/>
      <point x="1278.5" y="62.0"/>
      <point x="1202.5" y="48.0"/>
      <point x="1134.5" y="48.0" type="curve" smooth="yes"/>
      <point x="900.0" y="48.0"/>
      <point x="770.5" y="171.0"/>
      <point x="770.5" y="534.5" type="curve" smooth="yes"/>
      <point x="770.5" y="551.0" type="line" smooth="yes"/>
      <point x="770.5" y="916.5"/>
      <point x="891.5" y="1031.5"/>
      <point x="1066.0" y="1031.5" type="curve" smooth="yes"/>
      <point x="1240.5" y="1031.5"/>
      <point x="1353.5" y="920.5"/>
      <point x="1353.5" y="542.0" type="curve"/>
      <point x="1375.0" y="576.0" type="line"/>
      <point x="743.0" y="576.0" type="line"/>
      <point x="743.0" y="510.0" type="line"/>
      <point x="1425.0" y="510.0" type="line"/>
      <point x="1425.0" y="541.0" type="line" smooth="yes"/>
      <point x="1425.0" y="949.0"/>
      <point x="1286.0" y="1097.5"/>
      <point x="1066.0" y="1097.5" type="curve" smooth="yes"/>
      <point x="850.5" y="1097.5"/>
      <point x="708.5" y="949.0"/>
      <point x="708.5" y="550.5" type="curve"/>
      <point x="702.5" y="541.0" type="line"/>
      <point x="702.5" y="133.5"/>
      <point x="855.0" y="-18.0"/>
    </contour>
    <contour>
      <point x="396.0" y="-16.0" type="curve" smooth="yes"/>
      <point x="532.5" y="-16.0"/>
      <point x="667.5" y="36.5"/>
      <point x="777.0" y="220.0" type="curve"/>
      <point x="738.5" y="283.0" type="line"/>
      <point x="653.0" y="106.0"/>
      <point x="522.5" y="50.0"/>
      <point x="400.5" y="50.0" type="curve" smooth="yes"/>
      <point x="252.5" y="50.0"/>
      <point x="169.0" y="123.5"/>
      <point x="169.0" y="271.0" type="curve" smooth="yes"/>
      <point x="169.0" y="409.5"/>
      <point x="246.0" y="510.0"/>
      <point x="467.5" y="510.0" type="curve" smooth="yes"/>
      <point x="735.5" y="510.0" type="line"/>
      <point x="735.5" y="576.0" type="line"/>
      <point x="471.0" y="576.0" type="line" smooth="yes"/>
      <point x="197.5" y="576.0"/>
      <point x="95.0" y="446.0"/>
      <point x="95.0" y="264.0" type="curve" smooth="yes"/>
      <point x="95.0" y="82.5"/>
      <point x="218.0" y="-16.0"/>
    </contour>
    <contour>
      <point x="702.5" y="541.0" type="line"/>
      <point x="764.5" y="526.0" type="line"/>
      <point x="764.5" y="754.5" type="line" smooth="yes"/>
      <point x="764.5" y="1012.0"/>
      <point x="642.0" y="1096.0"/>
      <point x="423.5" y="1096.0" type="curve" smooth="yes"/>
      <point x="336.0" y="1096.0"/>
      <point x="228.5" y="1079.5"/>
      <point x="151.0" y="1049.5" type="curve"/>
      <point x="151.0" y="981.5" type="line"/>
      <point x="248.0" y="1016.0"/>
      <point x="346.5" y="1030.0"/>
      <point x="422.5" y="1030.0" type="curve" smooth="yes"/>
      <point x="601.5" y="1030.0"/>
      <point x="702.5" y="972.0"/>
      <point x="702.5" y="755.5" type="curve" smooth="yes"/>
    </contour>
  </outline>
</glyph>
<glyph name="ecircumflex" format="2">
  <advance width="916.0"/>
  <unicode hex="00EA"/>
  <anchor x="471.0" y="1200.0" name="_top"/>
  <anchor x="471.0" y="0.0" name="bottom"/>
  <anchor x="695.0" y="0.0" name="ogonek"/>
  <anchor x="471.0" y="1200.0" name="top"/>
  <outline>
    <contour>
      <point x="534.0" y="-18.0" type="curve" smooth="yes"/>
      <point x="612.5" y="-18.0"/>
      <point x="691.5" y="-6.0"/>
      <point x="783.5" y="25.5" type="curve"/>
      <point x="783.5" y="93.5" type="line"/>
      <point x="685.0" y="62.0"/>
      <point x="609.0" y="48.0"/>
      <point x="538.0" y="48.0" type="curve" smooth="yes"/>
      <point x="299.5" y="48.0"/>
      <point x="170.0" y="171.0"/>
      <point x="170.0" y="534.5" type="curve" smooth="yes"/>
      <point x="170.0" y="551.0" type="line" smooth="yes"/>
      <point x="170.0" y="916.5"/>
      <point x="295.5" y="1030.0"/>
      <point x="472.5" y="1030.0" type="curve" smooth="yes"/>
      <point x="648.0" y="1030.0"/>
      <point x="761.0" y="916.0"/>
      <point x="761.0" y="551.0" type="curve"/>
      <point x="782.5" y="576.0" type="line"/>
      <point x="136.5" y="576.0" type="line"/>
      <point x="136.5" y="510.0" type="line"/>
      <point x="832.5" y="510.0" type="line"/>
      <point x="832.5" y="540.0" type="line" smooth="yes"/>
      <point x="832.5" y="946.0"/>
      <point x="693.5" y="1096.0"/>
      <point x="472.5" y="1096.0" type="curve" smooth="yes"/>
      <point x="253.5" y="1096.0"/>
      <point x="98.0" y="943.5"/>
      <point x="98.0" y="540.0" type="curve" smooth="yes"/>
      <point x="98.0" y="133.5"/>
      <point x="254.5" y="-18.0"/>
    </contour>
    <contour>
      <point x="236.0" y="1264.0" type="line"/>
      <point x="303.5" y="1264.0" type="line"/>
      <point x="481.5" y="1590.5" type="line"/>
      <point x="460.5" y="1590.5" type="line"/>
      <point x="638.5" y="1264.0" type="line"/>
      <point x="706.0" y="1264.0" type="line"/>
      <point x="509.0" y="1616.0" type="line"/>
      <point x="433.0" y="1616.0" type="line"/>
    </contour>
  </outline>
</glyph>
<glyph name="igrave" format="2">
  <advance width="382.0"/>
  <unicode hex="00EC"/>
  <anchor x="191.0" y="1200.0" name="_top"/>
  <anchor x="191.0" y="0.0" name="bottom"/>
  <anchor x="225.0" y="0.0" name="ogonek"/>
  <anchor x="191.0" y="1200.0" name="top"/>
  <outline>
    <contour>
      <point x="157.0" y="0.0" type="line"/>
      <point x="225.0" y="0.0" type="line"/>
      <point x="225.0" y="1080.0" type="line"/>
      <point x="157.0" y="1080.0" type="line"/>
    </contour>
    <contour>
      <point x="161.0" y="1264.0" type="line"/>
      <point x="221.0" y="1264.0" type="line"/>
      <point x="43.0" y="1616.0" type="line"/>
      <point x="-32.0" y="1616.0" type="line"/>
    </contour>
  </outline>
</glyph>
<glyph name="iacute" format="2">
  <advance width="382.0"/>
  <unicode hex="00ED"/>
  <anchor x="191.0" y="1200.0" name="_top"/>
  <anchor x="191.0" y="0.0" name="bottom"/>
  <anchor x="225.0" y="0.0" name="ogonek"/>
  <anchor x="191.0" y="1200.0" name="top"/>
  <outline>
    <contour>
      <point x="157.0" y="0.0" type="line"/>
      <point x="225.0" y="0.0" type="line"/>
      <point x="225.0" y="1080.0" type="line"/>
      <point x="157.0" y="1080.0" type="line"/>
    </contour>
    <contour>
      <point x="161.0" y="1264.0" type="line"/>
      <point x="221.0" y="1264.0" type="line"/>
      <point x="414.0" y="1616.0" type="line"/>
      <point x="339.0" y="1616.0" type="line"/>
    </contour>
  </outline>
</glyph>
<glyph name="icircumflex" format="2">
  <advance width="382.0"/>
  <unicode hex="00EE"/>
  <anchor x="191.0" y="1200.0" name="_top"/>
  <anchor x="191.0" y="0.0" name="bottom"/>
  <anchor x="225.0" y="0.0" name="ogonek"/>
  <anchor x="191.0" y="1200.0" name="top"/>
  <outline>
    <contour>
      <point x="157.0" y="0.0" type="line"/>
      <point x="225.0" y="0.0" type="line"/>
      <point x="225.0" y="1080.0" type="line"/>
      <point x="157.0" y="1080.0" type="line"/>
    </contour>
    <contour>
      <point x="-44.0" y="1264.0" type="line"/>
      <point x="23.5" y="1264.0" type="line"/>
      <point x="201.5" y="1590.5" type="line"/>
      <point x="180.5" y="1590.5" type="line"/>
      <point x="358.5" y="1264.0" type="line"/>
      <point x="426.0" y="1264.0" type="line"/>
      <point x="229.0" y="1616.0" type="line"/>
      <point x="153.0" y="1616.0" type="line"/>
    </contour>
  </outline>
</glyph>
<glyph name="idieresis" format="2">
  <advance width="382.0"/>
  <unicode hex="00EF"/>
  <anchor x="191.0" y="1200.0" name="_top"/>
  <anchor x="191.0" y="0.0" name="bottom"/>
  <anchor x="225.0" y="0.0" name="ogonek"/>
  <anchor x="191.0" y="1200.0" name="top"/>
  <outline>
    <contour>
      <point x="157.0" y="0.0" type="line"/>
      <point x="225.0" y="0.0" type="line"/>
      <point x="225.0" y="1080.0" type="line"/>
      <point x="157.0" y="1080.0" type="line"/>
    </contour>
    <contour>
      <point x="371.0" y="1360.0" type="curve" smooth="yes"/>
      <point x="407.0" y="1360.0"/>
      <point x="433.0" y="1384.0"/>
      <point x="433.0" y="1422.0" type="curve" smooth="yes"/>
      <point x="433.0" y="1460.0"/>
      <point x="407.0" y="1486.0"/>
      <point x="371.0" y="1486.0" type="curve" smooth="yes"/>
      <point x="335.0" y="1486.0"/>
      <point x="309.0" y="1460.0"/>
      <point x="309.0" y="1422.0" type="curve" smooth="yes"/>
      <point x="309.0" y="1384.0"/>
      <point x="335.0" y="1360.0"/>
    </contour>
    <contour>
      <point x="11.0" y="1360.0" type="curve" smooth="yes"/>
      <point x="47.0" y="1360.0"/>
      <point x="73.0" y="1384.0"/>
      <point x="73.0" y="1422.0" type="curve" smooth="yes"/>
      <point x="73.0" y="1460.0"/>
      <point x="47.0" y="1486.0"/>
      <point x="11.0" y="1486.0" type="curve" smooth="yes"/>
      <point x="-25.0" y="1486.0"/>
      <point x="-51.0" y="1460.0"/>
      <point x="-51.0" y="1422.0" type="curve" smooth="yes"/>
      <point x="-51.0" y="1384.0"/>
      <point x="-25.0" y="1360.0"/>
    </contour>
  </outline>
</glyph>
<glyph name="eth" format="2">
  <advance width="985.0"/>
  <unicode hex="00F0"/>
  <guideline x="338.5" y="1031.0" angle="90.0"/>
  <outline>
    <contour>
      <point x="494.5" y="-18.0" type="curve" smooth="yes"/>
      <point x="730.5" y="-18.0"/>
      <point x="885.0" y="155.0"/>
      <point x="885.0" y="570.0" type="curve" smooth="yes"/>
      <point x="885.0" y="976.0"/>
      <point x="670.0" y="1414.0"/>
      <point x="407.5" y="1616.0" type="curve"/>
      <point x="316.0" y="1616.0" type="line"/>
      <point x="568.0" y="1415.5"/>
      <point x="692.0" y="1176.5"/>
      <point x="759.0" y="945.5" type="curve"/>
      <point x="788.5" y="931.0" type="line"/>
      <point x="710.5" y="1060.5"/>
      <point x="606.5" y="1096.0"/>
      <point x="492.5" y="1096.0" type="curve" smooth="yes"/>
      <point x="254.5" y="1096.0"/>
      <point x="98.0" y="942.5"/>
      <point x="98.0" y="540.0" type="curve" smooth="yes"/>
      <point x="98.0" y="135.5"/>
      <point x="256.5" y="-18.0"/>
    </contour>
    <contour>
      <point x="494.5" y="48.0" type="curve" smooth="yes"/>
      <point x="296.5" y="48.0"/>
      <point x="170.0" y="166.0"/>
      <point x="170.0" y="543.5" type="curve" smooth="yes"/>
      <point x="170.0" y="914.0"/>
      <point x="296.5" y="1030.0"/>
      <point x="492.5" y="1030.0" type="curve" smooth="yes"/>
      <point x="688.5" y="1030.0"/>
      <point x="815.0" y="914.0"/>
      <point x="815.0" y="536.5" type="curve" smooth="yes"/>
      <point x="815.0" y="183.5"/>
      <point x="685.5" y="48.0"/>
    </contour>
    <contour>
      <point x="199.0" y="1254.0" type="line"/>
      <point x="864.5" y="1363.5" type="line"/>
      <point x="855.0" y="1421.5" type="line"/>
      <point x="189.5" y="1312.0" type="line"/>
    </contour>
  </outline>
</glyph>
<glyph name="ntilde" format="2">
  <advance width="1008.5"/>
  <unicode hex="00F1"/>
  <anchor x="510.5" y="1200.0" name="_top"/>
  <anchor x="11.5" y="1200.0" name="apostrophe"/>
  <anchor x="510.5" y="0.0" name="bottom"/>
  <anchor x="510.5" y="1200.0" name="top"/>
  <outline>
    <contour>
      <point x="157.0" y="0.0" type="line"/>
      <point x="225.0" y="0.0" type="line"/>
      <point x="225.0" y="851.5" type="line"/>
      <point x="310.0" y="985.5"/>
      <point x="450.0" y="1030.0"/>
      <point x="552.0" y="1030.0" type="curve" smooth="yes"/>
      <point x="699.0" y="1030.0"/>
      <point x="795.5" y="961.5"/>
      <point x="795.5" y="756.0" type="curve" smooth="yes"/>
      <point x="795.5" y="0.0" type="line"/>
      <point x="863.5" y="0.0" type="line"/>
      <point x="863.5" y="757.0" type="line" smooth="yes"/>
      <point x="863.5" y="1011.5"/>
      <point x="733.5" y="1096.0"/>
      <point x="555.0" y="1096.0" type="curve" smooth="yes"/>
      <point x="429.0" y="1096.0"/>
      <point x="314.5" y="1044.0"/>
      <point x="231.0" y="953.5" type="curve"/>
      <point x="223.0" y="953.5" type="line"/>
      <point x="217.0" y="1080.0" type="line"/>
      <point x="157.0" y="1080.0" type="line"/>
    </contour>
    <contour>
      <point x="636.5" y="1380.0" type="curve" smooth="yes"/>
      <point x="696.0" y="1380.0"/>
      <point x="744.5" y="1403.0"/>
      <point x="777.0" y="1441.5" type="curve"/>
      <point x="777.0" y="1508.0" type="line"/>
      <point x="736.5" y="1460.0"/>
      <point x="693.5" y="1436.5"/>
      <point x="636.5" y="1436.5" type="curve" smooth="yes"/>
      <point x="559.5" y="1436.5"/>
      <point x="480.5" y="1513.5"/>
      <point x="384.5" y="1513.5" type="curve" smooth="yes"/>
      <point x="325.0" y="1513.5"/>
      <point x="276.5" y="1490.5"/>
      <point x="244.0" y="1452.0" type="curve"/>
      <point x="244.0" y="1385.5" type="line"/>
      <point x="284.5" y="1433.5"/>
      <point x="327.5" y="1457.0"/>
      <point x="384.5" y="1457.0" type="curve" smooth="yes"/>
      <point x="461.5" y="1457.0"/>
      <point x="540.5" y="1380.0"/>
    </contour>
  </outline>
</glyph>
<glyph name="otilde" format="2">
  <advance width="985.0"/>
  <unicode hex="00F5"/>
  <anchor x="492.5" y="1200.0" name="_top"/>
  <anchor x="492.5" y="0.0" name="bottom"/>
  <anchor x="492.5" y="540.0" name="center"/>
  <anchor x="620.5" y="0.0" name="ogonek"/>
  <anchor x="492.5" y="1200.0" name="top"/>
  <anchor x="612.5" y="1080.0" name="topright"/>
  <outline>
    <contour>
      <point x="492.5" y="-18.0" type="curve" smooth="yes"/>
      <point x="730.5" y="-18.0"/>
      <point x="887.0" y="137.5"/>
      <point x="887.0" y="540.0" type="curve" smooth="yes"/>
      <point x="887.0" y="944.5"/>
      <point x="728.5" y="1096.0"/>
      <point x="492.5" y="1096.0" type="curve" smooth="yes"/>
      <point x="254.5" y="1096.0"/>
      <point x="98.0" y="942.5"/>
      <point x="98.0" y="540.0" type="curve" smooth="yes"/>
      <point x="98.0" y="135.5"/>
      <point x="256.5" y="-18.0"/>
    </contour>
    <contour>
      <point x="492.5" y="48.0" type="curve" smooth="yes"/>
      <point x="296.5" y="48.0"/>
      <point x="170.0" y="166.0"/>
      <point x="170.0" y="543.5" type="curve" smooth="yes"/>
      <point x="170.0" y="914.0"/>
      <point x="296.5" y="1030.0"/>
      <point x="492.5" y="1030.0" type="curve" smooth="yes"/>
      <point x="688.5" y="1030.0"/>
      <point x="815.0" y="914.0"/>
      <point x="815.0" y="536.5" type="curve" smooth="yes"/>
      <point x="815.0" y="166.0"/>
      <point x="688.5" y="48.0"/>
    </contour>
    <contour>
      <point x="618.5" y="1380.0" type="curve" smooth="yes"/>
      <point x="678.0" y="1380.0"/>
      <point x="726.5" y="1403.0"/>
      <point x="759.0" y="1441.5" type="curve"/>
      <point x="759.0" y="1508.0" type="line"/>
      <point x="718.5" y="1460.0"/>
      <point x="675.5" y="1436.5"/>
      <point x="618.5" y="1436.5" type="curve" smooth="yes"/>
      <point x="541.5" y="1436.5"/>
      <point x="462.5" y="1513.5"/>
      <point x="366.5" y="1513.5" type="curve" smooth="yes"/>
      <point x="307.0" y="1513.5"/>
      <point x="258.5" y="1490.5"/>
      <point x="226.0" y="1452.0" type="curve"/>
      <point x="226.0" y="1385.5" type="line"/>
      <point x="266.5" y="1433.5"/>
      <point x="309.5" y="1457.0"/>
      <point x="366.5" y="1457.0" type="curve" smooth="yes"/>
      <point x="443.5" y="1457.0"/>
      <point x="522.5" y="1380.0"/>
    </contour>
  </outline>
</glyph>
<glyph name="divide" format="2">
  <advance width="1039.0"/>
  <unicode hex="00F7"/>
  <outline>
    <contour>
      <point x="155.5" y="728.0" type="line"/>
      <point x="883.5" y="728.0" type="line"/>
      <point x="883.5" y="792.0" type="line"/>
      <point x="155.5" y="792.0" type="line"/>
    </contour>
    <contour>
      <point x="519.5" y="368.0" type="curve" smooth="yes"/>
      <point x="555.5" y="368.0"/>
      <point x="581.5" y="392.0"/>
      <point x="581.5" y="430.0" type="curve" smooth="yes"/>
      <point x="581.5" y="468.0"/>
      <point x="555.5" y="494.0"/>
      <point x="519.5" y="494.0" type="curve" smooth="yes"/>
      <point x="483.5" y="494.0"/>
      <point x="457.5" y="468.0"/>
      <point x="457.5" y="430.0" type="curve" smooth="yes"/>
      <point x="457.5" y="392.0"/>
      <point x="483.5" y="368.0"/>
    </contour>
    <contour>
      <point x="519.5" y="1026.0" type="curve" smooth="yes"/>
      <point x="555.5" y="1026.0"/>
      <point x="581.5" y="1050.0"/>
      <point x="581.5" y="1088.0" type="curve" smooth="yes"/>
      <point x="581.5" y="1126.0"/>
      <point x="555.5" y="1152.0"/>
      <point x="519.5" y="1152.0" type="curve" smooth="yes"/>
      <point x="483.5" y="1152.0"/>
      <point x="457.5" y="1126.0"/>
      <point x="457.5" y="1088.0" type="curve" smooth="yes"/>
      <point x="457.5" y="1050.0"/>
      <point x="483.5" y="1026.0"/>
    </contour>
  </outline>
</glyph>
<glyph name="uacute" format="2">
  <advance width="998.5"/>
  <unicode hex="00FA"/>
  <anchor x="494.0" y="1200.0" name="_top"/>
  <anchor x="494.0" y="0.0" name="bottom"/>
  <anchor x="841.5" y="0.0" name="ogonek"/>
  <anchor x="494.0" y="1200.0" name="top"/>
  <anchor x="773.5" y="1080.0" name="topright"/>
  <outline>
    <contour>
      <point x="450.0" y="-18.0" type="curve" smooth="yes"/>
      <point x="566.0" y="-18.0"/>
      <point x="681.5" y="27.5"/>
      <point x="767.5" y="122.0" type="curve"/>
      <point x="775.5" y="122.0" type="line"/>
      <point x="781.5" y="0.0" type="line"/>
      <point x="841.5" y="0.0" type="line"/>
      <point x="841.5" y="1080.0" type="line"/>
      <point x="773.5" y="1080.0" type="line"/>
      <point x="773.5" y="225.5" type="line"/>
      <point x="691.0" y="94.5"/>
      <point x="553.0" y="48.0"/>
      <point x="452.0" y="48.0" type="curve" smooth="yes"/>
      <point x="311.0" y="48.0"/>
      <point x="213.0" y="115.5"/>
      <point x="213.0" y="321.0" type="curve" smooth="yes"/>
      <point x="213.0" y="1080.0" type="line"/>
      <point x="145.0" y="1080.0" type="line"/>
      <point x="145.0" y="323.5" type="line" smooth="yes"/>
      <point x="145.0" y="66.0"/>
      <point x="275.0" y="-18.0"/>
    </contour>
    <contour>
      <point x="464.0" y="1264.0" type="line"/>
      <point x="524.0" y="1264.0" type="line"/>
      <point x="717.0" y="1616.0" type="line"/>
      <point x="642.0" y="1616.0" type="line"/>
    </contour>
  </outline>
</glyph>
<glyph name="thorn" format="2">
  <advance width="992.5"/>
  <unicode hex="00FE"/>
  <outline>
    <contour>
      <point x="157.0" y="-440.0" type="line"/>
      <point x="225.0" y="-440.0" type="line"/>
      <point x="225.0" y="-4.5" type="line"/>
      <point x="279.0" y="-12.0"/>
      <point x="345.5" y="-18.0"/>
      <point x="405.0" y="-18.0" type="curve" smooth="yes"/>
      <point x="720.5" y="-18.0"/>
      <point x="894.5" y="158.5"/>
      <point x="894.5" y="560.0" type="curve" smooth="yes"/>
      <point x="894.5" y="969.0"/>
      <point x="720.5" y="1096.0"/>
      <point x="516.5" y="1096.0" type="curve" smooth="yes"/>
      <point x="386.0" y="1096.0"/>
      <point x="290.0" y="1040.0"/>
      <point x="231.0" y="970.5" type="curve"/>
      <point x="225.0" y="970.5" type="line"/>
      <point x="225.0" y="1616.0" type="line"/>
      <point x="157.0" y="1616.0" type="line"/>
    </contour>
    <contour>
      <point x="407.5" y="48.0" type="curve" smooth="yes"/>
      <point x="346.5" y="48.0"/>
      <point x="273.0" y="55.5"/>
      <point x="225.0" y="66.5" type="curve"/>
      <point x="225.0" y="869.0" type="line"/>
      <point x="288.0" y="977.5"/>
      <point x="400.5" y="1030.0"/>
      <point x="511.0" y="1030.0" type="curve" smooth="yes"/>
      <point x="684.0" y="1030.0"/>
      <point x="822.5" y="933.5"/>
      <point x="822.5" y="552.0" type="curve" smooth="yes"/>
      <point x="822.5" y="191.0"/>
      <point x="678.0" y="48.0"/>
    </contour>
  </outline>
</glyph>
<glyph name="ydieresis" format="2">
  <advance width="926.5"/>
  <unicode hex="00FF"/>
  <anchor x="464.5" y="1200.0" name="_top"/>
  <anchor x="679.5" y="0.0" name="bottom"/>
  <anchor x="464.5" y="1200.0" name="top"/>
  <outline>
    <contour>
      <point x="276.5" y="-440.0" type="line"/>
      <point x="348.5" y="-440.0" type="line"/>
      <point x="908.0" y="1080.0" type="line"/>
      <point x="833.5" y="1080.0" type="line"/>
      <point x="454.0" y="35.0" type="line"/>
      <point x="439.5" y="0.0" type="line"/>
    </contour>
    <contour>
      <point x="416.5" y="0.0" type="line"/>
      <point x="486.5" y="0.0" type="line"/>
      <point x="94.5" y="1080.0" type="line"/>
      <point x="18.5" y="1080.0" type="line"/>
    </contour>
    <contour>
      <point x="644.5" y="1360.0" type="curve" smooth="yes"/>
      <point x="680.5" y="1360.0"/>
      <point x="706.5" y="1384.0"/>
      <point x="706.5" y="1422.0" type="curve" smooth="yes"/>
      <point x="706.5" y="1460.0"/>
      <point x="680.5" y="1486.0"/>
      <point x="644.5" y="1486.0" type="curve" smooth="yes"/>
      <point x="608.5" y="1486.0"/>
      <point x="582.5" y="1460.0"/>
      <point x="582.5" y="1422.0" type="curve" smooth="yes"/>
      <point x="582.5" y="1384.0"/>
      <point x="608.5" y="1360.0"/>
    </contour>
    <contour>
      <point x="284.5" y="1360.0" type="curve" smooth="yes"/>
      <point x="320.5" y="1360.0"/>
      <point x="346.5" y="1384.0"/>
      <point x="346.5" y="1422.0" type="curve" smooth="yes"/>
      <point x="346.5" y="1460.0"/>
      <point x="320.5" y="1486.0"/>
      <point x="284.5" y="1486.0" type="curve" smooth="yes"/>
      <point x="248.5" y="1486.0"/>
      <point x="222.5" y="1460.0"/>
      <point x="222.5" y="1422.0" type="curve" smooth="yes"/>
      <point x="222.5" y="1384.0"/>
      <point x="248.5" y="1360.0"/>
    </contour>
  </outline>
</glyph>
<glyph name="Amacron" format="2">
  <advance width="1208.0"/>
  <unicode hex="0100"/>
  <anchor x="605.0" y="1520.0" name="_top"/>
  <anchor x="605.0" y="0.0" name="bottom"/>
  <anchor x="1176.5" y="0.0" name="ogonek"/>
  <anchor x="605.0" y="1520.0" name="top"/>
  <outline>
    <contour>
      <point x="31.5" y="0.0" type="line"/>
      <point x="104.0" y="0.0" type="line"/>
      <point x="615.0" y="1440.0" type="line"/>
      <point x="591.0" y="1440.0" type="line"/>
      <point x="1102.0" y="0.0" type="line"/>
      <point x="1176.5" y="0.0" type="line"/>
      <point x="647.0" y="1480.0" type="line"/>
      <point x="561.0" y="1480.0" type="line"/>
    </contour>
    <contour>
      <point x="265.0" y="528.0" type="line"/>
      <point x="943.0" y="528.0" type="line"/>
      <point x="923.0" y="594.0" type="line"/>
      <point x="285.0" y="594.0" type="line"/>
    </contour>
    <contour>
      <point x="350.0" y="1723.5" type="line"/>
      <point x="860.0" y="1723.5" type="line"/>
      <point x="860.0" y="1782.0" type="line"/>
      <point x="350.0" y="1782.0" type="line"/>
    </contour>
  </outline>
</glyph>
<glyph name="Abreve" format="2">
  <advance width="1208.0"/>
  <unicode hex="0102"/>
  <anchor x="605.0" y="1520.0" name="_top"/>
  <anchor x="605.0" y="0.0" name="bottom"/>
  <anchor x="1176.5" y="0.0" name="ogonek"/>
  <anchor x="605.0" y="1520.0" name="top"/>
  <outline>
    <contour>
      <point x="31.5" y="0.0" type="line"/>
      <point x="104.0" y="0.0" type="line"/>
      <point x="615.0" y="1440.0" type="line"/>
      <point x="591.0" y="1440.0" type="line"/>
      <point x="1102.0" y="0.0" type="line"/>
      <point x="1176.5" y="0.0" type="line"/>
      <point x="647.0" y="1480.0" type="line"/>
      <point x="561.0" y="1480.0" type="line"/>
    </contour>
    <contour>
      <point x="265.0" y="528.0" type="line"/>
      <point x="943.0" y="528.0" type="line"/>
      <point x="923.0" y="594.0" type="line"/>
      <point x="285.0" y="594.0" type="line"/>
    </contour>
    <contour>
      <point x="607.0" y="1628.0" type="curve" smooth="yes"/>
      <point x="769.5" y="1628.0"/>
      <point x="856.0" y="1710.5"/>
      <point x="867.0" y="1860.0" type="curve"/>
      <point x="810.0" y="1860.0" type="line"/>
      <point x="798.5" y="1741.5"/>
      <point x="742.5" y="1686.5"/>
      <point x="607.0" y="1686.5" type="curve" smooth="yes"/>
      <point x="471.5" y="1686.5"/>
      <point x="414.5" y="1741.5"/>
      <point x="400.0" y="1860.0" type="curve"/>
      <point x="343.0" y="1860.0" type="line"/>
      <point x="354.0" y="1712.5"/>
      <point x="444.5" y="1628.0"/>
    </contour>
  </outline>
</glyph>
<glyph name="Aogonek" format="2">
  <advance width="1208.0"/>
  <unicode hex="0104"/>
  <anchor x="1176.5" y="0.0" name="_ogonek"/>
  <anchor x="605.0" y="0.0" name="bottom"/>
  <anchor x="1176.5" y="0.0" name="ogonek"/>
  <anchor x="605.0" y="1520.0" name="top"/>
  <outline>
    <contour>
      <point x="31.5" y="0.0" type="line"/>
      <point x="104.0" y="0.0" type="line"/>
      <point x="615.0" y="1440.0" type="line"/>
      <point x="591.0" y="1440.0" type="line"/>
      <point x="1102.0" y="0.0" type="line"/>
      <point x="1176.5" y="0.0" type="line"/>
      <point x="647.0" y="1480.0" type="line"/>
      <point x="561.0" y="1480.0" type="line"/>
    </contour>
    <contour>
      <point x="265.0" y="528.0" type="line"/>
      <point x="943.0" y="528.0" type="line"/>
      <point x="923.0" y="594.0" type="line"/>
      <point x="285.0" y="594.0" type="line"/>
    </contour>
    <contour>
      <point x="1138.5" y="-400.0" type="curve" smooth="yes"/>
      <point x="1190.0" y="-400.0"/>
      <point x="1242.0" y="-387.5"/>
      <point x="1295.0" y="-361.5" type="curve"/>
      <point x="1295.0" y="-307.5" type="line"/>
      <point x="1229.0" y="-337.0"/>
      <point x="1183.0" y="-348.0"/>
      <point x="1136.0" y="-348.0" type="curve" smooth="yes"/>
      <point x="1041.0" y="-348.0"/>
      <point x="991.0" y="-308.5"/>
      <point x="991.0" y="-228.0" type="curve" smooth="yes"/>
      <point x="991.0" y="-148.0"/>
      <point x="1036.5" y="-80.0"/>
      <point x="1176.5" y="0.0" type="curve"/>
      <point x="1149.5" y="46.5" type="line"/>
      <point x="996.0" y="-41.5"/>
      <point x="935.0" y="-128.0"/>
      <point x="935.0" y="-231.5" type="curve" smooth="yes"/>
      <point x="935.0" y="-340.5"/>
      <point x="1008.5" y="-400.0"/>
    </contour>
  </outline>
</glyph>
<glyph name="aogonek" format="2">
  <advance width="915.5"/>
  <unicode hex="0105"/>
  <anchor x="770.5" y="0.0" name="_ogonek"/>
  <anchor x="461.5" y="0.0" name="bottom"/>
  <anchor x="770.5" y="0.0" name="ogonek"/>
  <anchor x="452.5" y="1200.0" name="top"/>
  <outline>
    <contour>
      <point x="394.0" y="-16.0" type="curve" smooth="yes"/>
      <point x="517.0" y="-16.0"/>
      <point x="626.5" y="34.0"/>
      <point x="696.5" y="125.0" type="curve"/>
      <point x="704.5" y="125.0" type="line"/>
      <point x="710.5" y="0.0" type="line"/>
      <point x="770.5" y="0.0" type="line"/>
      <point x="770.5" y="750.0" type="line" smooth="yes"/>
      <point x="770.5" y="1012.0"/>
      <point x="644.5" y="1096.0"/>
      <point x="423.5" y="1096.0" type="curve" smooth="yes"/>
      <point x="336.0" y="1096.0"/>
      <point x="228.5" y="1079.5"/>
      <point x="151.0" y="1049.5" type="curve"/>
      <point x="151.0" y="981.5" type="line"/>
      <point x="248.0" y="1016.0"/>
      <point x="346.5" y="1030.0"/>
      <point x="422.5" y="1030.0" type="curve" smooth="yes"/>
      <point x="601.5" y="1030.0"/>
      <point x="702.5" y="972.0"/>
      <point x="702.5" y="751.0" type="curve" smooth="yes"/>
      <point x="702.5" y="221.0" type="line"/>
      <point x="618.0" y="94.0"/>
      <point x="503.0" y="50.0"/>
      <point x="398.5" y="50.0" type="curve" smooth="yes"/>
      <point x="248.5" y="50.0"/>
      <point x="169.0" y="123.5"/>
      <point x="169.0" y="273.5" type="curve" smooth="yes"/>
      <point x="169.0" y="412.0"/>
      <point x="249.0" y="488.5"/>
      <point x="436.5" y="509.0" type="curve" smooth="yes"/>
      <point x="746.5" y="544.5" type="line"/>
      <point x="740.0" y="610.5" type="line"/>
      <point x="438.5" y="575.0" type="line" smooth="yes"/>
      <point x="202.5" y="548.5"/>
      <point x="95.0" y="448.5"/>
      <point x="95.0" y="266.5" type="curve" smooth="yes"/>
      <point x="95.0" y="84.0"/>
      <point x="213.5" y="-16.0"/>
    </contour>
    <contour>
      <point x="732.5" y="-400.0" type="curve" smooth="yes"/>
      <point x="780.0" y="-400.0"/>
      <point x="834.0" y="-385.5"/>
      <point x="873.5" y="-359.5" type="curve"/>
      <point x="873.5" y="-303.5" type="line"/>
      <point x="828.5" y="-332.5"/>
      <point x="780.0" y="-348.0"/>
      <point x="730.0" y="-348.0" type="curve" smooth="yes"/>
      <point x="651.5" y="-348.0"/>
      <point x="605.0" y="-305.0"/>
      <point x="605.0" y="-228.0" type="curve" smooth="yes"/>
      <point x="605.0" y="-146.0"/>
      <point x="653.5" y="-78.5"/>
      <point x="770.5" y="0.0" type="curve"/>
      <point x="743.5" y="46.5" type="line"/>
      <point x="608.5" y="-43.0"/>
      <point x="549.0" y="-129.0"/>
      <point x="549.0" y="-231.5" type="curve" smooth="yes"/>
      <point x="549.0" y="-337.0"/>
      <point x="617.5" y="-400.0"/>
    </contour>
  </outline>
</glyph>
<glyph name="cacute" format="2">
  <advance width="764.0"/>
  <unicode hex="0107"/>
  <anchor x="463.0" y="1200.0" name="_top"/>
  <anchor x="461.5" y="0.0" name="bottom"/>
  <anchor x="463.0" y="1200.0" name="top"/>
  <outline>
    <contour>
      <point x="503.0" y="-18.0" type="curve" smooth="yes"/>
      <point x="579.5" y="-18.0"/>
      <point x="657.0" y="-4.5"/>
      <point x="739.5" y="25.5" type="curve"/>
      <point x="739.5" y="93.5" type="line"/>
      <point x="648.5" y="61.0"/>
      <point x="574.5" y="48.0"/>
      <point x="510.5" y="48.0" type="curve" smooth="yes"/>
      <point x="287.5" y="48.0"/>
      <point x="170.0" y="169.5"/>
      <point x="170.0" y="544.0" type="curve" smooth="yes"/>
      <point x="170.0" y="913.5"/>
      <point x="295.5" y="1030.0"/>
      <point x="551.5" y="1030.0" type="curve" smooth="yes"/>
      <point x="603.0" y="1030.0"/>
      <point x="670.5" y="1022.0"/>
      <point x="739.5" y="1002.5" type="curve"/>
      <point x="739.5" y="1070.5" type="line"/>
      <point x="677.5" y="1088.5"/>
      <point x="608.5" y="1096.0"/>
      <point x="548.5" y="1096.0" type="curve" smooth="yes"/>
      <point x="255.5" y="1096.0"/>
      <point x="98.0" y="946.0"/>
      <point x="98.0" y="540.0" type="curve" smooth="yes"/>
      <point x="98.0" y="133.5"/>
      <point x="244.0" y="-18.0"/>
    </contour>
    <contour>
      <point x="433.0" y="1264.0" type="line"/>
      <point x="493.0" y="1264.0" type="line"/>
      <point x="686.0" y="1616.0" type="line"/>
      <point x="611.0" y="1616.0" type="line"/>
    </contour>
  </outline>
</glyph>
<glyph name="Ccircumflex" format="2">
  <advance width="1015.5"/>
  <unicode hex="0108"/>
  <anchor x="631.0" y="1520.0" name="_top"/>
  <anchor x="643.5" y="0.0" name="bottom"/>
  <anchor x="631.0" y="1520.0" name="top"/>
  <outline>
    <contour>
      <point x="681.5" y="-18.0" type="curve" smooth="yes"/>
      <point x="797.5" y="-18.0"/>
      <point x="899.0" y="3.5"/>
      <point x="988.5" y="36.0" type="curve"/>
      <point x="988.5" y="104.0" type="line"/>
      <point x="875.0" y="64.0"/>
      <point x="785.5" y="48.0"/>
      <point x="680.5" y="48.0" type="curve" smooth="yes"/>
      <point x="374.5" y="48.0"/>
      <point x="180.0" y="204.5"/>
      <point x="180.0" y="742.0" type="curve" smooth="yes"/>
      <point x="180.0" y="1262.0"/>
      <point x="365.5" y="1432.0"/>
      <point x="690.0" y="1432.0" type="curve" smooth="yes"/>
      <point x="790.0" y="1432.0"/>
      <point x="883.5" y="1421.0"/>
      <point x="988.5" y="1386.5" type="curve"/>
      <point x="988.5" y="1454.5" type="line"/>
      <point x="893.5" y="1483.0"/>
      <point x="796.5" y="1498.0"/>
      <point x="696.5" y="1498.0" type="curve" smooth="yes"/>
      <point x="329.0" y="1498.0"/>
      <point x="108.0" y="1296.0"/>
      <point x="108.0" y="738.0" type="curve" smooth="yes"/>
      <point x="108.0" y="167.0"/>
      <point x="337.0" y="-18.0"/>
    </contour>
    <contour>
      <point x="375.0" y="1616.0" type="line"/>
      <point x="450.5" y="1616.0" type="line"/>
      <point x="641.5" y="1858.5" type="line"/>
      <point x="620.5" y="1858.5" type="line"/>
      <point x="811.5" y="1616.0" type="line"/>
      <point x="887.0" y="1616.0" type="line"/>
      <point x="669.0" y="1888.0" type="line"/>
      <point x="593.0" y="1888.0" type="line"/>
    </contour>
  </outline>
</glyph>
<glyph name="cdotaccent" format="2">
  <advance width="764.0"/>
  <unicode hex="010B"/>
  <anchor x="463.0" y="1200.0" name="_top"/>
  <anchor x="461.5" y="0.0" name="bottom"/>
  <anchor x="463.0" y="1200.0" name="top"/>
  <outline>
    <contour>
      <point x="503.0" y="-18.0" type="curve" smooth="yes"/>
      <point x="579.5" y="-18.0"/>
      <point x="657.0" y="-4.5"/>
      <point x="739.5" y="25.5" type="curve"/>
      <point x="739.5" y="93.5" type="line"/>
      <point x="648.5" y="61.0"/>
      <point x="574.5" y="48.0"/>
      <point x="510.5" y="48.0" type="curve" smooth="yes"/>
      <point x="287.5" y="48.0"/>
      <point x="170.0" y="169.5"/>
      <point x="170.0" y="544.0" type="curve" smooth="yes"/>
      <point x="170.0" y="913.5"/>
      <point x="295.5" y="1030.0"/>
      <point x="551.5" y="1030.0" type="curve" smooth="yes"/>
      <point x="603.0" y="1030.0"/>
      <point x="670.5" y="1022.0"/>
      <point x="739.5" y="1002.5" type="curve"/>
      <point x="739.5" y="1070.5" type="line"/>
      <point x="677.5" y="1088.5"/>
      <point x="608.5" y="1096.0"/>
      <point x="548.5" y="1096.0" type="curve" smooth="yes"/>
      <point x="255.5" y="1096.0"/>
      <point x="98.0" y="946.0"/>
      <point x="98.0" y="540.0" type="curve" smooth="yes"/>
      <point x="98.0" y="133.5"/>
      <point x="244.0" y="-18.0"/>
    </contour>
    <contour>
      <point x="463.0" y="1360.0" type="curve" smooth="yes"/>
      <point x="499.0" y="1360.0"/>
      <point x="525.0" y="1384.0"/>
      <point x="525.0" y="1422.0" type="curve" smooth="yes"/>
      <point x="525.0" y="1460.0"/>
      <point x="499.0" y="1486.0"/>
      <point x="463.0" y="1486.0" type="curve" smooth="yes"/>
      <point x="427.0" y="1486.0"/>
      <point x="401.0" y="1460.0"/>
      <point x="401.0" y="1422.0" type="curve" smooth="yes"/>
      <point x="401.0" y="1384.0"/>
      <point x="427.0" y="1360.0"/>
    </contour>
  </outline>
</glyph>
<glyph name="Ebreve" format="2">
  <advance width="1030.5"/>
  <unicode hex="0114"/>
  <anchor x="595.0" y="1520.0" name="_top"/>
  <anchor x="596.0" y="0.0" name="bottom"/>
  <anchor x="898.0" y="0.0" name="ogonek"/>
  <anchor x="595.0" y="1520.0" name="top"/>
  <anchor x="38.5" y="1480.0" name="topleft"/>
  <outline>
    <contour>
      <point x="177.0" y="0.0" type="line"/>
      <point x="978.0" y="0.0" type="line"/>
      <point x="978.0" y="66.0" type="line"/>
      <point x="245.0" y="66.0" type="line"/>
      <point x="245.0" y="1414.0" type="line"/>
      <point x="968.0" y="1414.0" type="line"/>
      <point x="968.0" y="1480.0" type="line"/>
      <point x="177.0" y="1480.0" type="line"/>
    </contour>
    <contour>
      <point x="232.0" y="728.0" type="line"/>
      <point x="875.5" y="728.0" type="line"/>
      <point x="875.5" y="794.0" type="line"/>
      <point x="232.0" y="794.0" type="line"/>
    </contour>
    <contour>
      <point x="597.0" y="1628.0" type="curve" smooth="yes"/>
      <point x="759.5" y="1628.0"/>
      <point x="846.0" y="1710.5"/>
      <point x="857.0" y="1860.0" type="curve"/>
      <point x="800.0" y="1860.0" type="line"/>
      <point x="788.5" y="1741.5"/>
      <point x="732.5" y="1686.5"/>
      <point x="597.0" y="1686.5" type="curve" smooth="yes"/>
      <point x="461.5" y="1686.5"/>
      <point x="404.5" y="1741.5"/>
      <point x="390.0" y="1860.0" type="curve"/>
      <point x="333.0" y="1860.0" type="line"/>
      <point x="344.0" y="1712.5"/>
      <point x="434.5" y="1628.0"/>
    </contour>
  </outline>
</glyph>
<glyph name="Eogonek" format="2">
  <advance width="1030.5"/>
  <unicode hex="0118"/>
  <anchor x="898.0" y="0.0" name="_ogonek"/>
  <anchor x="596.0" y="0.0" name="bottom"/>
  <anchor x="898.0" y="0.0" name="ogonek"/>
  <anchor x="595.0" y="1520.0" name="top"/>
  <anchor x="38.5" y="1480.0" name="topleft"/>
  <outline>
    <contour>
      <point x="177.0" y="0.0" type="line"/>
      <point x="978.0" y="0.0" type="line"/>
      <point x="978.0" y="66.0" type="line"/>
      <point x="245.0" y="66.0" type="line"/>
      <point x="245.0" y="1414.0" type="line"/>
      <point x="968.0" y="1414.0" type="line"/>
      <point x="968.0" y="1480.0" type="line"/>
      <point x="177.0" y="1480.0" type="line"/>
    </contour>
    <contour>
      <point x="232.0" y="728.0" type="line"/>
      <point x="875.5" y="728.0" type="line"/>
      <point x="875.5" y="794.0" type="line"/>
      <point x="232.0" y="794.0" type="line"/>
    </contour>
    <contour>
      <point x="860.0" y="-400.0" type="curve" smooth="yes"/>
      <point x="911.5" y="-400.0"/>
      <point x="963.5" y="-387.5"/>
      <point x="1016.5" y="-361.5" type="curve"/>
      <point x="1016.5" y="-307.5" type="line"/>
      <point x="950.5" y="-337.0"/>
      <point x="904.5" y="-348.0"/>
      <point x="857.5" y="-348.0" type="curve" smooth="yes"/>
      <point x="762.5" y="-348.0"/>
      <point x="712.5" y="-308.5"/>
      <point x="712.5" y="-228.0" type="curve" smooth="yes"/>
      <point x="712.5" y="-148.0"/>
      <point x="758.0" y="-80.0"/>
      <point x="898.0" y="0.0" type="curve"/>
      <point x="871.0" y="46.5" type="line"/>
      <point x="717.5" y="-41.5"/>
      <point x="656.5" y="-128.0"/>
      <point x="656.5" y="-231.5" type="curve" smooth="yes"/>
      <point x="656.5" y="-340.5"/>
      <point x="730.0" y="-400.0"/>
    </contour>
  </outline>
</glyph>
<glyph name="eogonek" format="2">
  <advance width="916.0"/>
  <unicode hex="0119"/>
  <outline>
    <contour>
      <point x="642.5" y="-400.0" type="curve" smooth="yes"/>
      <point x="690.0" y="-400.0"/>
      <point x="744.0" y="-385.5"/>
      <point x="783.5" y="-359.5" type="curve"/>
      <point x="783.5" y="-303.5" type="line"/>
      <point x="738.5" y="-332.5"/>
      <point x="690.0" y="-348.0"/>
      <point x="640.0" y="-348.0" type="curve" smooth="yes"/>
      <point x="561.5" y="-348.0"/>
      <point x="515.0" y="-305.0"/>
      <point x="515.0" y="-227.5" type="curve" smooth="yes"/>
      <point x="515.0" y="-146.0"/>
      <point x="562.0" y="-48.5"/>
      <point x="783.5" y="25.5" type="curve"/>
      <point x="783.5" y="93.5" type="line"/>
      <point x="685.0" y="62.0"/>
      <point x="609.0" y="48.0"/>
      <point x="538.0" y="48.0" type="curve" smooth="yes"/>
      <point x="299.5" y="48.0"/>
      <point x="170.0" y="171.0"/>
      <point x="170.0" y="534.5" type="curve" smooth="yes"/>
      <point x="170.0" y="551.0" type="line" smooth="yes"/>
      <point x="170.0" y="916.5"/>
      <point x="295.5" y="1030.0"/>
      <point x="472.5" y="1030.0" type="curve" smooth="yes"/>
      <point x="648.0" y="1030.0"/>
      <point x="761.0" y="916.0"/>
      <point x="761.0" y="551.0" type="curve"/>
      <point x="782.5" y="576.0" type="line"/>
      <point x="136.5" y="576.0" type="line"/>
      <point x="136.5" y="510.0" type="line"/>
      <point x="832.5" y="510.0" type="line"/>
      <point x="832.5" y="540.0" type="line" smooth="yes"/>
      <point x="832.5" y="946.0"/>
      <point x="693.5" y="1096.0"/>
      <point x="472.5" y="1096.0" type="curve" smooth="yes"/>
      <point x="253.5" y="1096.0"/>
      <point x="98.0" y="943.5"/>
      <point x="98.0" y="540.0" type="curve" smooth="yes"/>
      <point x="98.0" y="133.5"/>
      <point x="254.5" y="-18.0"/>
      <point x="534.0" y="-18.0" type="curve" smooth="yes"/>
      <point x="558.0" y="-18.0"/>
      <point x="584.0" y="-16.0"/>
      <point x="607.5" y="-13.0" type="curve"/>
      <point x="605.0" y="-2.5" type="line"/>
      <point x="506.5" y="-60.0"/>
      <point x="459.0" y="-141.0"/>
      <point x="459.0" y="-231.5" type="curve" smooth="yes"/>
      <point x="459.0" y="-337.0"/>
      <point x="527.5" y="-400.0"/>
    </contour>
  </outline>
</glyph>
<glyph name="Ecaron" format="2">
  <advance width="1030.5"/>
  <unicode hex="011A"/>
  <anchor x="595.0" y="1520.0" name="_top"/>
  <anchor x="596.0" y="0.0" name="bottom"/>
  <anchor x="898.0" y="0.0" name="ogonek"/>
  <anchor x="595.0" y="1520.0" name="top"/>
  <anchor x="38.5" y="1480.0" name="topleft"/>
  <outline>
    <contour>
      <point x="177.0" y="0.0" type="line"/>
      <point x="978.0" y="0.0" type="line"/>
      <point x="978.0" y="66.0" type="line"/>
      <point x="245.0" y="66.0" type="line"/>
      <point x="245.0" y="1414.0" type="line"/>
      <point x="968.0" y="1414.0" type="line"/>
      <point x="968.0" y="1480.0" type="line"/>
      <point x="177.0" y="1480.0" type="line"/>
    </contour>
    <contour>
      <point x="232.0" y="728.0" type="line"/>
      <point x="875.5" y="728.0" type="line"/>
      <point x="875.5" y="794.0" type="line"/>
      <point x="232.0" y="794.0" type="line"/>
    </contour>
    <contour>
      <point x="557.0" y="1616.0" type="line"/>
      <point x="633.0" y="1616.0" type="line"/>
      <point x="851.0" y="1888.0" type="line"/>
      <point x="775.5" y="1888.0" type="line"/>
      <point x="584.5" y="1645.5" type="line"/>
      <point x="605.5" y="1645.5" type="line"/>
      <point x="414.5" y="1888.0" type="line"/>
      <point x="339.0" y="1888.0" type="line"/>
    </contour>
  </outline>
</glyph>
<glyph name="gbreve" format="2">
  <advance width="992.5"/>
  <unicode hex="011F"/>
  <anchor x="514.5" y="1200.0" name="_top"/>
  <anchor x="514.5" y="-440.0" name="bottom"/>
  <anchor x="514.5" y="1200.0" name="top"/>
  <outline>
    <contour>
      <point x="429.0" y="-460.0" type="curve" smooth="yes"/>
      <point x="695.0" y="-460.0"/>
      <point x="835.5" y="-340.0"/>
      <point x="835.5" y="-24.5" type="curve" smooth="yes"/>
      <point x="835.5" y="1057.0" type="line"/>
      <point x="765.5" y="1080.0"/>
      <point x="666.0" y="1096.0"/>
      <point x="579.5" y="1096.0" type="curve" smooth="yes"/>
      <point x="273.5" y="1096.0"/>
      <point x="98.0" y="919.5"/>
      <point x="98.0" y="518.0" type="curve" smooth="yes"/>
      <point x="98.0" y="109.0"/>
      <point x="273.0" y="-18.0"/>
      <point x="479.5" y="-18.0" type="curve" smooth="yes"/>
      <point x="606.5" y="-18.0"/>
      <point x="704.0" y="39.5"/>
      <point x="761.5" y="106.5" type="curve"/>
      <point x="767.5" y="106.5" type="line"/>
      <point x="767.5" y="-29.0" type="line" smooth="yes"/>
      <point x="767.5" y="-301.0"/>
      <point x="654.5" y="-394.0"/>
      <point x="429.5" y="-394.0" type="curve" smooth="yes"/>
      <point x="345.5" y="-394.0"/>
      <point x="258.0" y="-379.0"/>
      <point x="160.5" y="-344.5" type="curve"/>
      <point x="160.5" y="-412.5" type="line"/>
      <point x="237.5" y="-443.0"/>
      <point x="344.0" y="-460.0"/>
    </contour>
    <contour>
      <point x="483.5" y="48.0" type="curve" smooth="yes"/>
      <point x="308.5" y="48.0"/>
      <point x="170.0" y="144.5"/>
      <point x="170.0" y="526.0" type="curve" smooth="yes"/>
      <point x="170.0" y="887.0"/>
      <point x="314.5" y="1030.0"/>
      <point x="577.5" y="1030.0" type="curve" smooth="yes"/>
      <point x="646.0" y="1030.0"/>
      <point x="719.5" y="1019.0"/>
      <point x="767.5" y="1006.5" type="curve"/>
      <point x="767.5" y="206.5" type="line"/>
      <point x="704.5" y="100.5"/>
      <point x="592.0" y="48.0"/>
    </contour>
    <contour>
      <point x="516.5" y="1276.0" type="curve" smooth="yes"/>
      <point x="662.0" y="1276.0"/>
      <point x="750.0" y="1382.0"/>
      <point x="756.5" y="1588.0" type="curve"/>
      <point x="699.5" y="1588.0" type="line"/>
      <point x="692.5" y="1413.0"/>
      <point x="633.0" y="1332.5"/>
      <point x="516.5" y="1332.5" type="curve" smooth="yes"/>
      <point x="400.0" y="1332.5"/>
      <point x="339.5" y="1413.0"/>
      <point x="329.5" y="1588.0" type="curve"/>
      <point x="272.5" y="1588.0" type="line"/>
      <point x="279.0" y="1384.0"/>
      <point x="370.5" y="1276.0"/>
    </contour>
  </outline>
</glyph>
<glyph name="Gcommaaccent" format="2">
  <advance width="1203.5"/>
  <unicode hex="0122"/>
  <anchor x="663.5" y="0.0" name="_bottom"/>
  <anchor x="663.5" y="0.0" name="bottom"/>
  <anchor x="663.5" y="1520.0" name="top"/>
  <outline>
    <contour>
      <point x="779.5" y="-10.0" type="curve" smooth="yes"/>
      <point x="869.0" y="-10.0"/>
      <point x="946.0" y="-4.0"/>
      <point x="1057.0" y="15.5" type="curve"/>
      <point x="1057.0" y="720.0" type="line"/>
      <point x="989.0" y="720.0" type="line"/>
      <point x="989.0" y="42.5" type="line"/>
      <point x="1011.0" y="78.0" type="line"/>
      <point x="940.5" y="63.0"/>
      <point x="866.0" y="56.0"/>
      <point x="779.5" y="56.0" type="curve" smooth="yes"/>
      <point x="381.0" y="56.0"/>
      <point x="180.5" y="233.0"/>
      <point x="180.0" y="739.0" type="curve" smooth="yes"/>
      <point x="179.5" y="1263.5"/>
      <point x="394.0" y="1432.0"/>
      <point x="727.0" y="1432.0" type="curve" smooth="yes"/>
      <point x="823.0" y="1432.0"/>
      <point x="919.0" y="1421.5"/>
      <point x="1033.5" y="1386.5" type="curve"/>
      <point x="1033.5" y="1454.5" type="line"/>
      <point x="934.5" y="1483.0"/>
      <point x="831.0" y="1498.0"/>
      <point x="730.5" y="1498.0" type="curve" smooth="yes"/>
      <point x="356.0" y="1498.0"/>
      <point x="107.5" y="1299.5"/>
      <point x="108.0" y="738.0" type="curve" smooth="yes"/>
      <point x="108.5" y="194.5"/>
      <point x="341.5" y="-10.0"/>
    </contour>
    <contour>
      <point x="637.5" y="-448.0" type="curve"/>
      <point x="681.5" y="-448.0" type="line"/>
      <point x="711.5" y="-386.0"/>
      <point x="725.5" y="-318.0"/>
      <point x="725.5" y="-270.0" type="curve" smooth="yes"/>
      <point x="725.5" y="-212.0"/>
      <point x="699.5" y="-184.0"/>
      <point x="659.5" y="-184.0" type="curve" smooth="yes"/>
      <point x="625.5" y="-184.0"/>
      <point x="601.5" y="-210.0"/>
      <point x="601.5" y="-246.0" type="curve" smooth="yes"/>
      <point x="601.5" y="-284.0"/>
      <point x="627.5" y="-310.0"/>
      <point x="663.5" y="-310.0" type="curve" smooth="yes"/>
      <point x="675.5" y="-310.0" type="line"/>
      <point x="671.5" y="-278.0" type="line"/>
      <point x="671.5" y="-326.0"/>
      <point x="665.5" y="-376.0"/>
    </contour>
  </outline>
</glyph>
<glyph name="Hcircumflex" format="2">
  <advance width="1309.0"/>
  <unicode hex="0124"/>
  <anchor x="654.5" y="1520.0" name="_top"/>
  <anchor x="654.5" y="0.0" name="bottom"/>
  <anchor x="654.5" y="1140.0" name="center"/>
  <anchor x="654.5" y="1520.0" name="top"/>
  <anchor x="38.5" y="1480.0" name="topleft"/>
  <outline>
    <contour>
      <point x="177.0" y="0.0" type="line"/>
      <point x="245.0" y="0.0" type="line"/>
      <point x="245.0" y="728.0" type="line"/>
      <point x="1064.0" y="728.0" type="line"/>
      <point x="1064.0" y="0.0" type="line"/>
      <point x="1132.0" y="0.0" type="line"/>
      <point x="1132.0" y="1480.0" type="line"/>
      <point x="1064.0" y="1480.0" type="line"/>
      <point x="1064.0" y="794.0" type="line"/>
      <point x="245.0" y="794.0" type="line"/>
      <point x="245.0" y="1480.0" type="line"/>
      <point x="177.0" y="1480.0" type="line"/>
    </contour>
    <contour>
      <point x="398.5" y="1616.0" type="line"/>
      <point x="474.0" y="1616.0" type="line"/>
      <point x="665.0" y="1858.5" type="line"/>
      <point x="644.0" y="1858.5" type="line"/>
      <point x="835.0" y="1616.0" type="line"/>
      <point x="910.5" y="1616.0" type="line"/>
      <point x="692.5" y="1888.0" type="line"/>
      <point x="616.5" y="1888.0" type="line"/>
    </contour>
  </outline>
</glyph>
<glyph name="hcircumflex" format="2">
  <advance width="1008.5"/>
  <unicode hex="0125"/>
  <anchor x="510.5" y="1616.0" name="_top"/>
  <anchor x="510.5" y="0.0" name="bottom"/>
  <anchor x="510.5" y="540.0" name="center"/>
  <anchor x="157.0" y="1356.0" name="stroke"/>
  <anchor x="510.5" y="1616.0" name="top"/>
  <outline>
    <contour>
      <point x="157.0" y="0.0" type="line"/>
      <point x="225.0" y="0.0" type="line"/>
      <point x="225.0" y="851.0" type="line"/>
      <point x="309.0" y="983.5"/>
      <point x="447.0" y="1028.0"/>
      <point x="552.0" y="1028.0" type="curve" smooth="yes"/>
      <point x="697.5" y="1028.0"/>
      <point x="795.5" y="962.5"/>
      <point x="795.5" y="757.0" type="curve" smooth="yes"/>
      <point x="795.5" y="0.0" type="line"/>
      <point x="863.5" y="0.0" type="line"/>
      <point x="863.5" y="754.5" type="line" smooth="yes"/>
      <point x="863.5" y="1012.0"/>
      <point x="733.5" y="1096.0"/>
      <point x="555.5" y="1096.0" type="curve" smooth="yes"/>
      <point x="434.0" y="1096.0"/>
      <point x="318.5" y="1050.5"/>
      <point x="231.0" y="954.5" type="curve"/>
      <point x="225.0" y="954.5" type="line"/>
      <point x="225.0" y="1616.0" type="line"/>
      <point x="157.0" y="1616.0" type="line"/>
    </contour>
    <contour>
      <point x="254.5" y="1712.0" type="line"/>
      <point x="330.0" y="1712.0" type="line"/>
      <point x="521.0" y="1954.5" type="line"/>
      <point x="500.0" y="1954.5" type="line"/>
      <point x="691.0" y="1712.0" type="line"/>
      <point x="766.5" y="1712.0" type="line"/>
      <point x="548.5" y="1984.0" type="line"/>
      <point x="472.5" y="1984.0" type="line"/>
    </contour>
  </outline>
</glyph>
<glyph name="Hbar" format="2">
  <advance width="1309.0"/>
  <unicode hex="0126"/>
  <anchor x="654.5" y="1140.0" name="_center"/>
  <anchor x="654.5" y="0.0" name="bottom"/>
  <anchor x="654.5" y="1140.0" name="center"/>
  <anchor x="654.5" y="1520.0" name="top"/>
  <anchor x="38.5" y="1480.0" name="topleft"/>
  <outline>
    <contour>
      <point x="177.0" y="0.0" type="line"/>
      <point x="245.0" y="0.0" type="line"/>
      <point x="245.0" y="728.0" type="line"/>
      <point x="1064.0" y="728.0" type="line"/>
      <point x="1064.0" y="0.0" type="line"/>
      <point x="1132.0" y="0.0" type="line"/>
      <point x="1132.0" y="1480.0" type="line"/>
      <point x="1064.0" y="1480.0" type="line"/>
      <point x="1064.0" y="794.0" type="line"/>
      <point x="245.0" y="794.0" type="line"/>
      <point x="245.0" y="1480.0" type="line"/>
      <point x="177.0" y="1480.0" type="line"/>
    </contour>
    <contour>
      <point x="-1.0" y="1110.0" type="line"/>
      <point x="1310.0" y="1110.0" type="line"/>
      <point x="1310.0" y="1170.0" type="line"/>
      <point x="-1.0" y="1170.0" type="line"/>
    </contour>
  </outline>
</glyph>
<glyph name="hbar" format="2">
  <advance width="1008.5"/>
  <unicode hex="0127"/>
  <anchor x="157.0" y="1356.0" name="_stroke"/>
  <anchor x="510.5" y="0.0" name="bottom"/>
  <anchor x="510.5" y="540.0" name="center"/>
  <anchor x="157.0" y="1356.0" name="stroke"/>
  <anchor x="510.5" y="1616.0" name="top"/>
  <outline>
    <contour>
      <point x="157.0" y="0.0" type="line"/>
      <point x="225.0" y="0.0" type="line"/>
      <point x="225.0" y="851.0" type="line"/>
      <point x="309.0" y="983.5"/>
      <point x="447.0" y="1028.0"/>
      <point x="552.0" y="1028.0" type="curve" smooth="yes"/>
      <point x="697.5" y="1028.0"/>
      <point x="795.5" y="962.5"/>
      <point x="795.5" y="757.0" type="curve" smooth="yes"/>
      <point x="795.5" y="0.0" type="line"/>
      <point x="863.5" y="0.0" type="line"/>
      <point x="863.5" y="754.5" type="line" smooth="yes"/>
      <point x="863.5" y="1012.0"/>
      <point x="733.5" y="1096.0"/>
      <point x="555.5" y="1096.0" type="curve" smooth="yes"/>
      <point x="434.0" y="1096.0"/>
      <point x="318.5" y="1050.5"/>
      <point x="231.0" y="954.5" type="curve"/>
      <point x="225.0" y="954.5" type="line"/>
      <point x="225.0" y="1616.0" type="line"/>
      <point x="157.0" y="1616.0" type="line"/>
    </contour>
    <contour>
      <point x="8.5" y="1326.0" type="line"/>
      <point x="557.0" y="1326.0" type="line"/>
      <point x="557.0" y="1386.0" type="line"/>
      <point x="8.5" y="1386.0" type="line"/>
    </contour>
  </outline>
</glyph>
<glyph name="Itilde" format="2">
  <advance width="422.0"/>
  <unicode hex="0128"/>
  <anchor x="211.0" y="1520.0" name="_top"/>
  <anchor x="211.0" y="0.0" name="bottom"/>
  <anchor x="245.0" y="0.0" name="ogonek"/>
  <anchor x="211.0" y="1520.0" name="top"/>
  <outline>
    <contour>
      <point x="177.0" y="0.0" type="line"/>
      <point x="245.0" y="0.0" type="line"/>
      <point x="245.0" y="1480.0" type="line"/>
      <point x="177.0" y="1480.0" type="line"/>
    </contour>
    <contour>
      <point x="347.0" y="1696.5" type="curve" smooth="yes"/>
      <point x="410.5" y="1696.5"/>
      <point x="459.0" y="1719.5"/>
      <point x="491.5" y="1758.0" type="curve"/>
      <point x="491.5" y="1824.5" type="line"/>
      <point x="451.0" y="1776.5"/>
      <point x="408.0" y="1753.0"/>
      <point x="347.0" y="1753.0" type="curve" smooth="yes"/>
      <point x="260.0" y="1753.0"/>
      <point x="181.0" y="1830.0"/>
      <point x="75.0" y="1830.0" type="curve" smooth="yes"/>
      <point x="11.5" y="1830.0"/>
      <point x="-37.0" y="1807.0"/>
      <point x="-69.5" y="1768.5" type="curve"/>
      <point x="-69.5" y="1702.0" type="line"/>
      <point x="-29.0" y="1750.0"/>
      <point x="14.0" y="1773.5"/>
      <point x="75.0" y="1773.5" type="curve" smooth="yes"/>
      <point x="162.0" y="1773.5"/>
      <point x="241.0" y="1696.5"/>
    </contour>
  </outline>
</glyph>
<glyph name="itilde" format="2">
  <advance width="382.0"/>
  <unicode hex="0129"/>
  <anchor x="191.0" y="1200.0" name="_top"/>
  <anchor x="191.0" y="0.0" name="bottom"/>
  <anchor x="225.0" y="0.0" name="ogonek"/>
  <anchor x="191.0" y="1200.0" name="top"/>
  <outline>
    <contour>
      <point x="157.0" y="0.0" type="line"/>
      <point x="225.0" y="0.0" type="line"/>
      <point x="225.0" y="1080.0" type="line"/>
      <point x="157.0" y="1080.0" type="line"/>
    </contour>
    <contour>
      <point x="317.0" y="1380.0" type="curve" smooth="yes"/>
      <point x="376.5" y="1380.0"/>
      <point x="425.0" y="1403.0"/>
      <point x="457.5" y="1441.5" type="curve"/>
      <point x="457.5" y="1508.0" type="line"/>
      <point x="417.0" y="1460.0"/>
      <point x="374.0" y="1436.5"/>
      <point x="317.0" y="1436.5" type="curve" smooth="yes"/>
      <point x="240.0" y="1436.5"/>
      <point x="161.0" y="1513.5"/>
      <point x="65.0" y="1513.5" type="curve" smooth="yes"/>
      <point x="5.5" y="1513.5"/>
      <point x="-43.0" y="1490.5"/>
      <point x="-75.5" y="1452.0" type="curve"/>
      <point x="-75.5" y="1385.5" type="line"/>
      <point x="-35.0" y="1433.5"/>
      <point x="8.0" y="1457.0"/>
      <point x="65.0" y="1457.0" type="curve" smooth="yes"/>
      <point x="142.0" y="1457.0"/>
      <point x="221.0" y="1380.0"/>
    </contour>
  </outline>
</glyph>
<glyph name="Imacron" format="2">
  <advance width="422.0"/>
  <unicode hex="012A"/>
  <anchor x="211.0" y="1520.0" name="_top"/>
  <anchor x="211.0" y="0.0" name="bottom"/>
  <anchor x="245.0" y="0.0" name="ogonek"/>
  <anchor x="211.0" y="1520.0" name="top"/>
  <outline>
    <contour>
      <point x="177.0" y="0.0" type="line"/>
      <point x="245.0" y="0.0" type="line"/>
      <point x="245.0" y="1480.0" type="line"/>
      <point x="177.0" y="1480.0" type="line"/>
    </contour>
    <contour>
      <point x="-44.0" y="1723.5" type="line"/>
      <point x="466.0" y="1723.5" type="line"/>
      <point x="466.0" y="1782.0" type="line"/>
      <point x="-44.0" y="1782.0" type="line"/>
    </contour>
  </outline>
</glyph>
<glyph name="imacron" format="2">
  <advance width="382.0"/>
  <unicode hex="012B"/>
  <anchor x="191.0" y="1200.0" name="_top"/>
  <anchor x="191.0" y="0.0" name="bottom"/>
  <anchor x="225.0" y="0.0" name="ogonek"/>
  <anchor x="191.0" y="1200.0" name="top"/>
  <outline>
    <contour>
      <point x="157.0" y="0.0" type="line"/>
      <point x="225.0" y="0.0" type="line"/>
      <point x="225.0" y="1080.0" type="line"/>
      <point x="157.0" y="1080.0" type="line"/>
    </contour>
    <contour>
      <point x="-75.5" y="1394.0" type="line"/>
      <point x="457.5" y="1394.0" type="line"/>
      <point x="457.5" y="1452.5" type="line"/>
      <point x="-75.5" y="1452.5" type="line"/>
    </contour>
  </outline>
</glyph>
<glyph name="Ibreve" format="2">
  <advance width="422.0"/>
  <unicode hex="012C"/>
  <anchor x="211.0" y="1520.0" name="_top"/>
  <anchor x="211.0" y="0.0" name="bottom"/>
  <anchor x="245.0" y="0.0" name="ogonek"/>
  <anchor x="211.0" y="1520.0" name="top"/>
  <outline>
    <contour>
      <point x="177.0" y="0.0" type="line"/>
      <point x="245.0" y="0.0" type="line"/>
      <point x="245.0" y="1480.0" type="line"/>
      <point x="177.0" y="1480.0" type="line"/>
    </contour>
    <contour>
      <point x="213.0" y="1628.0" type="curve" smooth="yes"/>
      <point x="375.5" y="1628.0"/>
      <point x="462.0" y="1710.5"/>
      <point x="473.0" y="1860.0" type="curve"/>
      <point x="416.0" y="1860.0" type="line"/>
      <point x="404.5" y="1741.5"/>
      <point x="348.5" y="1686.5"/>
      <point x="213.0" y="1686.5" type="curve" smooth="yes"/>
      <point x="77.5" y="1686.5"/>
      <point x="20.5" y="1741.5"/>
      <point x="6.0" y="1860.0" type="curve"/>
      <point x="-51.0" y="1860.0" type="line"/>
      <point x="-40.0" y="1712.5"/>
      <point x="50.5" y="1628.0"/>
    </contour>
  </outline>
</glyph>
<glyph name="ibreve" format="2">
  <advance width="382.0"/>
  <unicode hex="012D"/>
  <anchor x="191.0" y="1200.0" name="_top"/>
  <anchor x="191.0" y="0.0" name="bottom"/>
  <anchor x="225.0" y="0.0" name="ogonek"/>
  <anchor x="191.0" y="1200.0" name="top"/>
  <outline>
    <contour>
      <point x="157.0" y="0.0" type="line"/>
      <point x="225.0" y="0.0" type="line"/>
      <point x="225.0" y="1080.0" type="line"/>
      <point x="157.0" y="1080.0" type="line"/>
    </contour>
    <contour>
      <point x="193.0" y="1276.0" type="curve" smooth="yes"/>
      <point x="338.5" y="1276.0"/>
      <point x="426.5" y="1382.0"/>
      <point x="433.0" y="1588.0" type="curve"/>
      <point x="376.0" y="1588.0" type="line"/>
      <point x="369.0" y="1413.0"/>
      <point x="309.5" y="1332.5"/>
      <point x="193.0" y="1332.5" type="curve" smooth="yes"/>
      <point x="76.5" y="1332.5"/>
      <point x="16.0" y="1413.0"/>
      <point x="6.0" y="1588.0" type="curve"/>
      <point x="-51.0" y="1588.0" type="line"/>
      <point x="-44.5" y="1384.0"/>
      <point x="47.0" y="1276.0"/>
    </contour>
  </outline>
</glyph>
<glyph name="Iogonek" format="2">
  <advance width="422.0"/>
  <unicode hex="012E"/>
  <anchor x="245.0" y="0.0" name="_ogonek"/>
  <anchor x="211.0" y="0.0" name="bottom"/>
  <anchor x="245.0" y="0.0" name="ogonek"/>
  <anchor x="211.0" y="1520.0" name="top"/>
  <outline>
    <contour>
      <point x="177.0" y="0.0" type="line"/>
      <point x="245.0" y="0.0" type="line"/>
      <point x="245.0" y="1480.0" type="line"/>
      <point x="177.0" y="1480.0" type="line"/>
    </contour>
    <contour>
      <point x="207.0" y="-400.0" type="curve" smooth="yes"/>
      <point x="258.5" y="-400.0"/>
      <point x="310.5" y="-387.5"/>
      <point x="363.5" y="-361.5" type="curve"/>
      <point x="363.5" y="-307.5" type="line"/>
      <point x="297.5" y="-337.0"/>
      <point x="251.5" y="-348.0"/>
      <point x="204.5" y="-348.0" type="curve" smooth="yes"/>
      <point x="109.5" y="-348.0"/>
      <point x="59.5" y="-308.5"/>
      <point x="59.5" y="-228.0" type="curve" smooth="yes"/>
      <point x="59.5" y="-148.0"/>
      <point x="105.0" y="-80.0"/>
      <point x="245.0" y="0.0" type="curve"/>
      <point x="218.0" y="46.5" type="line"/>
      <point x="64.5" y="-41.5"/>
      <point x="3.5" y="-128.0"/>
      <point x="3.5" y="-231.5" type="curve" smooth="yes"/>
      <point x="3.5" y="-340.5"/>
      <point x="77.0" y="-400.0"/>
    </contour>
  </outline>
</glyph>
